<svg xmlns="http://www.w3.org/2000/svg" width="365" height="100"><g font-family="DejaVu Sans, sans-serif" font-size="8pt"><text x="35.968" y="95.000" text-anchor="middle">-1</text><text x="78.978" y="95.000" text-anchor="middle">0</text><text x="121.989" y="95.000" text-anchor="middle">1</text><text x="165.000" y="95.000" text-anchor="middle">2</text><text x="208.011" y="95.000" text-anchor="middle">3</text><text x="251.022" y="95.000" text-anchor="middle">4</text><text x="294.032" y="95.000" text-anchor="middle">5</text><text x="332.000" y="46.500" text-anchor="start">1D</text></g><svg xmlns="http://www.w3.org/2000/svg" width="320" height="75" x="5" y="5"><rect x="0" y="0" width="320" height="75" stroke="none" fill="#FFFFFF"></rect><g font-family="DejaVu Sans, sans-serif" font-size="8pt" text-anchor="middle"><polygon points="73.978,20.000 73.978,55.000 160.000,55.000 160.000,20.000" fill="#ffffff" stroke="#000000"></polygon><text x="116.989" y="37.500" dy="3">X<tspan dy="2" font-size="0.8em">4</tspan></text><polygon points="160.000,20.000 160.000,55.000 246.022,55.000 246.022,20.000" fill="#ffffff" stroke="#000000"></polygon><text x="203.011" y="37.500" dy="3">X<tspan dy="2" font-size="0.8em">3</tspan></text><polygon points="246.022,20.000 246.022,55.000 293.333,55.000 293.333,20.000" fill="#cccccc" stroke="#000000"></polygon><text x="269.677" y="37.500" dy="3">X<tspan dy="2" font-size="0.8em">2</tspan></text><polygon points="26.667,20.000 26.667,55.000 73.978,55.000 73.978,20.000" fill="#cccccc" stroke="#000000"></polygon><text x="50.323" y="37.500" dy="3">X<tspan dy="2" font-size="0.8em">1</tspan></text></g><rect x="0.5" y="0.5" width="319" height="74" stroke="#000000" stroke-width="1" fill="none"></rect></svg><g stroke="#000" stroke-width="1"><line x1="35.968" y1="76.000" x2="35.968" y2="79.500"></line><line x1="78.978" y1="76.000" x2="78.978" y2="79.500"></line><line x1="121.989" y1="76.000" x2="121.989" y2="79.500"></line><line x1="165.000" y1="76.000" x2="165.000" y2="79.500"></line><line x1="208.011" y1="76.000" x2="208.011" y2="79.500"></line><line x1="251.022" y1="76.000" x2="251.022" y2="79.500"></line><line x1="294.032" y1="76.000" x2="294.032" y2="79.500"></line><line x1="321.000" y1="42.500" x2="324.500" y2="42.500"></line></g></svg>