<svg xmlns="http://www.w3.org/2000/svg" width="385" height="245"><g font-family="DejaVu Sans, sans-serif" font-size="8pt"><text x="58.877" y="240.000" text-anchor="middle">-4</text><text x="116.938" y="240.000" text-anchor="middle">-2</text><text x="175.000" y="240.000" text-anchor="middle">0</text><text x="233.062" y="240.000" text-anchor="middle">2</text><text x="291.123" y="240.000" text-anchor="middle">4</text><text x="352.000" y="206.092" text-anchor="start">-3</text><text x="352.000" y="177.062" text-anchor="start">-2</text><text x="352.000" y="148.031" text-anchor="start">-1</text><text x="352.000" y="119.000" text-anchor="start">0</text><text x="352.000" y="89.969" text-anchor="start">1</text><text x="352.000" y="60.938" text-anchor="start">2</text><text x="352.000" y="31.908" text-anchor="start">3</text></g><svg xmlns="http://www.w3.org/2000/svg" width="340" height="220" x="5" y="5"><rect x="0" y="0" width="340" height="220" stroke="none" fill="#FFFFFF"></rect><g font-family="DejaVu Sans, sans-serif" font-size="8pt" text-anchor="middle"><polygon points="140.969,55.587 150.925,55.587 140.969,45.631" fill="#FFFFFF" stroke="#000000"></polygon><polygon points="140.969,65.451 160.789,65.451 150.925,55.587 140.969,55.587" fill="#009933" stroke="#000000"></polygon><polygon points="140.969,45.631 176.308,80.969 199.031,80.969 199.031,33.552 167.097,22.908 140.969,22.908" fill="#FFFFFF" stroke="#000000"></polygon><polygon points="140.969,80.969 176.308,80.969 160.789,65.451 140.969,65.451" fill="#009933" stroke="#000000"></polygon><polygon points="199.031,177.430 199.031,160.670 182.271,160.670" fill="#FFFFFF" stroke="#000000"></polygon><polygon points="140.969,186.448 172.903,197.092 199.031,197.092 199.031,177.430 160.632,139.031 140.969,139.031" fill="#FFFFFF" stroke="#000000"></polygon><polygon points="182.271,160.670 199.031,160.670 199.031,139.031 160.632,139.031" fill="#009933" stroke="#000000"></polygon><polygon points="112.888,97.385 130.756,97.385 106.933,85.473" fill="#009933" stroke="#000000"></polygon><polygon points="106.933,85.473 134.986,99.500 116.455,80.969 104.681,80.969" fill="#009933" stroke="#000000"></polygon><polygon points="119.789,112.903 120.648,112.903 104.681,80.969 55.922,80.969" fill="#FFFFFF" stroke="#000000"></polygon><polygon points="24.846,121.612 42.264,139.031 140.969,139.031 140.969,123.493 55.922,80.969 24.846,80.969" fill="#FFFFFF" stroke="#000000"></polygon><polygon points="120.648,112.903 140.969,112.903 140.969,105.483 134.986,99.500 130.756,97.385 112.888,97.385" fill="#009933" stroke="#000000"></polygon><polygon points="140.969,123.493 140.969,112.903 119.789,112.903" fill="#009933" stroke="#000000"></polygon><polygon points="140.969,105.483 140.969,80.969 116.455,80.969" fill="#009933" stroke="#000000"></polygon><polygon points="199.031,102.303 220.418,112.996 204.405,80.969 199.031,80.969" fill="#FFFFFF" stroke="#000000"></polygon><polygon points="232.988,138.136 315.154,138.136 315.154,98.388 297.736,80.969 204.405,80.969" fill="#FFFFFF" stroke="#000000"></polygon><polygon points="224.915,139.031 315.154,139.031 315.154,138.136 223.126,138.136" fill="#FFFFFF" stroke="#000000"></polygon><polygon points="221.656,139.031 224.915,139.031 218.397,135.772" fill="#009933" stroke="#000000"></polygon><polygon points="199.031,116.405 218.397,135.772 223.126,138.136 232.988,138.136 220.418,112.996 199.031,102.303" fill="#009933" stroke="#000000"></polygon><polygon points="199.031,139.031 221.656,139.031 199.031,116.405" fill="#009933" stroke="#000000"></polygon><polygon points="88.221,39.834 101.980,39.834 74.463,26.075" fill="#FFFFFF" stroke="#000000"></polygon><polygon points="74.463,26.075 137.481,57.584 140.969,57.584 140.969,22.908 71.295,22.908" fill="#FFFFFF" stroke="#000000"></polygon><polygon points="105.972,57.584 137.481,57.584 101.980,39.834 88.221,39.834" fill="#009933" stroke="#000000"></polygon><polygon points="97.089,69.692 116.909,69.692 77.269,49.871" fill="#009933" stroke="#000000"></polygon><polygon points="77.269,49.871 119.249,70.862 71.295,22.908 50.305,22.908" fill="#FFFFFF" stroke="#000000"></polygon><polygon points="24.846,80.969 108.366,80.969 50.305,22.908 24.846,22.908" fill="#FFFFFF" stroke="#000000"></polygon><polygon points="108.366,80.969 129.357,80.969 119.249,70.862 116.909,69.692 97.089,69.692" fill="#009933" stroke="#000000"></polygon><polygon points="129.357,80.969 140.969,80.969 140.969,57.584 105.972,57.584" fill="#009933" stroke="#000000"></polygon><polygon points="243.164,158.488 315.154,158.488 315.154,139.031 233.436,139.031" fill="#FFFFFF" stroke="#000000"></polygon><polygon points="233.328,158.488 243.164,158.488 233.436,139.031 213.870,139.031" fill="#009933" stroke="#000000"></polygon><polygon points="244.136,160.431 243.164,158.488 240.249,158.488" fill="#009933" stroke="#000000"></polygon><polygon points="256.938,186.036 315.154,186.036 315.154,158.488 243.164,158.488" fill="#FFFFFF" stroke="#000000"></polygon><polygon points="269.189,197.092 315.154,197.092 315.154,186.036 247.076,186.036" fill="#FFFFFF" stroke="#000000"></polygon><polygon points="199.031,197.092 269.189,197.092 199.031,162.013" fill="#FFFFFF" stroke="#000000"></polygon><polygon points="199.031,162.013 247.076,186.036 256.938,186.036 244.136,160.431 240.249,158.488 199.031,158.488" fill="#009933" stroke="#000000"></polygon><polygon points="199.031,158.488 233.328,158.488 213.870,139.031 199.031,139.031" fill="#009933" stroke="#000000"></polygon><polygon points="199.031,80.969 297.736,80.969 289.026,72.260 236.771,46.132 199.031,33.552" fill="#FFFFFF" stroke="#000000"></polygon><polygon points="199.031,33.552 236.771,46.132 199.031,27.262" fill="#CCCCCC" stroke="#000000"></polygon><polygon points="50.974,147.740 103.229,173.868 140.969,186.448 140.969,139.031 42.264,139.031" fill="#FFFFFF" stroke="#000000"></polygon><polygon points="140.969,192.738 140.969,186.448 103.229,173.868" fill="#CCCCCC" stroke="#000000"></polygon><polygon points="199.031,33.552 199.031,27.262 190.322,22.908 167.097,22.908" fill="#CCCCCC" stroke="#000000"></polygon><polygon points="140.969,192.738 149.678,197.092 172.903,197.092 140.969,186.448" fill="#CCCCCC" stroke="#000000"></polygon><polygon points="199.031,27.262 289.026,72.260 239.674,22.908 199.031,22.908" fill="#CCCCCC" stroke="#000000"></polygon><polygon points="100.326,197.092 140.969,197.092 140.969,192.738 50.974,147.740" fill="#CCCCCC" stroke="#000000"></polygon><polygon points="199.031,27.262 199.031,22.908 190.322,22.908" fill="#CCCCCC" stroke="#000000"></polygon><polygon points="140.969,197.092 149.678,197.092 140.969,192.738" fill="#CCCCCC" stroke="#000000"></polygon><polygon points="24.846,139.031 42.264,139.031 24.846,121.612" fill="#CCCCCC" stroke="#000000"></polygon><polygon points="315.154,98.388 315.154,80.969 297.736,80.969" fill="#CCCCCC" stroke="#000000"></polygon><polygon points="297.736,80.969 315.154,80.969 315.154,22.908 239.674,22.908" fill="#CCCCCC" stroke="#000000"></polygon><polygon points="24.846,197.092 100.326,197.092 42.264,139.031 24.846,139.031" fill="#CCCCCC" stroke="#000000"></polygon><polygon points="140.969,139.031 199.031,139.031 199.031,80.969 140.969,80.969" fill="#009933" stroke="#000000"></polygon><polygon points="315.154,22.908 315.154,-9.026 123.551,-9.026 91.617,22.908" fill="#CCCCCC" stroke="#000000"></polygon><polygon points="315.154,130.322 390.634,54.841 419.665,-3.220 419.665,-9.026 315.154,-9.026" fill="#CCCCCC" stroke="#000000"></polygon><polygon points="24.846,229.026 216.449,229.026 248.383,197.092 24.846,197.092" fill="#CCCCCC" stroke="#000000"></polygon><polygon points="-79.665,229.026 24.846,229.026 24.846,89.678 -50.634,165.159 -79.665,223.220" fill="#CCCCCC" stroke="#000000"></polygon></g><rect x="0.5" y="0.5" width="339" height="219" stroke="#000000" stroke-width="1" fill="none"></rect></svg><g stroke="#000" stroke-width="1"><line x1="58.877" y1="221.000" x2="58.877" y2="224.500"></line><line x1="116.938" y1="221.000" x2="116.938" y2="224.500"></line><line x1="175.000" y1="221.000" x2="175.000" y2="224.500"></line><line x1="233.062" y1="221.000" x2="233.062" y2="224.500"></line><line x1="291.123" y1="221.000" x2="291.123" y2="224.500"></line><line x1="341.000" y1="202.092" x2="344.500" y2="202.092"></line><line x1="341.000" y1="173.062" x2="344.500" y2="173.062"></line><line x1="341.000" y1="144.031" x2="344.500" y2="144.031"></line><line x1="341.000" y1="115.000" x2="344.500" y2="115.000"></line><line x1="341.000" y1="85.969" x2="344.500" y2="85.969"></line><line x1="341.000" y1="56.938" x2="344.500" y2="56.938"></line><line x1="341.000" y1="27.908" x2="344.500" y2="27.908"></line></g></svg>