<svg xmlns="http://www.w3.org/2000/svg" width="385" height="245"><g font-family="DejaVu Sans, sans-serif" font-size="8pt"><text x="58.877" y="240.000" text-anchor="middle">-4</text><text x="116.938" y="240.000" text-anchor="middle">-2</text><text x="175.000" y="240.000" text-anchor="middle">0</text><text x="233.062" y="240.000" text-anchor="middle">2</text><text x="291.123" y="240.000" text-anchor="middle">4</text><text x="352.000" y="206.092" text-anchor="start">-3</text><text x="352.000" y="177.062" text-anchor="start">-2</text><text x="352.000" y="148.031" text-anchor="start">-1</text><text x="352.000" y="119.000" text-anchor="start">0</text><text x="352.000" y="89.969" text-anchor="start">1</text><text x="352.000" y="60.938" text-anchor="start">2</text><text x="352.000" y="31.908" text-anchor="start">3</text></g><svg xmlns="http://www.w3.org/2000/svg" width="340" height="220" x="5" y="5"><rect x="0" y="0" width="340" height="220" stroke="none" fill="#FFFFFF"></rect><g font-family="DejaVu Sans, sans-serif" font-size="8pt" text-anchor="middle"><polygon points="315.154,127.999 315.154,104.629 244.176,80.969 221.094,80.969" fill="#009933" stroke="#000000"></polygon><polygon points="244.176,80.969 315.154,104.629 315.154,104.222 245.394,80.969" fill="#009933" stroke="#000000"></polygon><polygon points="31.730,110.896 39.336,110.896 30.885,109.205" fill="#009933" stroke="#000000"></polygon><polygon points="30.885,109.205 40.912,111.211 67.281,111.211 42.795,105.090 28.827,105.090" fill="#009933" stroke="#000000"></polygon><polygon points="29.540,111.211 31.888,111.211 28.827,105.090 26.480,105.090" fill="#009933" stroke="#000000"></polygon><polygon points="31.730,110.896 31.888,111.211 40.912,111.211 39.336,110.896" fill="#009933" stroke="#000000"></polygon><polygon points="101.620,131.693 128.881,131.693 98.958,121.719 81.387,118.204" fill="#009933" stroke="#000000"></polygon><polygon points="68.828,124.011 99.558,131.693 101.620,131.693 79.532,116.967 65.307,116.967" fill="#009933" stroke="#000000"></polygon><polygon points="79.532,116.967 81.387,118.204 98.958,121.719 84.705,116.967" fill="#009933" stroke="#000000"></polygon><polygon points="127.112,137.499 140.969,137.499 140.969,135.722 128.881,131.693 124.209,131.693" fill="#009933" stroke="#000000"></polygon><polygon points="98.319,137.814 127.269,137.814 124.209,131.693 95.258,131.693" fill="#009933" stroke="#000000"></polygon><polygon points="127.112,137.499 127.269,137.814 140.969,137.814 140.969,137.499" fill="#009933" stroke="#000000"></polygon><polygon points="199.031,101.291 204.630,106.890 257.507,124.515 259.996,124.515 203.755,96.395 199.031,95.214" fill="#009933" stroke="#000000"></polygon><polygon points="199.031,95.214 203.755,96.395 201.809,95.422 199.031,94.728" fill="#009933" stroke="#000000"></polygon><polygon points="199.031,94.033 229.978,109.506 231.952,110.000 255.351,110.000 199.031,91.227" fill="#009933" stroke="#000000"></polygon><polygon points="230.384,109.710 231.545,110.000 231.952,110.000 229.978,109.506" fill="#009933" stroke="#000000"></polygon><polygon points="199.031,80.969 295.332,80.969 291.430,77.067 239.233,50.969 199.031,50.969" fill="#009933" stroke="#000000"></polygon><polygon points="199.031,50.966 199.031,50.969 239.233,50.969 239.227,50.966" fill="#009933" stroke="#000000"></polygon><polygon points="140.685,151.719 140.969,151.719 140.969,139.031 134.341,139.031" fill="#009933" stroke="#000000"></polygon><polygon points="107.520,157.965 140.969,157.965 140.969,152.287 134.341,139.031 98.053,139.031" fill="#009933" stroke="#000000"></polygon><polygon points="140.969,152.287 140.969,151.719 140.685,151.719" fill="#009933" stroke="#000000"></polygon><polygon points="95.100,92.582 91.855,86.090 82.117,86.090" fill="#009933" stroke="#000000"></polygon><polygon points="95.391,93.162 113.680,93.162 106.608,86.090 91.855,86.090" fill="#009933" stroke="#000000"></polygon><polygon points="98.294,98.968 119.486,98.968 113.680,93.162 86.682,93.162" fill="#009933" stroke="#000000"></polygon><polygon points="72.537,86.090 86.682,93.162 95.391,93.162 95.100,92.582 82.117,86.090" fill="#009933" stroke="#000000"></polygon><polygon points="24.846,97.702 67.496,97.702 50.078,91.896 24.846,91.896" fill="#009933" stroke="#000000"></polygon><polygon points="71.295,98.968 98.294,98.968 84.149,91.896 50.078,91.896" fill="#009933" stroke="#000000"></polygon><polygon points="24.846,98.968 71.295,98.968 67.496,97.702 24.846,97.702" fill="#009933" stroke="#000000"></polygon><polygon points="279.251,128.190 288.437,128.190 277.414,124.515" fill="#009933" stroke="#000000"></polygon><polygon points="290.478,133.225 303.542,133.225 301.800,132.644 288.736,132.644" fill="#009933" stroke="#000000"></polygon><polygon points="281.769,133.225 290.478,133.225 280.027,129.741" fill="#009933" stroke="#000000"></polygon><polygon points="264.350,133.225 281.769,133.225 277.414,124.515 246.932,124.515" fill="#009933" stroke="#000000"></polygon><polygon points="280.027,129.741 288.736,132.644 301.800,132.644 288.437,128.190 279.251,128.190" fill="#009933" stroke="#000000"></polygon><polygon points="245.394,80.969 315.154,104.222 315.154,103.979 246.125,80.969" fill="#009933" stroke="#000000"></polygon><polygon points="40.995,99.283 53.163,99.283 52.218,98.968 40.838,98.968" fill="#009933" stroke="#000000"></polygon><polygon points="24.846,105.090 70.582,105.090 53.163,99.283 24.846,99.283" fill="#009933" stroke="#000000"></polygon><polygon points="24.846,99.283 40.995,99.283 40.838,98.968 24.846,98.968" fill="#009933" stroke="#000000"></polygon><polygon points="65.486,103.391 69.733,103.391 56.465,98.968 52.218,98.968" fill="#009933" stroke="#000000"></polygon><polygon points="83.418,107.953 78.926,98.968 56.465,98.968" fill="#009933" stroke="#000000"></polygon><polygon points="84.110,109.336 114.634,116.967 116.003,116.967 80.004,98.968 78.926,98.968" fill="#009933" stroke="#000000"></polygon><polygon points="106.215,116.967 114.634,116.967 80.958,108.548" fill="#009933" stroke="#000000"></polygon><polygon points="65.486,103.391 80.958,108.548 84.110,109.336 83.418,107.953 69.733,103.391" fill="#009933" stroke="#000000"></polygon><polygon points="90.307,116.967 106.215,116.967 70.582,105.090 42.795,105.090" fill="#009933" stroke="#000000"></polygon><polygon points="31.730,115.590 33.107,116.967 38.092,116.967 30.528,113.185" fill="#009933" stroke="#000000"></polygon><polygon points="24.846,108.706 31.730,115.590 26.480,105.090 24.846,105.090" fill="#009933" stroke="#000000"></polygon><polygon points="29.540,111.211 30.528,113.185 38.092,116.967 90.307,116.967 67.281,111.211" fill="#009933" stroke="#000000"></polygon><polygon points="126.628,119.929 140.969,123.514 140.969,120.451 136.760,116.242 122.389,111.452" fill="#009933" stroke="#000000"></polygon><polygon points="128.196,123.064 140.969,129.451 140.969,126.052 127.434,121.540" fill="#009933" stroke="#000000"></polygon><polygon points="128.196,123.064 122.389,111.452 84.940,98.968 80.004,98.968" fill="#009933" stroke="#000000"></polygon><polygon points="127.434,121.540 140.969,126.052 140.969,123.514 126.628,119.929" fill="#009933" stroke="#000000"></polygon><polygon points="112.374,100.855 111.430,98.968 106.713,98.968" fill="#009933" stroke="#000000"></polygon><polygon points="113.680,103.468 127.421,106.903 126.309,105.791 112.664,98.968 111.430,98.968" fill="#009933" stroke="#000000"></polygon><polygon points="136.760,116.242 127.421,106.903 95.681,98.968 84.940,98.968" fill="#009933" stroke="#000000"></polygon><polygon points="95.681,98.968 113.680,103.468 112.374,100.855 106.713,98.968" fill="#009933" stroke="#000000"></polygon><polygon points="72.387,131.129 97.301,131.129 68.828,124.011" fill="#009933" stroke="#000000"></polygon><polygon points="58.444,131.693 72.669,131.693 65.307,116.967 51.082,116.967" fill="#009933" stroke="#000000"></polygon><polygon points="72.387,131.129 72.669,131.693 99.558,131.693 97.301,131.129" fill="#009933" stroke="#000000"></polygon><polygon points="114.694,119.465 120.998,119.465 116.003,116.967 113.445,116.967" fill="#009933" stroke="#000000"></polygon><polygon points="119.193,128.464 140.969,135.722 140.969,130.961 117.510,125.096" fill="#009933" stroke="#000000"></polygon><polygon points="119.193,128.464 113.445,116.967 84.705,116.967" fill="#009933" stroke="#000000"></polygon><polygon points="117.510,125.096 140.969,130.961 140.969,129.451 120.998,119.465 114.694,119.465" fill="#009933" stroke="#000000"></polygon><polygon points="98.927,139.031 100.302,139.031 98.652,138.481" fill="#009933" stroke="#000000"></polygon><polygon points="58.726,132.257 72.274,139.031 98.927,139.031 95.258,131.693 58.444,131.693" fill="#009933" stroke="#000000"></polygon><polygon points="98.319,137.814 98.652,138.481 100.302,139.031 140.969,139.031 140.969,137.814" fill="#009933" stroke="#000000"></polygon><polygon points="255.002,120.335 262.434,122.193 283.801,122.193 250.357,111.045" fill="#009933" stroke="#000000"></polygon><polygon points="255.931,122.193 256.761,122.193 255.765,121.861" fill="#009933" stroke="#000000"></polygon><polygon points="255.351,122.193 255.931,122.193 250.357,111.045 247.222,110.000 230.965,110.000" fill="#009933" stroke="#000000"></polygon><polygon points="255.765,121.861 256.761,122.193 262.434,122.193 255.002,120.335" fill="#009933" stroke="#000000"></polygon><polygon points="273.059,118.129 281.769,118.129 271.318,114.645" fill="#009933" stroke="#000000"></polygon><polygon points="271.318,114.645 300.929,124.515 308.187,124.515 279.156,110.000 268.995,110.000" fill="#009933" stroke="#000000"></polygon><polygon points="290.768,124.515 294.949,124.515 278.227,120.335" fill="#009933" stroke="#000000"></polygon><polygon points="273.350,118.709 268.995,110.000 247.222,110.000" fill="#009933" stroke="#000000"></polygon><polygon points="273.059,118.129 273.350,118.709 278.227,120.335 294.949,124.515 300.929,124.515 281.769,118.129" fill="#009933" stroke="#000000"></polygon><polygon points="199.031,94.033 199.031,94.728 201.809,95.422" fill="#009933" stroke="#000000"></polygon><polygon points="226.992,118.701 250.249,124.515 257.507,124.515 224.377,113.472" fill="#009933" stroke="#000000"></polygon><polygon points="229.899,124.515 243.398,124.515 227.199,119.116" fill="#009933" stroke="#000000"></polygon><polygon points="216.043,118.303 228.468,124.515 229.899,124.515 224.377,113.472 204.630,106.890" fill="#009933" stroke="#000000"></polygon><polygon points="226.992,118.701 227.199,119.116 243.398,124.515 250.249,124.515" fill="#009933" stroke="#000000"></polygon><polygon points="259.183,101.987 258.602,100.826 255.699,100.826" fill="#009933" stroke="#000000"></polygon><polygon points="260.286,104.194 267.544,104.194 265.221,103.033 258.602,100.826" fill="#009933" stroke="#000000"></polygon><polygon points="277.124,110.000 279.156,110.000 267.544,104.194 253.899,104.194" fill="#009933" stroke="#000000"></polygon><polygon points="255.351,110.000 277.124,110.000 240.429,100.826 227.829,100.826" fill="#009933" stroke="#000000"></polygon><polygon points="240.429,100.826 253.899,104.194 260.286,104.194 259.183,101.987 255.699,100.826" fill="#009933" stroke="#000000"></polygon><polygon points="230.965,110.000 231.545,110.000 230.384,109.710" fill="#009933" stroke="#000000"></polygon><polygon points="199.031,85.643 223.068,91.653 221.466,88.448 199.031,80.969" fill="#009933" stroke="#000000"></polygon><polygon points="224.752,95.020 241.184,95.020 221.466,88.448" fill="#009933" stroke="#000000"></polygon><polygon points="240.429,100.826 258.602,100.826 241.184,95.020 217.204,95.020" fill="#009933" stroke="#000000"></polygon><polygon points="199.031,91.227 227.829,100.826 240.429,100.826 199.031,90.477" fill="#009933" stroke="#000000"></polygon><polygon points="199.031,90.477 217.204,95.020 224.752,95.020 223.068,91.653 199.031,85.643" fill="#009933" stroke="#000000"></polygon><polygon points="199.031,50.958 199.031,50.966 239.227,50.966 239.212,50.958" fill="#009933" stroke="#000000"></polygon><polygon points="111.420,165.765 129.253,165.765 107.853,158.632" fill="#009933" stroke="#000000"></polygon><polygon points="96.729,160.868 111.420,165.765 98.053,139.031 53.055,139.031" fill="#009933" stroke="#000000"></polygon><polygon points="107.520,157.965 107.853,158.632 129.253,165.765 140.969,165.765 140.969,157.965" fill="#009933" stroke="#000000"></polygon><polygon points="24.846,91.896 84.149,91.896 72.537,86.090 24.846,86.090" fill="#009933" stroke="#000000"></polygon><polygon points="115.215,94.697 116.127,95.153 114.758,94.240" fill="#009933" stroke="#000000"></polygon><polygon points="114.758,94.240 117.869,96.314 110.197,80.969 101.487,80.969" fill="#009933" stroke="#000000"></polygon><polygon points="118.325,97.226 135.395,102.916 131.970,96.065 116.874,80.969 110.197,80.969" fill="#009933" stroke="#000000"></polygon><polygon points="120.357,99.839 138.356,108.839 135.395,102.916 117.454,96.936" fill="#009933" stroke="#000000"></polygon><polygon points="117.454,96.936 118.325,97.226 117.869,96.314 116.127,95.153 115.215,94.697" fill="#009933" stroke="#000000"></polygon><polygon points="249.835,130.322 258.544,130.322 246.932,124.515" fill="#009933" stroke="#000000"></polygon><polygon points="254.189,139.031 265.831,139.031 250.309,131.270" fill="#009933" stroke="#000000"></polygon><polygon points="236.771,139.031 254.189,139.031 246.932,124.515 222.255,124.515" fill="#009933" stroke="#000000"></polygon><polygon points="249.835,130.322 250.309,131.270 265.831,139.031 275.963,139.031 258.544,130.322" fill="#009933" stroke="#000000"></polygon><polygon points="303.542,133.225 315.154,133.225 315.154,127.999 313.993,127.418 286.123,127.418" fill="#009933" stroke="#000000"></polygon><polygon points="277.414,124.515 286.123,127.418 313.993,127.418 308.187,124.515" fill="#009933" stroke="#000000"></polygon><polygon points="246.125,80.969 315.154,103.979 315.154,103.833 246.564,80.969" fill="#009933" stroke="#000000"></polygon><polygon points="162.742,75.163 199.031,75.163 199.031,70.564 160.443,70.564" fill="#009933" stroke="#000000"></polygon><polygon points="140.969,80.969 199.031,80.969 199.031,75.163 140.969,75.163" fill="#009933" stroke="#000000"></polygon><polygon points="140.969,75.163 162.742,75.163 160.443,70.564 140.969,70.564" fill="#009933" stroke="#000000"></polygon><polygon points="126.309,105.791 119.486,98.968 112.664,98.968" fill="#009933" stroke="#000000"></polygon><polygon points="38.067,121.927 58.726,132.257 51.082,116.967 33.107,116.967" fill="#009933" stroke="#000000"></polygon><polygon points="259.996,124.515 290.768,124.515 283.801,122.193 255.351,122.193" fill="#009933" stroke="#000000"></polygon><polygon points="222.255,124.515 228.468,124.515 216.043,118.303" fill="#009933" stroke="#000000"></polygon><polygon points="50.103,62.970 36.492,53.896 31.955,53.896" fill="#009933" stroke="#000000"></polygon><polygon points="59.683,69.357 51.953,53.896 36.492,53.896" fill="#009933" stroke="#000000"></polygon><polygon points="61.350,72.692 103.445,72.692 98.584,62.970 89.510,53.896 51.953,53.896" fill="#009933" stroke="#000000"></polygon><polygon points="24.846,75.163 104.681,75.163 103.445,72.692 24.846,72.692" fill="#009933" stroke="#000000"></polygon><polygon points="24.846,53.896 24.846,72.692 61.350,72.692 59.683,69.357 50.103,62.970 31.955,53.896" fill="#009933" stroke="#000000"></polygon><polygon points="27.310,48.090 90.672,48.090 88.479,45.898 26.214,45.898" fill="#009933" stroke="#000000"></polygon><polygon points="24.846,53.896 94.047,53.896 91.617,49.035 90.672,48.090 24.846,48.090" fill="#009933" stroke="#000000"></polygon><polygon points="24.846,48.090 27.310,48.090 26.214,45.898 24.846,45.898" fill="#009933" stroke="#000000"></polygon><polygon points="270.684,142.988 295.791,142.988 289.854,139.031 268.705,139.031" fill="#009933" stroke="#000000"></polygon><polygon points="283.346,168.313 306.823,168.313 271.608,144.837" fill="#009933" stroke="#000000"></polygon><polygon points="247.058,168.313 283.346,168.313 268.705,139.031 232.416,139.031" fill="#009933" stroke="#000000"></polygon><polygon points="270.684,142.988 271.608,144.837 306.823,168.313 315.154,168.313 315.154,155.897 295.791,142.988" fill="#009933" stroke="#000000"></polygon><polygon points="199.031,50.271 199.031,50.958 239.212,50.958 239.174,50.939 237.169,50.271" fill="#009933" stroke="#000000"></polygon><polygon points="113.833,166.569 140.969,166.569 140.969,165.765 111.420,165.765" fill="#009933" stroke="#000000"></polygon><polygon points="91.855,86.090 106.608,86.090 101.487,80.969 89.294,80.969" fill="#009933" stroke="#000000"></polygon><polygon points="24.846,80.969 24.846,86.090 91.855,86.090 89.294,80.969" fill="#009933" stroke="#000000"></polygon><polygon points="131.970,96.065 124.422,80.969 116.874,80.969" fill="#009933" stroke="#000000"></polygon><polygon points="138.356,108.839 140.969,110.145 140.969,80.969 124.422,80.969" fill="#009933" stroke="#000000"></polygon><polygon points="140.969,120.451 140.969,110.145 120.357,99.839" fill="#009933" stroke="#000000"></polygon><polygon points="275.963,139.031 315.154,139.031 315.154,133.225 264.350,133.225" fill="#009933" stroke="#000000"></polygon><polygon points="199.031,104.194 207.740,121.612 230.965,133.225 199.031,101.291" fill="#009933" stroke="#000000"></polygon><polygon points="216.449,139.031 222.255,139.031 210.643,127.418" fill="#009933" stroke="#000000"></polygon><polygon points="199.031,139.031 216.449,139.031 199.031,104.194" fill="#009933" stroke="#000000"></polygon><polygon points="210.643,127.418 222.255,139.031 236.771,139.031 230.965,133.225 207.740,121.612" fill="#009933" stroke="#000000"></polygon><polygon points="246.564,80.969 315.154,103.833 315.154,103.745 306.973,95.564 263.189,80.969" fill="#009933" stroke="#000000"></polygon><polygon points="155.485,60.648 152.109,53.896 148.733,53.896" fill="#009933" stroke="#000000"></polygon><polygon points="160.443,70.564 199.031,70.564 199.031,53.896 152.109,53.896" fill="#009933" stroke="#000000"></polygon><polygon points="140.969,70.564 160.443,70.564 155.485,60.648 148.733,53.896 140.969,53.896" fill="#009933" stroke="#000000"></polygon><polygon points="98.584,62.970 94.047,53.896 89.510,53.896" fill="#009933" stroke="#000000"></polygon><polygon points="104.681,75.163 140.969,75.163 140.969,53.896 94.047,53.896" fill="#009933" stroke="#000000"></polygon><polygon points="24.846,80.969 140.969,80.969 140.969,75.163 24.846,75.163" fill="#009933" stroke="#000000"></polygon><polygon points="24.846,44.681 25.859,45.187 24.846,43.162" fill="#009933" stroke="#000000"></polygon><polygon points="24.846,43.162 26.214,45.898 88.479,45.898 65.489,22.908 24.846,22.908" fill="#009933" stroke="#000000"></polygon><polygon points="24.846,45.898 26.214,45.898 25.859,45.187 24.846,44.681" fill="#009933" stroke="#000000"></polygon><polygon points="315.154,155.897 315.154,141.358 293.345,141.358" fill="#009933" stroke="#000000"></polygon><polygon points="293.345,141.358 315.154,141.358 315.154,139.031 289.854,139.031" fill="#009933" stroke="#000000"></polygon><polygon points="306.973,95.564 294.384,82.974 290.373,80.969 263.189,80.969" fill="#009933" stroke="#000000"></polygon><polygon points="199.031,50.271 237.169,50.271 199.031,37.558" fill="#009933" stroke="#000000"></polygon><polygon points="113.833,166.569 140.969,175.615 140.969,166.569" fill="#009933" stroke="#000000"></polygon><polygon points="140.969,40.326 149.678,49.035 140.969,31.617" fill="#009933" stroke="#000000"></polygon><polygon points="140.969,31.617 152.109,53.896 199.031,53.896 199.031,40.464 162.535,28.299 140.969,22.908" fill="#009933" stroke="#000000"></polygon><polygon points="140.969,53.896 152.109,53.896 149.678,49.035 140.969,40.326" fill="#009933" stroke="#000000"></polygon><polygon points="189.920,170.162 199.031,170.162 199.031,139.031 174.355,139.031" fill="#009933" stroke="#000000"></polygon><polygon points="199.031,188.383 199.031,179.674 190.322,170.965" fill="#009933" stroke="#000000"></polygon><polygon points="140.969,184.321 179.285,197.092 199.031,197.092 199.031,188.383 174.355,139.031 140.969,139.031" fill="#009933" stroke="#000000"></polygon><polygon points="190.322,170.965 199.031,179.674 199.031,170.162 189.920,170.162" fill="#009933" stroke="#000000"></polygon><polygon points="91.617,49.035 78.553,22.908 65.489,22.908" fill="#009933" stroke="#000000"></polygon><polygon points="94.047,53.896 140.969,53.896 140.969,22.908 78.553,22.908" fill="#009933" stroke="#000000"></polygon><polygon points="261.447,197.092 274.511,197.092 248.383,170.965" fill="#009933" stroke="#000000"></polygon><polygon points="199.031,197.092 261.447,197.092 232.416,139.031 199.031,139.031" fill="#009933" stroke="#000000"></polygon><polygon points="248.383,170.965 274.511,197.092 315.154,197.092 315.154,168.313 247.058,168.313" fill="#009933" stroke="#000000"></polygon><polygon points="199.031,33.968 217.636,40.170 215.139,38.922 199.031,33.552" fill="#FFFFFF" stroke="#000000"></polygon><polygon points="199.031,37.558 239.174,50.939 217.636,40.170 199.031,33.968" fill="#FFFFFF" stroke="#000000"></polygon><polygon points="218.468,40.586 237.104,46.798 233.775,45.134 215.139,38.922" fill="#FFFFFF" stroke="#000000"></polygon><polygon points="285.218,70.855 284.219,69.856 236.771,46.132 233.775,45.134" fill="#FFFFFF" stroke="#000000"></polygon><polygon points="291.430,77.067 285.218,70.855 237.104,46.798 218.468,40.586" fill="#FFFFFF" stroke="#000000"></polygon><polygon points="284.268,69.905 289.043,72.293 288.994,72.244 284.219,69.856" fill="#FFFFFF" stroke="#000000"></polygon><polygon points="297.719,80.969 297.736,80.969 289.026,72.260 288.994,72.244" fill="#FFFFFF" stroke="#000000"></polygon><polygon points="295.332,80.969 297.719,80.969 289.043,72.293 284.268,69.905" fill="#FFFFFF" stroke="#000000"></polygon><polygon points="114.885,177.753 140.969,186.448 140.969,184.289 101.934,171.278" fill="#FFFFFF" stroke="#000000"></polygon><polygon points="53.564,149.035 103.229,173.868 114.885,177.753 49.679,145.150" fill="#FFFFFF" stroke="#000000"></polygon><polygon points="50.974,147.740 53.564,149.035 43.559,139.031 42.264,139.031" fill="#FFFFFF" stroke="#000000"></polygon><polygon points="49.679,145.150 101.934,171.278 140.969,184.289 140.969,182.988 53.055,139.031 43.559,139.031" fill="#009933" stroke="#000000"></polygon><polygon points="199.031,34.093 199.031,33.552 167.097,22.908 165.474,22.908" fill="#FFFFFF" stroke="#000000"></polygon><polygon points="199.031,40.464 199.031,34.093 165.474,22.908 146.361,22.908" fill="#FFFFFF" stroke="#000000"></polygon><polygon points="140.969,186.448 172.903,197.092 173.348,197.092 140.969,186.299" fill="#FFFFFF" stroke="#000000"></polygon><polygon points="140.969,186.299 173.348,197.092 179.285,197.092 140.969,184.321" fill="#FFFFFF" stroke="#000000"></polygon><polygon points="24.846,121.612 42.264,139.031 43.264,139.031 24.846,120.613" fill="#FFFFFF" stroke="#000000"></polygon><polygon points="24.846,120.613 43.264,139.031 55.171,139.031 24.846,108.706" fill="#009933" stroke="#000000"></polygon><polygon points="294.384,82.974 292.378,80.969 290.373,80.969" fill="#009933" stroke="#000000"></polygon><polygon points="315.154,103.745 315.154,98.388 297.736,80.969 292.378,80.969" fill="#FFFFFF" stroke="#000000"></polygon><polygon points="140.969,182.988 140.969,175.615 96.729,160.868" fill="#009933" stroke="#000000"></polygon><polygon points="162.535,28.299 146.361,22.908 140.969,22.908" fill="#009933" stroke="#000000"></polygon><polygon points="55.171,139.031 72.274,139.031 38.067,121.927" fill="#009933" stroke="#000000"></polygon><polygon points="265.221,103.033 221.094,80.969 199.031,80.969" fill="#009933" stroke="#000000"></polygon><polygon points="199.031,33.552 236.771,46.132 199.031,27.262" fill="#CCCCCC" stroke="#000000"></polygon><polygon points="140.969,192.738 140.969,186.448 103.229,173.868" fill="#CCCCCC" stroke="#000000"></polygon><polygon points="199.031,33.552 199.031,27.262 190.322,22.908 167.097,22.908" fill="#CCCCCC" stroke="#000000"></polygon><polygon points="140.969,192.738 149.678,197.092 172.903,197.092 140.969,186.448" fill="#CCCCCC" stroke="#000000"></polygon><polygon points="199.031,27.262 289.026,72.260 239.674,22.908 199.031,22.908" fill="#CCCCCC" stroke="#000000"></polygon><polygon points="100.326,197.092 140.969,197.092 140.969,192.738 50.974,147.740" fill="#CCCCCC" stroke="#000000"></polygon><polygon points="199.031,27.262 199.031,22.908 190.322,22.908" fill="#CCCCCC" stroke="#000000"></polygon><polygon points="140.969,197.092 149.678,197.092 140.969,192.738" fill="#CCCCCC" stroke="#000000"></polygon><polygon points="24.846,139.031 42.264,139.031 24.846,121.612" fill="#CCCCCC" stroke="#000000"></polygon><polygon points="315.154,98.388 315.154,80.969 297.736,80.969" fill="#CCCCCC" stroke="#000000"></polygon><polygon points="297.736,80.969 315.154,80.969 315.154,22.908 239.674,22.908" fill="#CCCCCC" stroke="#000000"></polygon><polygon points="24.846,197.092 100.326,197.092 42.264,139.031 24.846,139.031" fill="#CCCCCC" stroke="#000000"></polygon><polygon points="140.969,139.031 199.031,139.031 199.031,80.969 140.969,80.969" fill="#009933" stroke="#000000"></polygon><polygon points="315.154,22.908 315.154,-9.026 123.551,-9.026 91.617,22.908" fill="#CCCCCC" stroke="#000000"></polygon><polygon points="315.154,130.322 390.634,54.841 419.665,-3.220 419.665,-9.026 315.154,-9.026" fill="#CCCCCC" stroke="#000000"></polygon><polygon points="24.846,229.026 216.449,229.026 248.383,197.092 24.846,197.092" fill="#CCCCCC" stroke="#000000"></polygon><polygon points="-79.665,229.026 24.846,229.026 24.846,89.678 -50.634,165.159 -79.665,223.220" fill="#CCCCCC" stroke="#000000"></polygon></g><g stroke="#000" stroke-width="1" fill="#000"></g><rect x="0.5" y="0.5" width="339" height="219" stroke="#000000" stroke-width="1" fill="none"></rect></svg><g stroke="#000" stroke-width="1"><line x1="58.877" y1="221.000" x2="58.877" y2="224.500"></line><line x1="116.938" y1="221.000" x2="116.938" y2="224.500"></line><line x1="175.000" y1="221.000" x2="175.000" y2="224.500"></line><line x1="233.062" y1="221.000" x2="233.062" y2="224.500"></line><line x1="291.123" y1="221.000" x2="291.123" y2="224.500"></line><line x1="341.000" y1="202.092" x2="344.500" y2="202.092"></line><line x1="341.000" y1="173.062" x2="344.500" y2="173.062"></line><line x1="341.000" y1="144.031" x2="344.500" y2="144.031"></line><line x1="341.000" y1="115.000" x2="344.500" y2="115.000"></line><line x1="341.000" y1="85.969" x2="344.500" y2="85.969"></line><line x1="341.000" y1="56.938" x2="344.500" y2="56.938"></line><line x1="341.000" y1="27.908" x2="344.500" y2="27.908"></line></g></svg>