<svg xmlns="http://www.w3.org/2000/svg" width="385" height="245"><g font-family="DejaVu Sans, sans-serif" font-size="8pt"><text x="44.942" y="240.000" text-anchor="middle">-4</text><text x="109.971" y="240.000" text-anchor="middle">-2</text><text x="175.000" y="240.000" text-anchor="middle">0</text><text x="240.029" y="240.000" text-anchor="middle">2</text><text x="305.058" y="240.000" text-anchor="middle">4</text><text x="352.000" y="206.789" text-anchor="start">-2.7</text><text x="352.000" y="177.526" text-anchor="start">-1.8</text><text x="352.000" y="148.263" text-anchor="start">-0.9</text><text x="352.000" y="119.000" text-anchor="start">0</text><text x="352.000" y="89.737" text-anchor="start">0.9</text><text x="352.000" y="60.474" text-anchor="start">1.8</text><text x="352.000" y="31.211" text-anchor="start">2.7</text></g><svg xmlns="http://www.w3.org/2000/svg" width="340" height="220" x="5" y="5"><rect x="0" y="0" width="340" height="220" stroke="none" fill="#FFFFFF"></rect><g font-family="DejaVu Sans, sans-serif" font-size="8pt" text-anchor="middle"><polygon points="202.515,26.817 249.661,42.532 235.029,35.217 202.515,24.378" fill="#FFFFFF" stroke="#000000"></polygon><polygon points="304.935,70.170 301.684,66.918 244.783,38.468 235.029,35.217" fill="#FFFFFF" stroke="#000000"></polygon><polygon points="312.251,77.485 313.064,77.485 303.310,67.731 301.684,66.918" fill="#FFFFFF" stroke="#000000"></polygon><polygon points="202.515,35.939 263.642,49.523 249.661,42.532 202.515,26.817" fill="#009933" stroke="#000000"></polygon><polygon points="202.515,47.500 227.713,53.100 202.515,45.900" fill="#009933" stroke="#000000"></polygon><polygon points="202.515,45.900 311.926,77.160 304.935,70.170 263.642,49.523 202.515,35.939" fill="#009933" stroke="#000000"></polygon><polygon points="202.515,60.764 261.041,77.485 312.251,77.485 311.926,77.160 227.713,53.100 202.515,47.500" fill="#009933" stroke="#000000"></polygon><polygon points="202.515,73.584 212.269,77.485 261.041,77.485 202.515,60.764" fill="#009933" stroke="#000000"></polygon><polygon points="202.515,73.584 202.515,77.485 212.269,77.485" fill="#009933" stroke="#000000"></polygon><polygon points="104.971,184.783 137.485,195.622 137.485,193.183 90.339,177.468" fill="#FFFFFF" stroke="#000000"></polygon><polygon points="38.316,153.082 95.217,181.532 104.971,184.783 35.065,149.830" fill="#FFFFFF" stroke="#000000"></polygon><polygon points="36.690,152.269 38.316,153.082 27.749,142.515 26.936,142.515" fill="#FFFFFF" stroke="#000000"></polygon><polygon points="90.339,177.468 137.485,193.183 137.485,184.061 76.358,170.477" fill="#009933" stroke="#000000"></polygon><polygon points="137.485,174.100 137.485,172.500 112.287,166.900" fill="#009933" stroke="#000000"></polygon><polygon points="35.065,149.830 76.358,170.477 137.485,184.061 137.485,174.100 28.074,142.840" fill="#009933" stroke="#000000"></polygon><polygon points="28.074,142.840 112.287,166.900 137.485,172.500 137.485,159.236 78.959,142.515 27.749,142.515" fill="#009933" stroke="#000000"></polygon><polygon points="137.485,159.236 137.485,146.416 127.731,142.515 78.959,142.515" fill="#009933" stroke="#000000"></polygon><polygon points="127.731,142.515 137.485,146.416 137.485,142.515" fill="#009933" stroke="#000000"></polygon><polygon points="166.749,14.895 159.433,12.456 156.994,12.456" fill="#009933" stroke="#000000"></polygon><polygon points="202.515,26.817 202.515,24.378 166.749,12.456 159.433,12.456" fill="#FFFFFF" stroke="#000000"></polygon><polygon points="137.485,12.752 187.720,21.886 166.749,14.895 156.994,12.456 137.485,12.456" fill="#009933" stroke="#000000"></polygon><polygon points="137.485,22.211 155.368,25.462 137.485,21.488" fill="#009933" stroke="#000000"></polygon><polygon points="137.485,21.488 202.515,35.939 202.515,26.817 187.720,21.886 137.485,12.752" fill="#009933" stroke="#000000"></polygon><polygon points="137.485,33.049 202.515,47.500 202.515,35.939 155.368,25.462 137.485,22.211" fill="#009933" stroke="#000000"></polygon><polygon points="137.485,42.184 202.515,60.764 202.515,47.500 137.485,33.049" fill="#009933" stroke="#000000"></polygon><polygon points="137.485,48.493 141.550,49.848 154.556,49.848 150.654,45.946 137.485,42.184" fill="#009933" stroke="#000000"></polygon><polygon points="162.142,57.435 202.515,73.584 202.515,60.764 150.654,45.946" fill="#009933" stroke="#000000"></polygon><polygon points="137.485,49.848 141.550,49.848 137.485,48.493" fill="#009933" stroke="#000000"></polygon><polygon points="174.877,70.170 189.509,77.485 202.515,77.485 202.515,73.584 162.142,57.435" fill="#009933" stroke="#000000"></polygon><polygon points="182.193,77.485 189.509,77.485 174.877,70.170" fill="#009933" stroke="#000000"></polygon><polygon points="137.485,77.485 182.193,77.485 154.556,49.848 137.485,49.848" fill="#009933" stroke="#000000"></polygon><polygon points="180.567,207.544 183.006,207.544 173.251,205.105" fill="#009933" stroke="#000000"></polygon><polygon points="137.485,195.622 173.251,207.544 180.567,207.544 137.485,193.183" fill="#FFFFFF" stroke="#000000"></polygon><polygon points="173.251,205.105 183.006,207.544 202.515,207.544 202.515,207.248 152.280,198.114" fill="#009933" stroke="#000000"></polygon><polygon points="202.515,198.512 202.515,197.789 184.632,194.538" fill="#009933" stroke="#000000"></polygon><polygon points="137.485,193.183 152.280,198.114 202.515,207.248 202.515,198.512 137.485,184.061" fill="#009933" stroke="#000000"></polygon><polygon points="137.485,184.061 184.632,194.538 202.515,197.789 202.515,186.951 137.485,172.500" fill="#009933" stroke="#000000"></polygon><polygon points="137.485,172.500 202.515,186.951 202.515,177.816 137.485,159.236" fill="#009933" stroke="#000000"></polygon><polygon points="202.515,172.428 202.515,171.507 198.450,170.152 196.824,170.152" fill="#009933" stroke="#000000"></polygon><polygon points="189.346,174.054 202.515,177.816 202.515,172.428 196.824,170.152 185.444,170.152" fill="#009933" stroke="#000000"></polygon><polygon points="137.485,159.236 189.346,174.054 177.858,162.565 137.485,146.416" fill="#009933" stroke="#000000"></polygon><polygon points="202.515,171.507 202.515,170.152 198.450,170.152" fill="#009933" stroke="#000000"></polygon><polygon points="137.485,146.416 177.858,162.565 165.123,149.830 150.491,142.515 137.485,142.515" fill="#009933" stroke="#000000"></polygon><polygon points="165.123,149.830 157.807,142.515 150.491,142.515" fill="#009933" stroke="#000000"></polygon><polygon points="185.444,170.152 202.515,170.152 202.515,142.515 157.807,142.515" fill="#009933" stroke="#000000"></polygon><polygon points="7.427,123.006 26.936,142.515 27.749,142.515 7.427,122.193" fill="#FFFFFF" stroke="#000000"></polygon><polygon points="75.708,142.515 78.959,142.515 67.579,139.263" fill="#009933" stroke="#000000"></polygon><polygon points="7.427,122.193 27.749,142.515 75.708,142.515 7.427,115.202" fill="#009933" stroke="#000000"></polygon><polygon points="90.339,142.515 127.731,142.515 80.991,123.819" fill="#009933" stroke="#000000"></polygon><polygon points="87.088,136.012 80.991,123.819 50.509,111.626" fill="#009933" stroke="#000000"></polygon><polygon points="7.427,115.202 67.579,139.263 78.959,142.515 90.339,142.515 87.088,136.012 7.427,82.905" fill="#009933" stroke="#000000"></polygon><polygon points="80.991,123.819 127.731,142.515 137.485,142.515 137.485,134.928 61.076,83.988" fill="#009933" stroke="#000000"></polygon><polygon points="7.427,82.905 50.509,111.626 80.991,123.819 57.825,77.485 7.427,77.485" fill="#009933" stroke="#000000"></polygon><polygon points="137.485,132.760 137.485,122.193 126.918,111.626" fill="#009933" stroke="#000000"></polygon><polygon points="117.835,93.459 109.848,77.485 69.915,77.485" fill="#009933" stroke="#000000"></polygon><polygon points="61.076,83.988 137.485,134.928 137.485,132.760 117.835,93.459 69.915,77.485 57.825,77.485" fill="#009933" stroke="#000000"></polygon><polygon points="126.918,111.626 137.485,122.193 137.485,106.431 111.156,80.102" fill="#009933" stroke="#000000"></polygon><polygon points="111.156,80.102 137.485,106.431 137.485,77.485 109.848,77.485" fill="#009933" stroke="#000000"></polygon><polygon points="332.573,97.807 332.573,96.994 313.064,77.485 312.251,77.485" fill="#FFFFFF" stroke="#000000"></polygon><polygon points="272.421,80.737 264.292,77.485 261.041,77.485" fill="#009933" stroke="#000000"></polygon><polygon points="332.573,104.798 332.573,97.807 312.251,77.485 264.292,77.485" fill="#009933" stroke="#000000"></polygon><polygon points="259.009,96.181 249.661,77.485 212.269,77.485" fill="#009933" stroke="#000000"></polygon><polygon points="259.009,96.181 289.491,108.374 252.912,83.988" fill="#009933" stroke="#000000"></polygon><polygon points="252.912,83.988 332.573,137.095 332.573,104.798 272.421,80.737 261.041,77.485 249.661,77.485" fill="#009933" stroke="#000000"></polygon><polygon points="202.515,85.072 278.924,136.012 259.009,96.181 212.269,77.485 202.515,77.485" fill="#009933" stroke="#000000"></polygon><polygon points="282.175,142.515 332.573,142.515 332.573,137.095 289.491,108.374 259.009,96.181" fill="#009933" stroke="#000000"></polygon><polygon points="202.515,97.807 213.082,108.374 202.515,87.240" fill="#009933" stroke="#000000"></polygon><polygon points="245.596,142.515 282.175,142.515 278.924,136.012 276.485,134.386 229.339,134.386" fill="#009933" stroke="#000000"></polygon><polygon points="230.152,142.515 245.596,142.515 225.004,132.218" fill="#009933" stroke="#000000"></polygon><polygon points="202.515,87.240 225.004,132.218 229.339,134.386 276.485,134.386 202.515,85.072" fill="#009933" stroke="#000000"></polygon><polygon points="230.152,142.515 225.004,132.218 214.707,127.070" fill="#009933" stroke="#000000"></polygon><polygon points="202.515,142.515 230.152,142.515 214.707,127.070 202.515,120.974" fill="#009933" stroke="#000000"></polygon><polygon points="202.515,120.974 225.004,132.218 213.082,108.374 202.515,97.807" fill="#009933" stroke="#000000"></polygon><polygon points="137.485,12.752 137.485,12.456 135.860,12.456" fill="#009933" stroke="#000000"></polygon><polygon points="137.485,22.211 137.485,12.752 135.860,12.456 83.837,12.456" fill="#009933" stroke="#000000"></polygon><polygon points="137.485,33.049 137.485,22.211 83.837,12.456 44.819,12.456" fill="#009933" stroke="#000000"></polygon><polygon points="36.690,14.895 65.954,22.211 78.959,22.211 71.156,18.309 44.819,12.456 29.375,12.456" fill="#009933" stroke="#000000"></polygon><polygon points="94.133,29.798 137.485,42.184 137.485,33.049 71.156,18.309" fill="#009933" stroke="#000000"></polygon><polygon points="58.638,22.211 65.954,22.211 36.690,14.895" fill="#009933" stroke="#000000"></polygon><polygon points="119.602,42.532 137.485,48.493 137.485,42.184 94.133,29.798" fill="#009933" stroke="#000000"></polygon><polygon points="30.188,22.211 58.638,22.211 29.375,12.456 25.310,12.456" fill="#009933" stroke="#000000"></polygon><polygon points="134.234,49.848 137.485,49.848 137.485,48.493 119.602,42.532" fill="#009933" stroke="#000000"></polygon><polygon points="7.427,51.474 17.182,51.474 7.427,31.965" fill="#009933" stroke="#000000"></polygon><polygon points="39.942,77.485 41.568,77.485 35.878,75.860" fill="#009933" stroke="#000000"></polygon><polygon points="7.427,77.485 39.942,77.485 7.427,64.480" fill="#009933" stroke="#000000"></polygon><polygon points="7.427,31.965 17.182,51.474 44.819,51.474 25.310,12.456 7.427,12.456" fill="#009933" stroke="#000000"></polygon><polygon points="7.427,64.480 35.878,75.860 41.568,77.485 57.825,77.485 44.819,51.474 7.427,51.474" fill="#009933" stroke="#000000"></polygon><polygon points="96.029,49.848 134.234,49.848 83.295,24.378" fill="#009933" stroke="#000000"></polygon><polygon points="43.778,49.391 72.584,49.391 31.813,22.211 30.188,22.211" fill="#009933" stroke="#000000"></polygon><polygon points="57.825,77.485 89.631,77.485 49.873,61.582" fill="#009933" stroke="#000000"></polygon><polygon points="49.873,61.582 89.631,77.485 109.848,77.485 107.410,72.608 72.584,49.391 43.778,49.391" fill="#009933" stroke="#000000"></polygon><polygon points="107.410,72.608 83.295,24.378 78.959,22.211 31.813,22.211" fill="#009933" stroke="#000000"></polygon><polygon points="137.485,63.709 137.485,49.848 109.765,49.848" fill="#009933" stroke="#000000"></polygon><polygon points="109.848,77.485 120.242,77.485 99.454,56.697" fill="#009933" stroke="#000000"></polygon><polygon points="99.454,56.697 120.242,77.485 137.485,77.485 137.485,63.709 109.765,49.848 96.029,49.848" fill="#009933" stroke="#000000"></polygon><polygon points="202.515,207.544 204.140,207.544 202.515,207.248" fill="#009933" stroke="#000000"></polygon><polygon points="202.515,207.248 204.140,207.544 256.163,207.544 202.515,197.789" fill="#009933" stroke="#000000"></polygon><polygon points="202.515,197.789 256.163,207.544 295.181,207.544 202.515,186.951" fill="#009933" stroke="#000000"></polygon><polygon points="268.844,201.691 295.181,207.544 310.625,207.544 303.310,205.105 274.046,197.789 261.041,197.789" fill="#009933" stroke="#000000"></polygon><polygon points="202.515,186.951 268.844,201.691 245.867,190.202 202.515,177.816" fill="#009933" stroke="#000000"></polygon><polygon points="303.310,205.105 281.362,197.789 274.046,197.789" fill="#009933" stroke="#000000"></polygon><polygon points="202.515,177.816 245.867,190.202 220.398,177.468 202.515,171.507" fill="#009933" stroke="#000000"></polygon><polygon points="332.573,188.035 332.573,149.668 313.389,149.668" fill="#009933" stroke="#000000"></polygon><polygon points="309.812,197.789 332.573,197.789 305.260,188.685" fill="#009933" stroke="#000000"></polygon><polygon points="313.389,149.668 332.573,149.668 332.573,142.515 309.812,142.515" fill="#009933" stroke="#000000"></polygon><polygon points="305.260,188.685 332.573,197.789 332.573,188.035 309.812,142.515 282.175,142.515" fill="#009933" stroke="#000000"></polygon><polygon points="310.625,207.544 332.573,207.544 332.573,197.789 281.362,197.789" fill="#009933" stroke="#000000"></polygon><polygon points="202.515,171.507 220.398,177.468 205.766,170.152 202.515,170.152" fill="#009933" stroke="#000000"></polygon><polygon points="292.332,166.524 294.180,166.524 282.175,142.515 256.318,142.515" fill="#009933" stroke="#000000"></polygon><polygon points="252.664,170.152 295.994,170.152 294.180,166.524 245.408,166.524" fill="#009933" stroke="#000000"></polygon><polygon points="243.971,170.152 252.664,170.152 241.073,164.356" fill="#009933" stroke="#000000"></polygon><polygon points="241.073,164.356 245.408,166.524 292.332,166.524 256.318,142.515 230.152,142.515" fill="#009933" stroke="#000000"></polygon><polygon points="308.187,197.789 309.812,197.789 295.994,170.152 266.731,170.152" fill="#009933" stroke="#000000"></polygon><polygon points="261.041,197.789 308.187,197.789 266.731,170.152 205.766,170.152" fill="#009933" stroke="#000000"></polygon><polygon points="243.158,170.152 243.971,170.152 230.152,142.515 215.520,142.515" fill="#009933" stroke="#000000"></polygon><polygon points="202.515,170.152 243.158,170.152 215.520,142.515 202.515,142.515" fill="#009933" stroke="#000000"></polygon><polygon points="202.515,24.378 244.783,38.468 202.515,17.334" fill="#CCCCCC" stroke="#000000"></polygon><polygon points="137.485,202.666 137.485,195.622 95.217,181.532" fill="#CCCCCC" stroke="#000000"></polygon><polygon points="202.515,24.378 202.515,17.334 192.760,12.456 166.749,12.456" fill="#CCCCCC" stroke="#000000"></polygon><polygon points="137.485,202.666 147.240,207.544 173.251,207.544 137.485,195.622" fill="#CCCCCC" stroke="#000000"></polygon><polygon points="202.515,17.334 303.310,67.731 248.035,12.456 202.515,12.456" fill="#CCCCCC" stroke="#000000"></polygon><polygon points="91.965,207.544 137.485,207.544 137.485,202.666 36.690,152.269" fill="#CCCCCC" stroke="#000000"></polygon><polygon points="202.515,17.334 202.515,12.456 192.760,12.456" fill="#CCCCCC" stroke="#000000"></polygon><polygon points="137.485,207.544 147.240,207.544 137.485,202.666" fill="#CCCCCC" stroke="#000000"></polygon><polygon points="7.427,142.515 26.936,142.515 7.427,123.006" fill="#CCCCCC" stroke="#000000"></polygon><polygon points="332.573,96.994 332.573,77.485 313.064,77.485" fill="#CCCCCC" stroke="#000000"></polygon><polygon points="313.064,77.485 332.573,77.485 332.573,12.456 248.035,12.456" fill="#CCCCCC" stroke="#000000"></polygon><polygon points="7.427,207.544 91.965,207.544 26.936,142.515 7.427,142.515" fill="#CCCCCC" stroke="#000000"></polygon><polygon points="137.485,142.515 202.515,142.515 202.515,77.485 137.485,77.485" fill="#009933" stroke="#000000"></polygon><polygon points="332.573,12.456 332.573,-23.310 117.977,-23.310 82.211,12.456" fill="#CCCCCC" stroke="#000000"></polygon><polygon points="332.573,132.760 417.110,48.222 449.625,-16.807 449.625,-23.310 332.573,-23.310" fill="#CCCCCC" stroke="#000000"></polygon><polygon points="7.427,243.310 222.023,243.310 257.789,207.544 7.427,207.544" fill="#CCCCCC" stroke="#000000"></polygon><polygon points="-109.625,243.310 7.427,243.310 7.427,87.240 -77.110,171.778 -109.625,236.807" fill="#CCCCCC" stroke="#000000"></polygon></g><rect x="0.5" y="0.5" width="339" height="219" stroke="#000000" stroke-width="1" fill="none"></rect></svg><g stroke="#000" stroke-width="1"><line x1="44.942" y1="221.000" x2="44.942" y2="224.500"></line><line x1="109.971" y1="221.000" x2="109.971" y2="224.500"></line><line x1="175.000" y1="221.000" x2="175.000" y2="224.500"></line><line x1="240.029" y1="221.000" x2="240.029" y2="224.500"></line><line x1="305.058" y1="221.000" x2="305.058" y2="224.500"></line><line x1="341.000" y1="202.789" x2="344.500" y2="202.789"></line><line x1="341.000" y1="173.526" x2="344.500" y2="173.526"></line><line x1="341.000" y1="144.263" x2="344.500" y2="144.263"></line><line x1="341.000" y1="115.000" x2="344.500" y2="115.000"></line><line x1="341.000" y1="85.737" x2="344.500" y2="85.737"></line><line x1="341.000" y1="56.474" x2="344.500" y2="56.474"></line><line x1="341.000" y1="27.211" x2="344.500" y2="27.211"></line></g></svg>