<svg xmlns="http://www.w3.org/2000/svg" width="385" height="245"><g font-family="DejaVu Sans, sans-serif" font-size="8pt"><text x="58.877" y="240.000" text-anchor="middle">-4</text><text x="116.938" y="240.000" text-anchor="middle">-2</text><text x="175.000" y="240.000" text-anchor="middle">0</text><text x="233.062" y="240.000" text-anchor="middle">2</text><text x="291.123" y="240.000" text-anchor="middle">4</text><text x="352.000" y="206.092" text-anchor="start">-3</text><text x="352.000" y="177.062" text-anchor="start">-2</text><text x="352.000" y="148.031" text-anchor="start">-1</text><text x="352.000" y="119.000" text-anchor="start">0</text><text x="352.000" y="89.969" text-anchor="start">1</text><text x="352.000" y="60.938" text-anchor="start">2</text><text x="352.000" y="31.908" text-anchor="start">3</text></g><svg xmlns="http://www.w3.org/2000/svg" width="340" height="220" x="5" y="5"><rect x="0" y="0" width="340" height="220" stroke="none" fill="#FFFFFF"></rect><g font-family="DejaVu Sans, sans-serif" font-size="8pt" text-anchor="middle"><polygon points="140.969,53.633 144.715,54.882 152.766,54.882 140.969,43.085" fill="#FFFFFF" stroke="#000000"></polygon><polygon points="140.969,54.882 144.715,54.882 140.969,53.633" fill="#009933" stroke="#000000"></polygon><polygon points="140.969,55.421 153.305,55.421 152.766,54.882 140.969,54.882" fill="#009933" stroke="#000000"></polygon><polygon points="140.969,43.085 152.727,54.843 155.372,54.843 140.969,40.440" fill="#FFFFFF" stroke="#000000"></polygon><polygon points="152.740,54.856 155.385,54.856 155.372,54.843 152.727,54.843" fill="#009933" stroke="#000000"></polygon><polygon points="152.954,55.070 155.599,55.070 155.385,54.856 152.740,54.856" fill="#009933" stroke="#000000"></polygon><polygon points="140.969,40.440 155.455,54.926 155.527,54.926 140.969,40.369" fill="#FFFFFF" stroke="#000000"></polygon><polygon points="155.527,54.926 156.705,54.926 153.171,52.571" fill="#009933" stroke="#000000"></polygon><polygon points="140.969,40.369 153.171,52.571 174.864,67.033 174.964,67.066 152.885,22.908 140.969,22.908" fill="#FFFFFF" stroke="#000000"></polygon><polygon points="174.964,67.066 177.104,67.779 173.537,64.212" fill="#009933" stroke="#000000"></polygon><polygon points="173.537,64.212 179.343,70.019 180.595,70.853 199.031,70.853 199.031,33.552 167.097,22.908 152.885,22.908" fill="#FFFFFF" stroke="#000000"></polygon><polygon points="195.769,80.969 199.031,80.969 199.031,70.853 180.595,70.853" fill="#009933" stroke="#000000"></polygon><polygon points="190.294,80.969 195.769,80.969 179.343,70.019" fill="#009933" stroke="#000000"></polygon><polygon points="179.807,76.752 188.241,80.969 190.294,80.969 177.104,67.779 174.964,67.066" fill="#009933" stroke="#000000"></polygon><polygon points="174.989,67.116 174.964,67.066 174.864,67.033" fill="#009933" stroke="#000000"></polygon><polygon points="174.899,74.298 179.807,76.752 174.989,67.116 156.705,54.926 155.527,54.926" fill="#009933" stroke="#000000"></polygon><polygon points="181.570,80.969 188.241,80.969 174.899,74.298" fill="#009933" stroke="#000000"></polygon><polygon points="181.498,80.969 181.570,80.969 155.527,54.926 155.455,54.926" fill="#009933" stroke="#000000"></polygon><polygon points="199.031,178.939 199.031,165.515 197.598,165.157 185.249,165.157" fill="#FFFFFF" stroke="#000000"></polygon><polygon points="199.031,165.515 199.031,165.157 197.598,165.157" fill="#009933" stroke="#000000"></polygon><polygon points="185.249,165.157 199.031,165.157 199.031,165.143 185.235,165.143" fill="#009933" stroke="#000000"></polygon><polygon points="199.031,179.574 199.031,179.340 184.650,164.959 184.416,164.959" fill="#FFFFFF" stroke="#000000"></polygon><polygon points="140.969,186.448 172.903,197.092 199.031,197.092 199.031,179.574 174.848,155.391 140.969,146.921" fill="#FFFFFF" stroke="#000000"></polygon><polygon points="140.969,146.921 174.848,155.391 160.705,141.248 154.053,139.031 140.969,139.031" fill="#009933" stroke="#000000"></polygon><polygon points="160.705,141.248 158.487,139.031 154.053,139.031" fill="#009933" stroke="#000000"></polygon><polygon points="184.416,164.959 184.650,164.959 158.722,139.031 158.487,139.031" fill="#009933" stroke="#000000"></polygon><polygon points="75.125,97.609 113.608,110.437 119.415,110.437 119.305,110.218 113.499,104.411 66.869,81.097" fill="#009933" stroke="#000000"></polygon><polygon points="70.142,95.948 75.125,97.609 66.869,81.097 66.614,80.969 62.652,80.969" fill="#009933" stroke="#000000"></polygon><polygon points="67.850,95.184 70.142,95.948 62.652,80.969 53.635,80.969" fill="#009933" stroke="#000000"></polygon><polygon points="70.435,99.224 71.780,99.224 71.670,99.004 53.635,80.969 52.181,80.969" fill="#009933" stroke="#000000"></polygon><polygon points="24.846,87.486 60.060,99.224 65.973,99.224 29.464,80.969 24.846,80.969" fill="#009933" stroke="#000000"></polygon><polygon points="65.973,99.224 70.435,99.224 52.181,80.969 29.464,80.969" fill="#009933" stroke="#000000"></polygon><polygon points="24.846,93.890 74.486,110.437 81.539,110.437 81.429,110.218 75.623,104.411 24.846,87.486" fill="#009933" stroke="#000000"></polygon><polygon points="24.846,121.612 42.264,139.031 108.874,139.031 24.846,118.024" fill="#FFFFFF" stroke="#000000"></polygon><polygon points="24.846,118.024 108.874,139.031 140.969,139.031 140.969,132.598 24.846,93.890" fill="#009933" stroke="#000000"></polygon><polygon points="74.897,103.686 70.435,99.224 65.973,99.224" fill="#009933" stroke="#000000"></polygon><polygon points="75.623,104.411 74.897,103.686 65.973,99.224 60.060,99.224" fill="#009933" stroke="#000000"></polygon><polygon points="71.670,99.004 70.142,95.948 67.850,95.184" fill="#009933" stroke="#000000"></polygon><polygon points="66.869,81.097 66.805,80.969 66.614,80.969" fill="#009933" stroke="#000000"></polygon><polygon points="71.780,99.224 75.932,99.224 75.125,97.609 70.142,95.948" fill="#009933" stroke="#000000"></polygon><polygon points="81.429,110.218 75.932,99.224 70.435,99.224" fill="#009933" stroke="#000000"></polygon><polygon points="66.869,81.097 113.499,104.411 107.846,98.758 72.267,80.969 66.805,80.969" fill="#009933" stroke="#000000"></polygon><polygon points="119.305,110.218 115.485,102.578 107.846,98.758" fill="#009933" stroke="#000000"></polygon><polygon points="119.415,110.437 131.203,110.437 115.485,102.578" fill="#009933" stroke="#000000"></polygon><polygon points="81.539,110.437 113.608,110.437 75.125,97.609" fill="#009933" stroke="#000000"></polygon><polygon points="140.969,132.598 140.969,115.320 131.203,110.437 74.486,110.437" fill="#009933" stroke="#000000"></polygon><polygon points="199.031,89.460 206.262,93.075 200.209,80.969 199.031,80.969" fill="#009933" stroke="#000000"></polygon><polygon points="234.198,91.721 242.879,96.061 312.828,96.061 297.736,80.969 218.070,80.969" fill="#FFFFFF" stroke="#000000"></polygon><polygon points="240.708,96.061 242.879,96.061 234.198,91.721" fill="#009933" stroke="#000000"></polygon><polygon points="206.262,93.075 212.234,96.061 240.708,96.061 218.070,80.969 200.209,80.969" fill="#009933" stroke="#000000"></polygon><polygon points="245.138,96.183 246.920,96.896 313.662,96.896 312.828,96.061 244.895,96.061" fill="#FFFFFF" stroke="#000000"></polygon><polygon points="246.564,96.896 246.920,96.896 245.138,96.183" fill="#009933" stroke="#000000"></polygon><polygon points="208.172,96.896 246.564,96.896 244.895,96.061 207.755,96.061" fill="#009933" stroke="#000000"></polygon><polygon points="207.755,96.061 212.234,96.061 206.262,93.075" fill="#009933" stroke="#000000"></polygon><polygon points="199.031,92.758 207.306,96.896 208.172,96.896 206.262,93.075 199.031,89.460" fill="#009933" stroke="#000000"></polygon><polygon points="213.119,100.984 227.993,108.421 216.468,96.896 209.031,96.896" fill="#009933" stroke="#000000"></polygon><polygon points="227.993,108.421 228.861,108.854 216.902,96.896 216.468,96.896" fill="#009933" stroke="#000000"></polygon><polygon points="228.861,108.854 241.211,115.030 241.625,115.030 221.857,101.851" fill="#009933" stroke="#000000"></polygon><polygon points="221.857,101.851 241.625,115.030 243.401,115.030 234.334,96.896 216.902,96.896" fill="#009933" stroke="#000000"></polygon><polygon points="243.401,115.030 243.965,115.030 242.838,113.903" fill="#009933" stroke="#000000"></polygon><polygon points="246.020,97.946 253.732,101.031 251.665,96.896 243.920,96.896" fill="#009933" stroke="#000000"></polygon><polygon points="253.732,101.031 256.745,102.236 251.925,97.416" fill="#009933" stroke="#000000"></polygon><polygon points="251.925,97.416 257.731,103.222 269.133,107.783 263.690,96.896 251.665,96.896" fill="#009933" stroke="#000000"></polygon><polygon points="269.133,107.783 279.116,111.776 315.154,111.776 315.154,98.388 313.662,96.896 263.690,96.896" fill="#FFFFFF" stroke="#000000"></polygon><polygon points="273.312,116.141 279.118,121.947 283.675,124.985 315.154,124.985 315.154,111.776 271.130,111.776" fill="#009933" stroke="#000000"></polygon><polygon points="271.130,111.776 279.116,111.776 269.133,107.783" fill="#009933" stroke="#000000"></polygon><polygon points="282.156,124.985 283.675,124.985 279.118,121.947" fill="#009933" stroke="#000000"></polygon><polygon points="277.734,124.985 282.156,124.985 273.312,116.141" fill="#009933" stroke="#000000"></polygon><polygon points="275.974,121.465 269.133,107.783 257.731,103.222" fill="#009933" stroke="#000000"></polygon><polygon points="265.709,124.985 277.734,124.985 275.974,121.465 256.745,102.236 253.732,101.031" fill="#009933" stroke="#000000"></polygon><polygon points="254.246,102.059 253.732,101.031 246.020,97.946" fill="#009933" stroke="#000000"></polygon><polygon points="242.838,113.903 248.644,119.709 256.558,124.985 265.709,124.985 254.246,102.059 243.920,96.896 234.334,96.896" fill="#009933" stroke="#000000"></polygon><polygon points="253.920,124.985 256.558,124.985 248.644,119.709" fill="#009933" stroke="#000000"></polygon><polygon points="248.379,124.985 253.920,124.985 243.965,115.030 243.401,115.030" fill="#009933" stroke="#000000"></polygon><polygon points="244.289,116.806 243.401,115.030 241.625,115.030" fill="#009933" stroke="#000000"></polygon><polygon points="242.868,115.858 241.625,115.030 241.211,115.030" fill="#009933" stroke="#000000"></polygon><polygon points="244.991,124.985 248.379,124.985 244.289,116.806 242.868,115.858 228.861,108.854" fill="#009933" stroke="#000000"></polygon><polygon points="244.557,124.985 244.991,124.985 228.861,108.854 227.993,108.421" fill="#009933" stroke="#000000"></polygon><polygon points="237.120,124.985 244.557,124.985 227.993,108.421 213.119,100.984" fill="#009933" stroke="#000000"></polygon><polygon points="199.031,100.341 223.675,124.985 237.120,124.985 209.031,96.896 199.031,96.896" fill="#009933" stroke="#000000"></polygon><polygon points="288.228,125.137 299.840,130.943 315.154,137.068 315.154,124.985 288.000,124.985" fill="#009933" stroke="#000000"></polygon><polygon points="315.154,138.600 315.154,137.068 299.840,130.943" fill="#009933" stroke="#000000"></polygon><polygon points="309.069,139.031 315.154,139.031 315.154,138.600 288.228,125.137" fill="#009933" stroke="#000000"></polygon><polygon points="276.148,139.031 309.069,139.031 288.000,124.985 255.079,124.985" fill="#009933" stroke="#000000"></polygon><polygon points="244.758,139.031 265.286,139.031 235.870,129.225 234.953,129.225" fill="#009933" stroke="#000000"></polygon><polygon points="230.227,131.387 233.493,134.653 240.380,134.653 234.953,129.225 229.146,129.225" fill="#009933" stroke="#000000"></polygon><polygon points="235.341,139.031 244.758,139.031 240.380,134.653 226.585,134.653" fill="#009933" stroke="#000000"></polygon><polygon points="234.939,139.031 235.341,139.031 225.278,134.000 224.877,134.000" fill="#009933" stroke="#000000"></polygon><polygon points="225.632,139.031 234.939,139.031 216.325,129.724" fill="#009933" stroke="#000000"></polygon><polygon points="216.325,129.724 224.877,134.000 225.278,134.000 215.924,129.323" fill="#009933" stroke="#000000"></polygon><polygon points="229.146,129.225 234.953,129.225 230.712,124.985 227.026,124.985" fill="#009933" stroke="#000000"></polygon><polygon points="231.860,134.653 233.493,134.653 230.227,131.387" fill="#009933" stroke="#000000"></polygon><polygon points="215.924,129.323 226.585,134.653 231.860,134.653 227.026,124.985 211.586,124.985" fill="#009933" stroke="#000000"></polygon><polygon points="234.953,129.225 235.870,129.225 234.494,128.767" fill="#009933" stroke="#000000"></polygon><polygon points="234.494,128.767 265.286,139.031 276.148,139.031 255.079,124.985 230.712,124.985" fill="#009933" stroke="#000000"></polygon><polygon points="77.340,28.952 80.172,28.952 74.508,26.121" fill="#FFFFFF" stroke="#000000"></polygon><polygon points="79.122,30.734 83.735,30.734 80.172,28.952 77.340,28.952" fill="#009933" stroke="#000000"></polygon><polygon points="84.858,36.470 95.207,36.470 83.735,30.734 79.122,30.734" fill="#009933" stroke="#000000"></polygon><polygon points="74.508,26.121 80.542,29.137 85.731,29.137 73.271,22.908 71.295,22.908" fill="#FFFFFF" stroke="#000000"></polygon><polygon points="81.937,29.835 87.126,29.835 85.731,29.137 80.542,29.137" fill="#009933" stroke="#000000"></polygon><polygon points="86.137,29.341 86.209,29.341 73.343,22.908 73.271,22.908" fill="#FFFFFF" stroke="#000000"></polygon><polygon points="124.952,48.712 140.969,54.051 140.969,22.908 73.343,22.908" fill="#FFFFFF" stroke="#000000"></polygon><polygon points="138.295,55.383 140.969,55.383 140.969,54.051 124.952,48.712" fill="#009933" stroke="#000000"></polygon><polygon points="138.223,55.383 138.295,55.383 86.209,29.341 86.137,29.341" fill="#009933" stroke="#000000"></polygon><polygon points="140.969,56.757 140.969,55.383 138.223,55.383" fill="#009933" stroke="#000000"></polygon><polygon points="136.426,57.080 140.969,57.080 140.969,56.757 87.126,29.835 81.937,29.835" fill="#009933" stroke="#000000"></polygon><polygon points="24.846,36.737 77.452,54.272 46.087,22.908 24.846,22.908" fill="#009933" stroke="#000000"></polygon><polygon points="24.846,47.651 69.054,69.756 90.545,69.756 24.846,36.906" fill="#009933" stroke="#000000"></polygon><polygon points="24.846,36.906 90.545,69.756 92.935,69.756 77.452,54.272 24.846,36.737" fill="#009933" stroke="#000000"></polygon><polygon points="80.768,33.145 81.532,33.145 80.004,31.617" fill="#009933" stroke="#000000"></polygon><polygon points="80.436,33.145 80.768,33.145 80.004,31.617 79.340,30.952" fill="#009933" stroke="#000000"></polygon><polygon points="76.265,29.413 77.722,29.413 77.643,29.256 71.295,22.908 69.759,22.908" fill="#FFFFFF" stroke="#000000"></polygon><polygon points="77.722,29.413 77.801,29.413 77.643,29.256" fill="#009933" stroke="#000000"></polygon><polygon points="79.996,33.145 80.436,33.145 79.340,30.952 77.801,29.413 76.265,29.413" fill="#009933" stroke="#000000"></polygon><polygon points="62.812,27.572 69.337,29.747 76.599,29.747 69.759,22.908 58.147,22.908" fill="#FFFFFF" stroke="#000000"></polygon><polygon points="80.230,33.378 76.599,29.747 69.337,29.747" fill="#009933" stroke="#000000"></polygon><polygon points="69.606,34.367 70.916,34.803 81.265,34.803 80.875,34.023 80.230,33.378 62.812,27.572" fill="#009933" stroke="#000000"></polygon><polygon points="63.521,28.282 58.147,22.908 47.399,22.908" fill="#FFFFFF" stroke="#000000"></polygon><polygon points="51.517,28.337 69.606,34.367 63.521,28.282 47.399,22.908 46.087,22.908" fill="#009933" stroke="#000000"></polygon><polygon points="78.941,55.761 87.736,58.693 93.543,58.693 93.153,57.913 87.346,52.107 63.227,40.047" fill="#009933" stroke="#000000"></polygon><polygon points="63.227,40.047 87.346,52.107 69.606,34.367 51.517,28.337" fill="#009933" stroke="#000000"></polygon><polygon points="80.875,34.023 80.436,33.145 79.996,33.145" fill="#009933" stroke="#000000"></polygon><polygon points="81.265,34.803 81.598,34.803 80.768,33.145 80.436,33.145" fill="#009933" stroke="#000000"></polygon><polygon points="83.734,39.076 81.598,34.803 70.916,34.803" fill="#009933" stroke="#000000"></polygon><polygon points="93.153,57.913 83.734,39.076 69.606,34.367" fill="#009933" stroke="#000000"></polygon><polygon points="93.543,58.693 107.081,58.693 81.532,33.145 80.768,33.145" fill="#009933" stroke="#000000"></polygon><polygon points="116.753,68.365 107.081,58.693 87.736,58.693" fill="#009933" stroke="#000000"></polygon><polygon points="129.357,80.969 116.753,68.365 78.941,55.761" fill="#009933" stroke="#000000"></polygon><polygon points="24.846,54.719 39.705,62.149 82.110,76.284 24.846,47.651" fill="#009933" stroke="#000000"></polygon><polygon points="24.846,80.969 77.346,80.969 24.846,54.719" fill="#009933" stroke="#000000"></polygon><polygon points="77.346,80.969 91.481,80.969 82.110,76.284 39.705,62.149" fill="#009933" stroke="#000000"></polygon><polygon points="269.896,143.606 315.154,143.606 315.154,139.031 263.033,139.031" fill="#009933" stroke="#000000"></polygon><polygon points="238.078,143.606 269.896,143.606 263.033,139.031 233.503,139.031" fill="#009933" stroke="#000000"></polygon><polygon points="259.872,152.352 260.286,152.352 247.323,143.710 242.588,143.710" fill="#009933" stroke="#000000"></polygon><polygon points="260.286,152.352 262.062,152.352 257.741,143.710 247.323,143.710" fill="#009933" stroke="#000000"></polygon><polygon points="262.062,152.352 262.626,152.352 261.499,151.225" fill="#009933" stroke="#000000"></polygon><polygon points="305.726,147.568 315.154,147.568 315.154,143.710 296.080,143.710" fill="#009933" stroke="#000000"></polygon><polygon points="289.030,147.576 294.836,153.382 306.108,160.897 315.154,165.420 315.154,147.568 289.026,147.568" fill="#009933" stroke="#000000"></polygon><polygon points="289.026,147.568 305.726,147.568 296.080,143.710 287.097,143.710" fill="#009933" stroke="#000000"></polygon><polygon points="315.154,166.928 315.154,165.420 306.108,160.897" fill="#009933" stroke="#000000"></polygon><polygon points="315.154,173.700 315.154,166.928 294.836,153.382" fill="#009933" stroke="#000000"></polygon><polygon points="306.929,183.375 308.923,184.372 315.154,184.372 315.154,173.700 289.030,147.576" fill="#009933" stroke="#000000"></polygon><polygon points="261.499,151.225 267.305,157.031 306.497,183.159 306.929,183.375 287.097,143.710 257.741,143.710" fill="#009933" stroke="#000000"></polygon><polygon points="271.437,184.372 307.999,184.372 254.532,166.550 253.615,166.550" fill="#009933" stroke="#000000"></polygon><polygon points="248.149,167.230 252.896,171.977 259.042,171.977 253.615,166.550 247.809,166.550" fill="#009933" stroke="#000000"></polygon><polygon points="270.037,184.372 271.437,184.372 259.042,171.977 245.247,171.977" fill="#009933" stroke="#000000"></polygon><polygon points="269.636,184.372 270.037,184.372 243.941,171.324 243.540,171.324" fill="#009933" stroke="#000000"></polygon><polygon points="255.985,184.372 269.636,184.372 242.334,170.721" fill="#009933" stroke="#000000"></polygon><polygon points="242.334,170.721 243.540,171.324 243.941,171.324 241.932,170.320" fill="#009933" stroke="#000000"></polygon><polygon points="247.809,166.550 253.615,166.550 242.003,154.937" fill="#009933" stroke="#000000"></polygon><polygon points="250.523,171.977 252.896,171.977 248.149,167.230" fill="#009933" stroke="#000000"></polygon><polygon points="241.450,169.838 241.932,170.320 245.247,171.977 250.523,171.977 242.003,154.937 230.775,143.710 228.386,143.710" fill="#009933" stroke="#000000"></polygon><polygon points="253.615,166.550 254.532,166.550 253.156,166.091" fill="#009933" stroke="#000000"></polygon><polygon points="308.317,184.372 308.923,184.372 306.497,183.159" fill="#009933" stroke="#000000"></polygon><polygon points="287.970,177.696 307.999,184.372 308.317,184.372 267.305,157.031" fill="#009933" stroke="#000000"></polygon><polygon points="272.087,172.402 287.970,177.696 262.626,152.352 262.062,152.352" fill="#009933" stroke="#000000"></polygon><polygon points="262.950,154.128 262.062,152.352 260.286,152.352" fill="#009933" stroke="#000000"></polygon><polygon points="261.529,153.180 260.286,152.352 259.872,152.352" fill="#009933" stroke="#000000"></polygon><polygon points="253.156,166.091 272.087,172.402 262.950,154.128 261.529,153.180 242.588,143.710 230.775,143.710" fill="#009933" stroke="#000000"></polygon><polygon points="307.379,196.075 310.432,197.092 315.154,197.092 315.154,184.372 289.825,184.372" fill="#009933" stroke="#000000"></polygon><polygon points="257.395,185.722 257.941,186.269 277.960,186.269 272.271,184.372 256.720,184.372" fill="#009933" stroke="#000000"></polygon><polygon points="261.799,190.187 262.439,190.827 273.357,190.827 270.065,189.730 261.571,189.730" fill="#FFFFFF" stroke="#000000"></polygon><polygon points="274.702,197.092 292.153,197.092 273.357,190.827 262.171,190.827" fill="#FFFFFF" stroke="#000000"></polygon><polygon points="261.571,189.730 270.065,189.730 259.872,186.332" fill="#009933" stroke="#000000"></polygon><polygon points="262.102,190.793 262.171,190.827 262.439,190.827 261.799,190.187" fill="#009933" stroke="#000000"></polygon><polygon points="262.102,190.793 259.872,186.332 259.681,186.269 253.054,186.269" fill="#009933" stroke="#000000"></polygon><polygon points="292.153,197.092 310.432,197.092 277.960,186.269 259.681,186.269" fill="#009933" stroke="#000000"></polygon><polygon points="257.668,186.269 257.941,186.269 257.395,185.722" fill="#009933" stroke="#000000"></polygon><polygon points="253.054,186.269 257.668,186.269 256.720,184.372 249.262,184.372" fill="#009933" stroke="#000000"></polygon><polygon points="307.379,196.075 289.825,184.372 272.271,184.372" fill="#009933" stroke="#000000"></polygon><polygon points="262.785,191.173 262.863,191.173 262.708,191.095" fill="#009933" stroke="#000000"></polygon><polygon points="268.186,197.092 274.702,197.092 262.863,191.173 256.347,191.173" fill="#FFFFFF" stroke="#000000"></polygon><polygon points="256.347,191.173 262.785,191.173 262.708,191.095 260.860,190.172 254.344,190.172" fill="#009933" stroke="#000000"></polygon><polygon points="267.785,197.092 268.186,197.092 253.038,189.518 252.637,189.518" fill="#FFFFFF" stroke="#000000"></polygon><polygon points="266.682,197.092 267.785,197.092 255.441,190.920 254.338,190.920" fill="#FFFFFF" stroke="#000000"></polygon><polygon points="266.448,197.092 266.682,197.092 253.942,190.722 253.708,190.722" fill="#FFFFFF" stroke="#000000"></polygon><polygon points="199.031,197.092 266.448,197.092 206.286,167.012 199.031,165.198" fill="#FFFFFF" stroke="#000000"></polygon><polygon points="199.031,165.198 206.286,167.012 200.382,164.059 199.031,164.059" fill="#009933" stroke="#000000"></polygon><polygon points="253.708,190.722 253.942,190.722 200.616,164.059 200.382,164.059" fill="#FFFFFF" stroke="#000000"></polygon><polygon points="254.338,190.920 255.441,190.920 201.719,164.059 200.616,164.059" fill="#009933" stroke="#000000"></polygon><polygon points="199.031,164.059 201.719,164.059 199.031,162.715" fill="#009933" stroke="#000000"></polygon><polygon points="199.031,162.715 252.637,189.518 253.038,189.518 199.031,162.515" fill="#009933" stroke="#000000"></polygon><polygon points="199.031,162.515 254.344,190.172 260.860,190.172 199.948,159.715 199.031,159.715" fill="#009933" stroke="#000000"></polygon><polygon points="199.031,71.104 206.882,71.104 199.031,65.869" fill="#009933" stroke="#000000"></polygon><polygon points="199.031,65.869 221.681,80.969 297.736,80.969 289.026,72.260 236.771,46.132 199.031,33.552" fill="#FFFFFF" stroke="#000000"></polygon><polygon points="199.031,80.969 221.681,80.969 206.882,71.104 199.031,71.104" fill="#009933" stroke="#000000"></polygon><polygon points="50.974,147.740 103.229,173.868 140.969,186.448 140.969,148.682 102.363,139.031 42.264,139.031" fill="#FFFFFF" stroke="#000000"></polygon><polygon points="140.969,148.682 140.969,139.031 102.363,139.031" fill="#009933" stroke="#000000"></polygon><polygon points="140.969,60.360 158.244,60.360 153.305,55.421 140.969,55.421" fill="#009933" stroke="#000000"></polygon><polygon points="178.853,80.969 181.498,80.969 155.599,55.070 152.954,55.070" fill="#009933" stroke="#000000"></polygon><polygon points="140.969,80.969 178.853,80.969 158.244,60.360 140.969,60.360" fill="#009933" stroke="#000000"></polygon><polygon points="185.235,165.143 199.031,165.143 199.031,163.688 183.780,163.688" fill="#009933" stroke="#000000"></polygon><polygon points="199.031,179.340 199.031,178.939 184.582,164.490 184.181,164.490" fill="#FFFFFF" stroke="#000000"></polygon><polygon points="184.181,164.490 184.582,164.490 159.123,139.031 158.722,139.031" fill="#009933" stroke="#000000"></polygon><polygon points="183.780,163.688 199.031,163.688 199.031,139.031 159.123,139.031" fill="#009933" stroke="#000000"></polygon><polygon points="113.487,101.579 114.985,101.579 113.323,98.254 107.517,92.448 84.559,80.969 72.267,80.969" fill="#009933" stroke="#000000"></polygon><polygon points="107.517,92.448 96.038,80.969 84.559,80.969" fill="#009933" stroke="#000000"></polygon><polygon points="113.323,98.254 104.681,80.969 96.038,80.969" fill="#009933" stroke="#000000"></polygon><polygon points="114.985,101.579 137.674,101.579 117.065,80.969 104.681,80.969" fill="#009933" stroke="#000000"></polygon><polygon points="140.969,115.320 140.969,104.874 137.674,101.579 113.487,101.579" fill="#009933" stroke="#000000"></polygon><polygon points="140.969,104.874 140.969,80.969 117.065,80.969" fill="#009933" stroke="#000000"></polygon><polygon points="199.031,96.896 207.306,96.896 199.031,92.758" fill="#009933" stroke="#000000"></polygon><polygon points="199.031,107.398 216.618,124.985 223.675,124.985 199.031,100.341" fill="#009933" stroke="#000000"></polygon><polygon points="199.031,139.031 225.632,139.031 211.586,124.985 199.031,124.985" fill="#009933" stroke="#000000"></polygon><polygon points="199.031,124.985 216.618,124.985 199.031,107.398" fill="#009933" stroke="#000000"></polygon><polygon points="105.467,57.080 136.426,57.080 95.207,36.470 84.858,36.470" fill="#009933" stroke="#000000"></polygon><polygon points="96.215,73.036 113.490,73.036 78.941,55.761" fill="#009933" stroke="#000000"></polygon><polygon points="104.149,80.969 129.357,80.969 113.490,73.036 96.215,73.036" fill="#009933" stroke="#000000"></polygon><polygon points="91.481,80.969 104.149,80.969 92.935,69.756 69.054,69.756" fill="#009933" stroke="#000000"></polygon><polygon points="129.357,80.969 140.969,80.969 140.969,57.080 105.467,57.080" fill="#009933" stroke="#000000"></polygon><polygon points="229.086,143.710 315.154,143.710 315.154,143.606 228.878,143.606" fill="#009933" stroke="#000000"></polygon><polygon points="224.407,143.710 229.086,143.710 219.728,139.031" fill="#009933" stroke="#000000"></polygon><polygon points="228.878,143.606 238.078,143.606 233.503,139.031 219.728,139.031" fill="#009933" stroke="#000000"></polygon><polygon points="223.619,145.669 226.654,145.669 225.675,143.710 219.700,143.710" fill="#009933" stroke="#000000"></polygon><polygon points="222.725,151.113 236.027,164.415 226.654,145.669 220.003,145.669" fill="#009933" stroke="#000000"></polygon><polygon points="236.027,164.415 241.450,169.838 228.386,143.710 225.675,143.710" fill="#009933" stroke="#000000"></polygon><polygon points="199.031,159.715 199.948,159.715 199.031,159.257" fill="#009933" stroke="#000000"></polygon><polygon points="248.536,184.009 249.262,184.372 255.985,184.372 241.450,169.838" fill="#009933" stroke="#000000"></polygon><polygon points="244.921,182.202 248.536,184.009 241.450,169.838 236.027,164.415" fill="#009933" stroke="#000000"></polygon><polygon points="220.003,145.669 223.619,145.669 219.700,143.710 219.024,143.710" fill="#009933" stroke="#000000"></polygon><polygon points="236.052,177.768 244.921,182.202 236.027,164.415 222.725,151.113" fill="#009933" stroke="#000000"></polygon><polygon points="199.031,159.257 236.052,177.768 219.024,143.710 199.031,143.710" fill="#009933" stroke="#000000"></polygon><polygon points="199.031,143.710 224.407,143.710 219.728,139.031 199.031,139.031" fill="#009933" stroke="#000000"></polygon><polygon points="199.031,33.552 236.771,46.132 199.031,27.262" fill="#CCCCCC" stroke="#000000"></polygon><polygon points="140.969,192.738 140.969,186.448 103.229,173.868" fill="#CCCCCC" stroke="#000000"></polygon><polygon points="199.031,33.552 199.031,27.262 190.322,22.908 167.097,22.908" fill="#CCCCCC" stroke="#000000"></polygon><polygon points="140.969,192.738 149.678,197.092 172.903,197.092 140.969,186.448" fill="#CCCCCC" stroke="#000000"></polygon><polygon points="199.031,27.262 289.026,72.260 239.674,22.908 199.031,22.908" fill="#CCCCCC" stroke="#000000"></polygon><polygon points="100.326,197.092 140.969,197.092 140.969,192.738 50.974,147.740" fill="#CCCCCC" stroke="#000000"></polygon><polygon points="199.031,27.262 199.031,22.908 190.322,22.908" fill="#CCCCCC" stroke="#000000"></polygon><polygon points="140.969,197.092 149.678,197.092 140.969,192.738" fill="#CCCCCC" stroke="#000000"></polygon><polygon points="24.846,139.031 42.264,139.031 24.846,121.612" fill="#CCCCCC" stroke="#000000"></polygon><polygon points="315.154,98.388 315.154,80.969 297.736,80.969" fill="#CCCCCC" stroke="#000000"></polygon><polygon points="297.736,80.969 315.154,80.969 315.154,22.908 239.674,22.908" fill="#CCCCCC" stroke="#000000"></polygon><polygon points="24.846,197.092 100.326,197.092 42.264,139.031 24.846,139.031" fill="#CCCCCC" stroke="#000000"></polygon><polygon points="140.969,139.031 199.031,139.031 199.031,80.969 140.969,80.969" fill="#009933" stroke="#000000"></polygon><polygon points="315.154,22.908 315.154,-9.026 123.551,-9.026 91.617,22.908" fill="#CCCCCC" stroke="#000000"></polygon><polygon points="315.154,130.322 390.634,54.841 419.665,-3.220 419.665,-9.026 315.154,-9.026" fill="#CCCCCC" stroke="#000000"></polygon><polygon points="24.846,229.026 216.449,229.026 248.383,197.092 24.846,197.092" fill="#CCCCCC" stroke="#000000"></polygon><polygon points="-79.665,229.026 24.846,229.026 24.846,89.678 -50.634,165.159 -79.665,223.220" fill="#CCCCCC" stroke="#000000"></polygon></g><rect x="0.5" y="0.5" width="339" height="219" stroke="#000000" stroke-width="1" fill="none"></rect></svg><g stroke="#000" stroke-width="1"><line x1="58.877" y1="221.000" x2="58.877" y2="224.500"></line><line x1="116.938" y1="221.000" x2="116.938" y2="224.500"></line><line x1="175.000" y1="221.000" x2="175.000" y2="224.500"></line><line x1="233.062" y1="221.000" x2="233.062" y2="224.500"></line><line x1="291.123" y1="221.000" x2="291.123" y2="224.500"></line><line x1="341.000" y1="202.092" x2="344.500" y2="202.092"></line><line x1="341.000" y1="173.062" x2="344.500" y2="173.062"></line><line x1="341.000" y1="144.031" x2="344.500" y2="144.031"></line><line x1="341.000" y1="115.000" x2="344.500" y2="115.000"></line><line x1="341.000" y1="85.969" x2="344.500" y2="85.969"></line><line x1="341.000" y1="56.938" x2="344.500" y2="56.938"></line><line x1="341.000" y1="27.908" x2="344.500" y2="27.908"></line></g></svg>