<svg xmlns="http://www.w3.org/2000/svg" width="385" height="245"><g font-family="DejaVu Sans, sans-serif" font-size="8pt"><text x="58.877" y="240.000" text-anchor="middle">-4</text><text x="116.938" y="240.000" text-anchor="middle">-2</text><text x="175.000" y="240.000" text-anchor="middle">0</text><text x="233.062" y="240.000" text-anchor="middle">2</text><text x="291.123" y="240.000" text-anchor="middle">4</text><text x="352.000" y="206.092" text-anchor="start">-3</text><text x="352.000" y="177.062" text-anchor="start">-2</text><text x="352.000" y="148.031" text-anchor="start">-1</text><text x="352.000" y="119.000" text-anchor="start">0</text><text x="352.000" y="89.969" text-anchor="start">1</text><text x="352.000" y="60.938" text-anchor="start">2</text><text x="352.000" y="31.908" text-anchor="start">3</text></g><svg xmlns="http://www.w3.org/2000/svg" width="340" height="220" x="5" y="5"><rect x="0" y="0" width="340" height="220" stroke="none" fill="#FFFFFF"></rect><g font-family="DejaVu Sans, sans-serif" font-size="8pt" text-anchor="middle"><polygon points="140.969,54.919 153.548,54.919 140.969,42.340" fill="#FFFFFF" stroke="#000000"></polygon><polygon points="140.969,55.213 153.842,55.213 153.548,54.919 140.969,54.919" fill="#009933" stroke="#000000"></polygon><polygon points="140.969,55.720 154.349,55.720 153.842,55.213 140.969,55.213" fill="#009933" stroke="#000000"></polygon><polygon points="140.969,42.340 153.476,54.847 155.038,54.847 140.969,40.779" fill="#FFFFFF" stroke="#000000"></polygon><polygon points="153.619,54.989 155.180,54.989 155.038,54.847 153.476,54.847" fill="#009933" stroke="#000000"></polygon><polygon points="154.376,55.747 155.937,55.747 155.180,54.989 153.619,54.989" fill="#009933" stroke="#000000"></polygon><polygon points="140.969,40.779 155.485,55.294 155.711,55.294 140.969,40.552" fill="#FFFFFF" stroke="#000000"></polygon><polygon points="140.969,40.552 155.485,55.068 155.598,55.068 140.969,40.439" fill="#FFFFFF" stroke="#000000"></polygon><polygon points="140.969,40.439 181.499,80.969 199.031,80.969 199.031,33.552 167.097,22.908 140.969,22.908" fill="#FFFFFF" stroke="#000000"></polygon><polygon points="181.386,80.969 181.499,80.969 155.598,55.068 155.485,55.068" fill="#009933" stroke="#000000"></polygon><polygon points="181.160,80.969 181.386,80.969 155.711,55.294 155.485,55.294" fill="#009933" stroke="#000000"></polygon><polygon points="199.031,176.984 199.031,165.142 187.190,165.142" fill="#FFFFFF" stroke="#000000"></polygon><polygon points="187.190,165.142 199.031,165.142 199.031,164.968 187.015,164.968" fill="#009933" stroke="#000000"></polygon><polygon points="187.015,164.968 199.031,164.968 199.031,163.728 185.775,163.728" fill="#009933" stroke="#000000"></polygon><polygon points="199.031,179.228 199.031,176.984 187.144,165.097 184.900,165.097" fill="#FFFFFF" stroke="#000000"></polygon><polygon points="184.900,165.097 187.144,165.097 186.999,164.952 184.755,164.952" fill="#009933" stroke="#000000"></polygon><polygon points="184.755,164.952 186.999,164.952 186.313,164.266 184.069,164.266" fill="#009933" stroke="#000000"></polygon><polygon points="199.031,179.608 199.031,179.228 184.830,165.027 184.450,165.027" fill="#FFFFFF" stroke="#000000"></polygon><polygon points="140.969,186.448 172.903,197.092 199.031,197.092 199.031,179.608 160.590,141.167 156.317,139.031 140.969,139.031" fill="#FFFFFF" stroke="#000000"></polygon><polygon points="160.590,141.167 158.454,139.031 156.317,139.031" fill="#009933" stroke="#000000"></polygon><polygon points="184.450,165.027 184.830,165.027 158.834,139.031 158.454,139.031" fill="#009933" stroke="#000000"></polygon><polygon points="74.327,87.030 90.084,87.030 77.963,80.969 62.206,80.969" fill="#009933" stroke="#000000"></polygon><polygon points="106.466,106.218 112.705,106.218 62.206,80.969 55.967,80.969" fill="#009933" stroke="#000000"></polygon><polygon points="112.705,106.218 116.712,106.218 114.730,102.256 108.924,96.450 90.084,87.030 74.327,87.030" fill="#009933" stroke="#000000"></polygon><polygon points="102.904,110.107 114.243,110.107 55.967,80.969 44.627,80.969" fill="#009933" stroke="#000000"></polygon><polygon points="24.846,121.612 42.264,139.031 140.969,139.031 140.969,129.140 44.627,80.969 24.846,80.969" fill="#FFFFFF" stroke="#000000"></polygon><polygon points="140.969,129.140 140.969,123.470 114.243,110.107 102.904,110.107" fill="#009933" stroke="#000000"></polygon><polygon points="108.924,96.450 93.444,80.969 77.963,80.969" fill="#009933" stroke="#000000"></polygon><polygon points="114.730,102.256 104.087,80.969 93.444,80.969" fill="#009933" stroke="#000000"></polygon><polygon points="116.712,106.218 132.016,106.218 106.767,80.969 104.087,80.969" fill="#009933" stroke="#000000"></polygon><polygon points="140.969,123.470 140.969,115.171 132.016,106.218 106.466,106.218" fill="#009933" stroke="#000000"></polygon><polygon points="199.031,92.330 202.112,95.412 228.560,108.636 214.727,80.969 199.031,80.969" fill="#FFFFFF" stroke="#000000"></polygon><polygon points="202.421,95.721 228.663,108.842 228.560,108.636 202.112,95.412" fill="#009933" stroke="#000000"></polygon><polygon points="199.031,92.433 202.215,95.618 202.421,95.721 199.031,92.330" fill="#009933" stroke="#000000"></polygon><polygon points="228.663,108.842 230.147,109.584 227.922,107.358" fill="#009933" stroke="#000000"></polygon><polygon points="227.922,107.358 229.784,109.220 230.026,109.341 227.801,107.116" fill="#009933" stroke="#000000"></polygon><polygon points="227.801,107.116 233.607,112.922 236.885,114.561 220.089,80.969 214.727,80.969" fill="#FFFFFF" stroke="#000000"></polygon><polygon points="233.970,113.286 237.006,114.804 236.885,114.561 233.607,112.922" fill="#009933" stroke="#000000"></polygon><polygon points="233.728,113.165 233.970,113.286 230.026,109.341 229.784,109.220" fill="#009933" stroke="#000000"></polygon><polygon points="236.880,114.552 240.371,116.297 315.154,116.297 315.154,98.388 297.736,80.969 220.089,80.969" fill="#FFFFFF" stroke="#000000"></polygon><polygon points="237.006,114.804 239.993,116.297 240.371,116.297 236.880,114.552" fill="#009933" stroke="#000000"></polygon><polygon points="240.645,117.194 315.154,117.194 315.154,116.297 238.850,116.297" fill="#009933" stroke="#000000"></polygon><polygon points="242.809,121.484 315.154,121.484 315.154,117.194 238.519,117.194" fill="#009933" stroke="#000000"></polygon><polygon points="237.884,116.559 238.519,117.194 240.645,117.194 238.850,116.297 237.753,116.297" fill="#009933" stroke="#000000"></polygon><polygon points="237.753,116.297 239.993,116.297 237.006,114.804" fill="#009933" stroke="#000000"></polygon><polygon points="240.346,121.484 242.809,121.484 237.884,116.559" fill="#009933" stroke="#000000"></polygon><polygon points="238.645,118.082 237.006,114.804 233.728,113.165" fill="#009933" stroke="#000000"></polygon><polygon points="234.984,121.484 240.346,121.484 238.645,118.082 230.147,109.584 228.663,108.842" fill="#009933" stroke="#000000"></polygon><polygon points="228.081,121.484 234.984,121.484 228.663,108.842 202.215,95.618" fill="#009933" stroke="#000000"></polygon><polygon points="199.031,107.340 213.174,121.484 228.081,121.484 199.031,92.433" fill="#009933" stroke="#000000"></polygon><polygon points="239.010,123.729 242.288,125.368 240.346,121.484 236.765,121.484" fill="#009933" stroke="#000000"></polygon><polygon points="243.705,122.395 250.914,126.000 315.154,126.000 315.154,121.484 242.793,121.484" fill="#009933" stroke="#000000"></polygon><polygon points="247.310,126.000 250.914,126.000 243.705,122.395" fill="#009933" stroke="#000000"></polygon><polygon points="242.288,125.368 243.553,126.000 247.310,126.000 242.793,121.484 240.346,121.484" fill="#009933" stroke="#000000"></polygon><polygon points="247.237,129.460 266.379,139.031 315.154,139.031 315.154,126.000 243.777,126.000" fill="#009933" stroke="#000000"></polygon><polygon points="252.441,134.663 261.176,139.031 266.379,139.031 247.237,129.460" fill="#009933" stroke="#000000"></polygon><polygon points="243.165,127.123 248.972,132.929 252.441,134.663 243.777,126.000 242.604,126.000" fill="#009933" stroke="#000000"></polygon><polygon points="242.604,126.000 243.553,126.000 242.288,125.368" fill="#009933" stroke="#000000"></polygon><polygon points="255.074,139.031 261.176,139.031 248.972,132.929" fill="#009933" stroke="#000000"></polygon><polygon points="249.120,139.031 255.074,139.031 243.165,127.123" fill="#009933" stroke="#000000"></polygon><polygon points="243.927,128.646 242.288,125.368 239.010,123.729" fill="#009933" stroke="#000000"></polygon><polygon points="222.663,139.031 249.120,139.031 243.927,128.646 236.765,121.484 205.116,121.484" fill="#009933" stroke="#000000"></polygon><polygon points="77.986,29.599 85.185,29.599 71.803,22.908 71.295,22.908" fill="#FFFFFF" stroke="#000000"></polygon><polygon points="78.234,29.846 85.681,29.846 85.185,29.599 77.986,29.599" fill="#009933" stroke="#000000"></polygon><polygon points="85.734,29.873 87.296,29.873 73.364,22.908 71.803,22.908" fill="#FFFFFF" stroke="#000000"></polygon><polygon points="137.741,55.096 140.969,55.096 140.969,22.908 73.364,22.908" fill="#FFFFFF" stroke="#000000"></polygon><polygon points="136.179,55.096 137.741,55.096 87.296,29.873 85.734,29.873" fill="#009933" stroke="#000000"></polygon><polygon points="103.483,55.096 136.179,55.096 85.681,29.846 78.234,29.846" fill="#009933" stroke="#000000"></polygon><polygon points="82.527,37.850 85.644,37.850 79.411,31.617" fill="#009933" stroke="#000000"></polygon><polygon points="63.039,29.367 67.820,29.367 61.360,22.908 56.580,22.908" fill="#FFFFFF" stroke="#000000"></polygon><polygon points="70.898,37.225 75.678,37.225 67.820,29.367 63.039,29.367" fill="#009933" stroke="#000000"></polygon><polygon points="67.595,29.142 71.637,29.142 65.402,22.908 61.360,22.908" fill="#FFFFFF" stroke="#000000"></polygon><polygon points="72.261,29.766 77.560,29.766 70.702,22.908 65.402,22.908" fill="#FFFFFF" stroke="#000000"></polygon><polygon points="80.344,37.850 82.527,37.850 79.411,31.617 77.560,29.766 72.261,29.766" fill="#009933" stroke="#000000"></polygon><polygon points="76.302,37.850 80.344,37.850 71.637,29.142 67.595,29.142" fill="#009933" stroke="#000000"></polygon><polygon points="48.771,32.781 66.453,32.781 56.580,22.908 29.024,22.908" fill="#FFFFFF" stroke="#000000"></polygon><polygon points="54.068,37.225 57.660,37.225 29.024,22.908 25.433,22.908" fill="#009933" stroke="#000000"></polygon><polygon points="57.660,37.225 70.898,37.225 66.453,32.781 48.771,32.781" fill="#009933" stroke="#000000"></polygon><polygon points="24.846,32.623 54.812,47.607 74.831,47.607 25.433,22.908 24.846,22.908" fill="#FFFFFF" stroke="#000000"></polygon><polygon points="24.846,33.612 83.819,63.099 85.797,63.099 24.846,32.623" fill="#009933" stroke="#000000"></polygon><polygon points="85.797,63.099 95.152,63.099 93.533,59.861 87.727,54.055 74.831,47.607 54.812,47.607" fill="#009933" stroke="#000000"></polygon><polygon points="24.846,46.091 63.453,65.395 88.411,65.395 24.846,33.612" fill="#FFFFFF" stroke="#000000"></polygon><polygon points="24.846,80.969 94.601,80.969 24.846,46.091" fill="#FFFFFF" stroke="#000000"></polygon><polygon points="94.601,80.969 119.560,80.969 88.411,65.395 63.453,65.395" fill="#009933" stroke="#000000"></polygon><polygon points="87.727,54.055 70.898,37.225 54.068,37.225" fill="#009933" stroke="#000000"></polygon><polygon points="88.752,50.299 82.527,37.850 76.302,37.850" fill="#009933" stroke="#000000"></polygon><polygon points="93.533,59.861 88.752,50.299 75.678,37.225 70.898,37.225" fill="#009933" stroke="#000000"></polygon><polygon points="95.152,63.099 110.893,63.099 85.644,37.850 82.527,37.850" fill="#009933" stroke="#000000"></polygon><polygon points="119.560,80.969 128.763,80.969 110.893,63.099 83.819,63.099" fill="#009933" stroke="#000000"></polygon><polygon points="246.970,139.649 250.248,141.288 249.120,139.031 246.352,139.031" fill="#009933" stroke="#000000"></polygon><polygon points="270.744,148.231 315.154,148.231 315.154,139.031 252.344,139.031" fill="#009933" stroke="#000000"></polygon><polygon points="251.126,143.043 256.314,148.231 270.744,148.231 252.344,139.031 249.120,139.031" fill="#009933" stroke="#000000"></polygon><polygon points="253.720,148.231 256.314,148.231 251.126,143.043" fill="#009933" stroke="#000000"></polygon><polygon points="251.887,144.566 250.248,141.288 246.970,139.649" fill="#009933" stroke="#000000"></polygon><polygon points="228.282,148.231 253.720,148.231 251.887,144.566 246.352,139.031 219.082,139.031" fill="#009933" stroke="#000000"></polygon><polygon points="274.332,153.026 315.154,153.026 315.154,148.231 264.741,148.231" fill="#009933" stroke="#000000"></polygon><polygon points="272.702,157.097 315.154,157.097 315.154,153.026 264.560,153.026" fill="#009933" stroke="#000000"></polygon><polygon points="257.174,149.333 264.560,153.026 274.332,153.026 264.741,148.231 256.072,148.231" fill="#009933" stroke="#000000"></polygon><polygon points="228.710,157.097 235.332,157.097 222.087,150.475" fill="#009933" stroke="#000000"></polygon><polygon points="264.938,157.097 272.702,157.097 257.174,149.333" fill="#009933" stroke="#000000"></polygon><polygon points="222.087,150.475 235.332,157.097 264.938,157.097 256.072,148.231 219.843,148.231" fill="#009933" stroke="#000000"></polygon><polygon points="277.024,164.326 315.154,164.326 315.154,157.097 262.567,157.097" fill="#009933" stroke="#000000"></polygon><polygon points="261.804,158.593 273.269,164.326 277.024,164.326 262.567,157.097 260.308,157.097" fill="#009933" stroke="#000000"></polygon><polygon points="267.536,164.326 273.269,164.326 261.804,158.593" fill="#009933" stroke="#000000"></polygon><polygon points="235.938,164.326 267.536,164.326 260.308,157.097 228.710,157.097" fill="#009933" stroke="#000000"></polygon><polygon points="259.047,167.384 255.989,164.326 252.931,164.326" fill="#009933" stroke="#000000"></polygon><polygon points="262.628,170.965 265.906,172.604 261.767,164.326 255.989,164.326" fill="#009933" stroke="#000000"></polygon><polygon points="265.083,165.151 281.832,173.526 315.154,173.526 315.154,164.326 264.257,164.326" fill="#009933" stroke="#000000"></polygon><polygon points="273.458,173.526 281.832,173.526 265.083,165.151" fill="#009933" stroke="#000000"></polygon><polygon points="265.906,172.604 267.750,173.526 273.458,173.526 264.257,164.326 261.767,164.326" fill="#009933" stroke="#000000"></polygon><polygon points="287.887,180.947 315.154,180.947 315.154,173.526 273.045,173.526" fill="#009933" stroke="#000000"></polygon><polygon points="291.501,189.621 315.154,189.621 315.154,180.947 274.154,180.947" fill="#009933" stroke="#000000"></polygon><polygon points="266.784,174.359 272.590,180.165 274.154,180.947 287.887,180.947 273.045,173.526 266.367,173.526" fill="#009933" stroke="#000000"></polygon><polygon points="292.985,190.156 315.154,190.156 315.154,189.621 291.914,189.621" fill="#009933" stroke="#000000"></polygon><polygon points="274.927,197.092 315.154,197.092 315.154,190.156 267.991,190.156" fill="#FFFFFF" stroke="#000000"></polygon><polygon points="267.991,190.156 292.985,190.156 291.914,189.621 267.456,189.621" fill="#009933" stroke="#000000"></polygon><polygon points="274.675,197.092 274.927,197.092 267.961,190.126 267.708,190.126" fill="#FFFFFF" stroke="#000000"></polygon><polygon points="269.741,197.092 274.675,197.092 267.110,189.528 254.612,189.528" fill="#FFFFFF" stroke="#000000"></polygon><polygon points="254.612,189.528 267.110,189.528 266.605,189.023 253.602,189.023" fill="#009933" stroke="#000000"></polygon><polygon points="267.708,190.126 267.961,190.126 266.858,189.023 266.605,189.023" fill="#009933" stroke="#000000"></polygon><polygon points="267.497,197.092 269.741,197.092 255.115,189.779 252.871,189.779" fill="#FFFFFF" stroke="#000000"></polygon><polygon points="252.871,189.779 255.115,189.779 253.602,189.023 251.358,189.023" fill="#009933" stroke="#000000"></polygon><polygon points="266.318,197.092 267.497,197.092 252.931,189.809 251.751,189.809" fill="#FFFFFF" stroke="#000000"></polygon><polygon points="199.031,197.092 266.318,197.092 202.357,165.112 199.031,165.112" fill="#FFFFFF" stroke="#000000"></polygon><polygon points="199.031,165.112 202.357,165.112 200.784,164.326 199.031,164.326" fill="#009933" stroke="#000000"></polygon><polygon points="251.751,189.809 252.931,189.809 201.964,164.326 200.784,164.326" fill="#009933" stroke="#000000"></polygon><polygon points="251.358,189.023 253.602,189.023 204.208,164.326 201.964,164.326" fill="#009933" stroke="#000000"></polygon><polygon points="253.602,189.023 266.858,189.023 242.161,164.326 204.208,164.326" fill="#009933" stroke="#000000"></polygon><polygon points="266.367,173.526 267.750,173.526 265.906,172.604" fill="#009933" stroke="#000000"></polygon><polygon points="282.045,189.621 291.501,189.621 272.590,180.165" fill="#009933" stroke="#000000"></polygon><polygon points="274.415,189.621 282.045,189.621 266.784,174.359" fill="#009933" stroke="#000000"></polygon><polygon points="267.545,175.882 265.906,172.604 262.628,170.965" fill="#009933" stroke="#000000"></polygon><polygon points="267.456,189.621 274.415,189.621 267.545,175.882 259.047,167.384 252.931,164.326 242.161,164.326" fill="#009933" stroke="#000000"></polygon><polygon points="140.969,58.869 157.499,58.869 154.349,55.720 140.969,55.720" fill="#009933" stroke="#000000"></polygon><polygon points="179.598,80.969 181.160,80.969 155.937,55.747 154.376,55.747" fill="#009933" stroke="#000000"></polygon><polygon points="140.969,80.969 179.598,80.969 157.499,58.869 140.969,58.869" fill="#009933" stroke="#000000"></polygon><polygon points="185.775,163.728 199.031,163.728 199.031,159.778 181.825,159.778" fill="#009933" stroke="#000000"></polygon><polygon points="184.069,164.266 186.313,164.266 161.078,139.031 158.834,139.031" fill="#009933" stroke="#000000"></polygon><polygon points="181.825,159.778 199.031,159.778 199.031,139.031 161.078,139.031" fill="#009933" stroke="#000000"></polygon><polygon points="128.909,103.111 140.911,103.111 118.770,80.969 106.767,80.969" fill="#009933" stroke="#000000"></polygon><polygon points="140.969,115.171 140.969,103.169 140.911,103.111 128.909,103.111" fill="#009933" stroke="#000000"></polygon><polygon points="140.969,103.169 140.969,80.969 118.770,80.969" fill="#009933" stroke="#000000"></polygon><polygon points="199.031,115.399 205.116,121.484 213.174,121.484 199.031,107.340" fill="#009933" stroke="#000000"></polygon><polygon points="199.031,139.031 222.663,139.031 199.031,115.399" fill="#009933" stroke="#000000"></polygon><polygon points="108.649,60.261 140.969,60.261 140.969,55.096 103.483,55.096" fill="#009933" stroke="#000000"></polygon><polygon points="105.699,57.905 106.293,57.905 71.295,22.908 70.702,22.908" fill="#FFFFFF" stroke="#000000"></polygon><polygon points="128.763,80.969 129.357,80.969 106.293,57.905 105.699,57.905" fill="#009933" stroke="#000000"></polygon><polygon points="129.357,80.969 140.969,80.969 140.969,60.261 108.649,60.261" fill="#009933" stroke="#000000"></polygon><polygon points="219.843,148.231 228.282,148.231 219.082,139.031 210.643,139.031" fill="#009933" stroke="#000000"></polygon><polygon points="199.031,164.326 235.938,164.326 228.710,157.097 199.031,157.097" fill="#009933" stroke="#000000"></polygon><polygon points="199.031,157.097 228.710,157.097 210.643,139.031 199.031,139.031" fill="#009933" stroke="#000000"></polygon><polygon points="199.031,80.969 297.736,80.969 289.026,72.260 236.771,46.132 199.031,33.552" fill="#FFFFFF" stroke="#000000"></polygon><polygon points="199.031,33.552 236.771,46.132 199.031,27.262" fill="#CCCCCC" stroke="#000000"></polygon><polygon points="50.974,147.740 103.229,173.868 140.969,186.448 140.969,139.031 42.264,139.031" fill="#FFFFFF" stroke="#000000"></polygon><polygon points="140.969,192.738 140.969,186.448 103.229,173.868" fill="#CCCCCC" stroke="#000000"></polygon><polygon points="199.031,33.552 199.031,27.262 190.322,22.908 167.097,22.908" fill="#CCCCCC" stroke="#000000"></polygon><polygon points="140.969,192.738 149.678,197.092 172.903,197.092 140.969,186.448" fill="#CCCCCC" stroke="#000000"></polygon><polygon points="199.031,27.262 289.026,72.260 239.674,22.908 199.031,22.908" fill="#CCCCCC" stroke="#000000"></polygon><polygon points="100.326,197.092 140.969,197.092 140.969,192.738 50.974,147.740" fill="#CCCCCC" stroke="#000000"></polygon><polygon points="199.031,27.262 199.031,22.908 190.322,22.908" fill="#CCCCCC" stroke="#000000"></polygon><polygon points="140.969,197.092 149.678,197.092 140.969,192.738" fill="#CCCCCC" stroke="#000000"></polygon><polygon points="24.846,139.031 42.264,139.031 24.846,121.612" fill="#CCCCCC" stroke="#000000"></polygon><polygon points="315.154,98.388 315.154,80.969 297.736,80.969" fill="#CCCCCC" stroke="#000000"></polygon><polygon points="297.736,80.969 315.154,80.969 315.154,22.908 239.674,22.908" fill="#CCCCCC" stroke="#000000"></polygon><polygon points="24.846,197.092 100.326,197.092 42.264,139.031 24.846,139.031" fill="#CCCCCC" stroke="#000000"></polygon><polygon points="140.969,139.031 199.031,139.031 199.031,80.969 140.969,80.969" fill="#009933" stroke="#000000"></polygon><polygon points="315.154,22.908 315.154,-9.026 123.551,-9.026 91.617,22.908" fill="#CCCCCC" stroke="#000000"></polygon><polygon points="315.154,130.322 390.634,54.841 419.665,-3.220 419.665,-9.026 315.154,-9.026" fill="#CCCCCC" stroke="#000000"></polygon><polygon points="24.846,229.026 216.449,229.026 248.383,197.092 24.846,197.092" fill="#CCCCCC" stroke="#000000"></polygon><polygon points="-79.665,229.026 24.846,229.026 24.846,89.678 -50.634,165.159 -79.665,223.220" fill="#CCCCCC" stroke="#000000"></polygon></g><rect x="0.5" y="0.5" width="339" height="219" stroke="#000000" stroke-width="1" fill="none"></rect></svg><g stroke="#000" stroke-width="1"><line x1="58.877" y1="221.000" x2="58.877" y2="224.500"></line><line x1="116.938" y1="221.000" x2="116.938" y2="224.500"></line><line x1="175.000" y1="221.000" x2="175.000" y2="224.500"></line><line x1="233.062" y1="221.000" x2="233.062" y2="224.500"></line><line x1="291.123" y1="221.000" x2="291.123" y2="224.500"></line><line x1="341.000" y1="202.092" x2="344.500" y2="202.092"></line><line x1="341.000" y1="173.062" x2="344.500" y2="173.062"></line><line x1="341.000" y1="144.031" x2="344.500" y2="144.031"></line><line x1="341.000" y1="115.000" x2="344.500" y2="115.000"></line><line x1="341.000" y1="85.969" x2="344.500" y2="85.969"></line><line x1="341.000" y1="56.938" x2="344.500" y2="56.938"></line><line x1="341.000" y1="27.908" x2="344.500" y2="27.908"></line></g></svg>