<svg xmlns="http://www.w3.org/2000/svg" width="595" height="315"><g font-family="DejaVu Sans, sans-serif" font-size="8pt"><text x="41.240" y="310.000" text-anchor="middle">-8</text><text x="100.930" y="310.000" text-anchor="middle">-6</text><text x="160.620" y="310.000" text-anchor="middle">-4</text><text x="220.310" y="310.000" text-anchor="middle">-2</text><text x="280.000" y="310.000" text-anchor="middle">0</text><text x="339.690" y="310.000" text-anchor="middle">2</text><text x="399.380" y="310.000" text-anchor="middle">4</text><text x="459.070" y="310.000" text-anchor="middle">6</text><text x="518.760" y="310.000" text-anchor="middle">8</text><text x="562.000" y="273.380" text-anchor="start">-4</text><text x="562.000" y="243.535" text-anchor="start">-3</text><text x="562.000" y="213.690" text-anchor="start">-2</text><text x="562.000" y="183.845" text-anchor="start">-1</text><text x="562.000" y="154.000" text-anchor="start">0</text><text x="562.000" y="124.155" text-anchor="start">1</text><text x="562.000" y="94.310" text-anchor="start">2</text><text x="562.000" y="64.465" text-anchor="start">3</text><text x="562.000" y="34.620" text-anchor="start">4</text></g><svg xmlns="http://www.w3.org/2000/svg" width="550" height="290" x="5" y="5"><rect x="0" y="0" width="550" height="290" stroke="none" fill="#FFFFFF"></rect><g font-family="DejaVu Sans, sans-serif" font-size="8pt" text-anchor="middle"><polygon points="125.775,174.845 245.155,174.845 245.155,115.155 125.775,115.155" fill="none" stroke="#000000"></polygon><text x="185.465" y="145.000" dy="3">X<tspan dy="2" font-size="0.8em">13</tspan></text><polygon points="245.155,174.845 304.845,174.845 304.845,115.155 245.155,115.155" fill="#009933" stroke="#000000"></polygon><text x="275.000" y="145.000" dy="3">X<tspan dy="2" font-size="0.8em">12</tspan></text><polygon points="304.845,174.845 424.225,174.845 424.225,115.155 304.845,115.155" fill="none" stroke="#000000"></polygon><text x="364.535" y="145.000" dy="3">X<tspan dy="2" font-size="0.8em">11</tspan></text><polygon points="125.775,115.155 245.155,115.155 245.155,55.465 125.775,55.465" fill="none" stroke="#000000"></polygon><text x="185.465" y="85.310" dy="3">X<tspan dy="2" font-size="0.8em">10</tspan></text><polygon points="245.155,115.155 304.845,115.155 304.845,55.465 245.155,55.465" fill="none" stroke="#000000"></polygon><text x="275.000" y="85.310" dy="3">X<tspan dy="2" font-size="0.8em">9</tspan></text><polygon points="304.845,115.155 424.225,115.155 424.225,55.465 304.845,55.465" fill="none" stroke="#000000"></polygon><text x="364.535" y="85.310" dy="3">X<tspan dy="2" font-size="0.8em">8</tspan></text><polygon points="125.775,234.535 245.155,234.535 245.155,174.845 125.775,174.845" fill="none" stroke="#000000"></polygon><text x="185.465" y="204.690" dy="3">X<tspan dy="2" font-size="0.8em">7</tspan></text><polygon points="245.155,234.535 304.845,234.535 304.845,174.845 245.155,174.845" fill="none" stroke="#000000"></polygon><text x="275.000" y="204.690" dy="3">X<tspan dy="2" font-size="0.8em">6</tspan></text><polygon points="304.845,234.535 424.225,234.535 424.225,174.845 304.845,174.845" fill="none" stroke="#000000"></polygon><text x="364.535" y="204.690" dy="3">X<tspan dy="2" font-size="0.8em">5</tspan></text><polygon points="424.225,55.465 424.225,22.636 227.248,22.636 194.419,55.465" fill="#cccccc" stroke="#000000"></polygon><text x="317.319" y="39.471" dy="3">X<tspan dy="2" font-size="0.8em">4</tspan></text><polygon points="424.225,165.891 501.822,88.295 531.667,28.605 531.667,22.636 424.225,22.636" fill="#cccccc" stroke="#000000"></polygon><text x="464.555" y="73.471" dy="3">X<tspan dy="2" font-size="0.8em">3</tspan></text><polygon points="125.775,267.364 322.752,267.364 355.581,234.535 125.775,234.535" fill="#cccccc" stroke="#000000"></polygon><text x="232.681" y="250.529" dy="3">X<tspan dy="2" font-size="0.8em">2</tspan></text><polygon points="18.333,267.364 125.775,267.364 125.775,124.109 48.178,201.705 18.333,261.395" fill="#cccccc" stroke="#000000"></polygon><text x="85.445" y="216.529" dy="3">X<tspan dy="2" font-size="0.8em">1</tspan></text></g><rect x="0.5" y="0.5" width="549" height="289" stroke="#000000" stroke-width="1" fill="none"></rect></svg><g stroke="#000" stroke-width="1"><line x1="41.240" y1="291.000" x2="41.240" y2="294.500"></line><line x1="100.930" y1="291.000" x2="100.930" y2="294.500"></line><line x1="160.620" y1="291.000" x2="160.620" y2="294.500"></line><line x1="220.310" y1="291.000" x2="220.310" y2="294.500"></line><line x1="280.000" y1="291.000" x2="280.000" y2="294.500"></line><line x1="339.690" y1="291.000" x2="339.690" y2="294.500"></line><line x1="399.380" y1="291.000" x2="399.380" y2="294.500"></line><line x1="459.070" y1="291.000" x2="459.070" y2="294.500"></line><line x1="518.760" y1="291.000" x2="518.760" y2="294.500"></line><line x1="551.000" y1="269.380" x2="554.500" y2="269.380"></line><line x1="551.000" y1="239.535" x2="554.500" y2="239.535"></line><line x1="551.000" y1="209.690" x2="554.500" y2="209.690"></line><line x1="551.000" y1="179.845" x2="554.500" y2="179.845"></line><line x1="551.000" y1="150.000" x2="554.500" y2="150.000"></line><line x1="551.000" y1="120.155" x2="554.500" y2="120.155"></line><line x1="551.000" y1="90.310" x2="554.500" y2="90.310"></line><line x1="551.000" y1="60.465" x2="554.500" y2="60.465"></line><line x1="551.000" y1="30.620" x2="554.500" y2="30.620"></line></g></svg>