<svg xmlns="http://www.w3.org/2000/svg" width="385" height="245"><g font-family="DejaVu Sans, sans-serif" font-size="8pt"><text x="58.877" y="240.000" text-anchor="middle">-4</text><text x="116.938" y="240.000" text-anchor="middle">-2</text><text x="175.000" y="240.000" text-anchor="middle">0</text><text x="233.062" y="240.000" text-anchor="middle">2</text><text x="291.123" y="240.000" text-anchor="middle">4</text><text x="352.000" y="206.092" text-anchor="start">-3</text><text x="352.000" y="177.062" text-anchor="start">-2</text><text x="352.000" y="148.031" text-anchor="start">-1</text><text x="352.000" y="119.000" text-anchor="start">0</text><text x="352.000" y="89.969" text-anchor="start">1</text><text x="352.000" y="60.938" text-anchor="start">2</text><text x="352.000" y="31.908" text-anchor="start">3</text></g><svg xmlns="http://www.w3.org/2000/svg" width="340" height="220" x="5" y="5"><rect x="0" y="0" width="340" height="220" stroke="none" fill="#FFFFFF"></rect><g font-family="DejaVu Sans, sans-serif" font-size="8pt" text-anchor="middle"><polygon points="140.969,42.261 160.206,55.086 174.901,55.086 140.969,32.465" fill="#FFFFFF" stroke="#000000"></polygon><polygon points="140.969,32.465 172.195,53.283 199.031,60.950 199.031,33.552 167.097,22.908 140.969,22.908" fill="#FFFFFF" stroke="#000000"></polygon><polygon points="199.031,71.173 199.031,60.950 172.195,53.283" fill="#009933" stroke="#000000"></polygon><polygon points="199.031,80.969 199.031,71.173 174.901,55.086 160.206,55.086" fill="#009933" stroke="#000000"></polygon><polygon points="140.969,143.843 181.952,164.334 182.520,164.334 140.969,143.559" fill="#009933" stroke="#000000"></polygon><polygon points="191.292,169.691 189.351,167.750 182.520,164.334 172.544,164.334" fill="#009933" stroke="#000000"></polygon><polygon points="199.031,177.540 199.031,177.430 191.292,169.691 149.696,157.806" fill="#009933" stroke="#000000"></polygon><polygon points="193.900,180.255 199.031,181.721 199.031,177.540 190.920,174.296" fill="#FFFFFF" stroke="#000000"></polygon><polygon points="174.397,197.092 199.031,197.092 199.031,181.721 161.325,170.948" fill="#FFFFFF" stroke="#000000"></polygon><polygon points="140.969,186.448 172.903,197.092 174.397,197.092 156.019,160.335 140.969,154.316" fill="#FFFFFF" stroke="#000000"></polygon><polygon points="161.325,170.948 193.900,180.255 190.920,174.296 156.019,160.335" fill="#009933" stroke="#000000"></polygon><polygon points="140.969,154.316 149.696,157.806 172.544,164.334 181.952,164.334 140.969,143.843" fill="#009933" stroke="#000000"></polygon><polygon points="24.846,104.177 26.410,104.802 66.158,104.802 30.409,80.969 24.846,80.969" fill="#009933" stroke="#000000"></polygon><polygon points="45.247,139.031 81.974,139.031 30.556,124.340" fill="#009933" stroke="#000000"></polygon><polygon points="24.846,121.612 42.264,139.031 45.247,139.031 24.846,118.630" fill="#FFFFFF" stroke="#000000"></polygon><polygon points="24.846,118.630 30.556,124.340 81.974,139.031 111.981,139.031 24.846,104.177" fill="#009933" stroke="#000000"></polygon><polygon points="111.981,139.031 112.721,139.031 110.331,134.251 66.158,104.802 26.410,104.802" fill="#009933" stroke="#000000"></polygon><polygon points="249.170,93.307 243.001,80.969 218.324,80.969" fill="#009933" stroke="#000000"></polygon><polygon points="221.001,86.323 258.016,110.999 249.170,93.307 218.324,80.969" fill="#009933" stroke="#000000"></polygon><polygon points="245.293,85.554 246.292,85.554 244.960,84.888" fill="#009933" stroke="#000000"></polygon><polygon points="311.680,95.971 296.679,80.969 266.676,80.969" fill="#009933" stroke="#000000"></polygon><polygon points="315.154,99.445 315.154,98.388 297.736,80.969 296.679,80.969" fill="#FFFFFF" stroke="#000000"></polygon><polygon points="244.960,84.888 315.154,119.985 315.154,99.445 311.680,95.971 266.676,80.969 243.001,80.969" fill="#009933" stroke="#000000"></polygon><polygon points="256.564,108.096 286.604,138.136 315.154,138.136 315.154,119.985 246.292,85.554 245.293,85.554" fill="#009933" stroke="#000000"></polygon><polygon points="76.639,28.251 71.295,22.908 57.936,22.908" fill="#FFFFFF" stroke="#000000"></polygon><polygon points="64.741,37.343 96.226,47.839 76.639,28.251 57.936,22.908 50.305,22.908" fill="#009933" stroke="#000000"></polygon><polygon points="59.014,80.969 83.690,80.969 76.564,76.218 56.639,76.218" fill="#009933" stroke="#000000"></polygon><polygon points="24.846,44.317 50.724,70.196 54.353,71.647 46.676,56.293 24.846,41.740" fill="#009933" stroke="#000000"></polygon><polygon points="24.846,80.969 59.014,80.969 54.353,71.647 24.846,59.844" fill="#009933" stroke="#000000"></polygon><polygon points="24.846,59.844 50.724,70.196 24.846,44.317" fill="#009933" stroke="#000000"></polygon><polygon points="56.639,76.218 76.564,76.218 46.676,56.293" fill="#009933" stroke="#000000"></polygon><polygon points="199.031,177.430 199.031,170.931 189.282,167.681" fill="#009933" stroke="#000000"></polygon><polygon points="189.282,167.681 199.031,170.931 199.031,160.670 182.271,160.670" fill="#009933" stroke="#000000"></polygon><polygon points="74.463,26.075 82.800,30.244 92.969,30.244 74.629,22.908 71.295,22.908" fill="#009933" stroke="#000000"></polygon><polygon points="140.969,49.444 140.969,22.908 74.629,22.908" fill="#FFFFFF" stroke="#000000"></polygon><polygon points="137.481,57.584 140.969,57.584 140.969,49.444 92.969,30.244 82.800,30.244" fill="#009933" stroke="#000000"></polygon><polygon points="241.850,187.196 264.488,194.742 239.334,182.165" fill="#009933" stroke="#000000"></polygon><polygon points="199.031,197.092 269.189,197.092 264.488,194.742 199.031,172.923" fill="#FFFFFF" stroke="#000000"></polygon><polygon points="199.031,172.923 241.850,187.196 239.334,182.165 199.031,162.013" fill="#009933" stroke="#000000"></polygon><polygon points="199.031,56.040 200.054,56.040 199.031,55.358" fill="#009933" stroke="#000000"></polygon><polygon points="199.031,55.358 205.931,59.959 268.963,80.969 297.736,80.969 289.026,72.260 236.771,46.132 199.031,33.552" fill="#FFFFFF" stroke="#000000"></polygon><polygon points="237.447,80.969 268.963,80.969 205.931,59.959" fill="#009933" stroke="#000000"></polygon><polygon points="199.031,71.809 221.931,80.969 237.447,80.969 200.054,56.040 199.031,56.040" fill="#009933" stroke="#000000"></polygon><polygon points="199.031,80.969 221.931,80.969 199.031,71.809" fill="#009933" stroke="#000000"></polygon><polygon points="50.974,147.740 103.229,173.868 140.969,186.448 140.969,160.305 66.509,139.031 42.264,139.031" fill="#FFFFFF" stroke="#000000"></polygon><polygon points="140.969,160.305 140.969,156.790 96.571,139.031 66.509,139.031" fill="#009933" stroke="#000000"></polygon><polygon points="140.969,156.790 140.969,139.031 96.571,139.031" fill="#009933" stroke="#000000"></polygon><polygon points="140.969,45.631 151.199,55.861 161.368,55.861 140.969,42.261" fill="#009933" stroke="#000000"></polygon><polygon points="176.308,80.969 199.031,80.969 161.368,55.861 151.199,55.861" fill="#009933" stroke="#000000"></polygon><polygon points="189.351,167.750 185.557,163.956 181.763,163.956" fill="#009933" stroke="#000000"></polygon><polygon points="140.969,143.559 181.763,163.956 185.557,163.956 160.632,139.031 140.969,139.031" fill="#009933" stroke="#000000"></polygon><polygon points="107.554,86.717 104.681,80.969 90.312,80.969" fill="#009933" stroke="#000000"></polygon><polygon points="100.719,103.368 119.789,112.903 120.648,112.903 112.318,96.244 97.157,96.244" fill="#009933" stroke="#000000"></polygon><polygon points="100.719,103.368 89.520,80.969 55.922,80.969" fill="#009933" stroke="#000000"></polygon><polygon points="97.157,96.244 112.318,96.244 107.554,86.717 90.312,80.969 89.520,80.969" fill="#009933" stroke="#000000"></polygon><polygon points="138.818,139.031 140.969,139.031 137.743,137.955" fill="#009933" stroke="#000000"></polygon><polygon points="94.599,102.786 106.562,106.774 105.592,105.804 92.946,99.482" fill="#009933" stroke="#000000"></polygon><polygon points="122.882,139.031 129.410,139.031 113.090,132.503" fill="#009933" stroke="#000000"></polygon><polygon points="112.721,139.031 122.882,139.031 107.641,128.870" fill="#009933" stroke="#000000"></polygon><polygon points="107.641,128.870 113.090,132.503 129.410,139.031 138.818,139.031 137.314,137.526 99.296,112.181" fill="#009933" stroke="#000000"></polygon><polygon points="110.331,134.251 92.946,99.482 55.922,80.969 30.409,80.969" fill="#009933" stroke="#000000"></polygon><polygon points="99.296,112.181 137.314,137.526 106.562,106.774 94.599,102.786" fill="#009933" stroke="#000000"></polygon><polygon points="137.743,137.955 140.969,139.031 140.969,123.493 105.592,105.804" fill="#009933" stroke="#000000"></polygon><polygon points="199.031,92.062 212.135,96.430 204.405,80.969 199.031,80.969" fill="#009933" stroke="#000000"></polygon><polygon points="199.031,102.303 220.418,112.996 212.135,96.430 199.031,92.062" fill="#009933" stroke="#000000"></polygon><polygon points="215.026,102.211 216.879,102.829 214.562,101.284" fill="#009933" stroke="#000000"></polygon><polygon points="221.804,87.929 218.324,80.969 204.405,80.969" fill="#009933" stroke="#000000"></polygon><polygon points="214.562,101.284 235.441,115.203 221.804,87.929 204.405,80.969" fill="#009933" stroke="#000000"></polygon><polygon points="221.939,88.199 226.629,90.075 221.001,86.323" fill="#009933" stroke="#000000"></polygon><polygon points="258.016,110.999 262.370,113.902 256.564,108.096" fill="#009933" stroke="#000000"></polygon><polygon points="246.908,138.136 260.700,138.136 244.150,132.620" fill="#009933" stroke="#000000"></polygon><polygon points="271.584,138.136 286.604,138.136 262.370,113.902 258.016,110.999" fill="#009933" stroke="#000000"></polygon><polygon points="244.150,132.620 260.700,138.136 271.584,138.136 258.016,110.999 226.629,90.075 221.939,88.199" fill="#009933" stroke="#000000"></polygon><polygon points="232.988,138.136 246.908,138.136 235.441,115.203 216.879,102.829 215.026,102.211" fill="#009933" stroke="#000000"></polygon><polygon points="77.269,49.871 119.249,70.862 96.226,47.839 64.741,37.343" fill="#009933" stroke="#000000"></polygon><polygon points="76.131,54.191 84.318,56.920 70.673,43.276" fill="#009933" stroke="#000000"></polygon><polygon points="85.088,72.106 106.711,79.314 97.181,69.784 83.927,69.784" fill="#009933" stroke="#000000"></polygon><polygon points="78.093,69.774 85.088,72.106 70.673,43.276 59.014,31.617" fill="#009933" stroke="#000000"></polygon><polygon points="83.690,80.969 85.499,80.969 82.786,79.160" fill="#009933" stroke="#000000"></polygon><polygon points="24.846,26.518 43.717,26.518 32.886,22.908 24.846,22.908" fill="#009933" stroke="#000000"></polygon><polygon points="59.014,31.617 50.305,22.908 32.886,22.908" fill="#009933" stroke="#000000"></polygon><polygon points="24.846,41.740 83.690,80.969 59.014,31.617 43.717,26.518 24.846,26.518" fill="#009933" stroke="#000000"></polygon><polygon points="83.927,69.784 97.181,69.784 84.318,56.920 76.131,54.191" fill="#009933" stroke="#000000"></polygon><polygon points="82.786,79.160 85.499,80.969 108.366,80.969 106.711,79.314 78.093,69.774" fill="#009933" stroke="#000000"></polygon><polygon points="250.231,144.783 247.355,139.031 241.603,139.031" fill="#009933" stroke="#000000"></polygon><polygon points="275.766,140.694 274.103,139.031 273.271,139.031" fill="#009933" stroke="#000000"></polygon><polygon points="293.560,158.488 315.154,158.488 315.154,139.031 274.103,139.031" fill="#009933" stroke="#000000"></polygon><polygon points="257.084,158.488 293.560,158.488 275.766,140.694 273.271,139.031 247.355,139.031" fill="#009933" stroke="#000000"></polygon><polygon points="243.164,158.488 257.084,158.488 250.231,144.783 241.603,139.031 233.436,139.031" fill="#009933" stroke="#000000"></polygon><polygon points="262.331,163.176 282.055,169.751 265.162,158.488 257.643,158.488" fill="#009933" stroke="#000000"></polygon><polygon points="306.483,186.036 315.154,186.036 315.154,158.488 265.162,158.488" fill="#009933" stroke="#000000"></polygon><polygon points="267.771,186.036 280.829,186.036 261.242,179.507" fill="#009933" stroke="#000000"></polygon><polygon points="256.938,186.036 267.771,186.036 246.105,164.369" fill="#009933" stroke="#000000"></polygon><polygon points="285.191,186.036 306.483,186.036 282.055,169.751 262.331,163.176" fill="#009933" stroke="#000000"></polygon><polygon points="246.105,164.369 261.242,179.507 280.829,186.036 285.191,186.036 257.643,158.488 243.164,158.488" fill="#009933" stroke="#000000"></polygon><polygon points="315.154,196.413 315.154,186.036 299.588,186.036" fill="#009933" stroke="#000000"></polygon><polygon points="274.664,197.092 293.177,197.092 265.407,187.836" fill="#009933" stroke="#000000"></polygon><polygon points="269.189,197.092 274.664,197.092 263.607,186.036 247.076,186.036" fill="#009933" stroke="#000000"></polygon><polygon points="265.407,187.836 293.177,197.092 315.154,197.092 315.154,196.413 299.588,186.036 263.607,186.036" fill="#009933" stroke="#000000"></polygon><polygon points="140.969,55.587 150.925,55.587 140.969,45.631" fill="#009933" stroke="#000000"></polygon><polygon points="140.969,65.451 160.789,65.451 150.925,55.587 140.969,55.587" fill="#009933" stroke="#000000"></polygon><polygon points="140.969,80.969 176.308,80.969 160.789,65.451 140.969,65.451" fill="#009933" stroke="#000000"></polygon><polygon points="182.271,160.670 199.031,160.670 199.031,139.031 160.632,139.031" fill="#009933" stroke="#000000"></polygon><polygon points="112.888,97.385 130.756,97.385 106.933,85.473" fill="#009933" stroke="#000000"></polygon><polygon points="106.933,85.473 134.986,99.500 116.455,80.969 104.681,80.969" fill="#009933" stroke="#000000"></polygon><polygon points="120.648,112.903 140.969,112.903 140.969,105.483 134.986,99.500 130.756,97.385 112.888,97.385" fill="#009933" stroke="#000000"></polygon><polygon points="140.969,123.493 140.969,112.903 119.789,112.903" fill="#009933" stroke="#000000"></polygon><polygon points="140.969,105.483 140.969,80.969 116.455,80.969" fill="#009933" stroke="#000000"></polygon><polygon points="224.915,139.031 315.154,139.031 315.154,138.136 223.126,138.136" fill="#009933" stroke="#000000"></polygon><polygon points="221.656,139.031 224.915,139.031 218.397,135.772" fill="#009933" stroke="#000000"></polygon><polygon points="199.031,116.405 218.397,135.772 223.126,138.136 232.988,138.136 220.418,112.996 199.031,102.303" fill="#009933" stroke="#000000"></polygon><polygon points="199.031,139.031 221.656,139.031 199.031,116.405" fill="#009933" stroke="#000000"></polygon><polygon points="88.221,39.834 101.980,39.834 74.463,26.075" fill="#009933" stroke="#000000"></polygon><polygon points="105.972,57.584 137.481,57.584 101.980,39.834 88.221,39.834" fill="#009933" stroke="#000000"></polygon><polygon points="97.089,69.692 116.909,69.692 77.269,49.871" fill="#009933" stroke="#000000"></polygon><polygon points="108.366,80.969 129.357,80.969 119.249,70.862 116.909,69.692 97.089,69.692" fill="#009933" stroke="#000000"></polygon><polygon points="129.357,80.969 140.969,80.969 140.969,57.584 105.972,57.584" fill="#009933" stroke="#000000"></polygon><polygon points="233.328,158.488 243.164,158.488 233.436,139.031 213.870,139.031" fill="#009933" stroke="#000000"></polygon><polygon points="244.136,160.431 243.164,158.488 240.249,158.488" fill="#009933" stroke="#000000"></polygon><polygon points="199.031,162.013 247.076,186.036 256.938,186.036 244.136,160.431 240.249,158.488 199.031,158.488" fill="#009933" stroke="#000000"></polygon><polygon points="199.031,158.488 233.328,158.488 213.870,139.031 199.031,139.031" fill="#009933" stroke="#000000"></polygon><polygon points="199.031,33.552 236.771,46.132 199.031,27.262" fill="#CCCCCC" stroke="#000000"></polygon><polygon points="140.969,192.738 140.969,186.448 103.229,173.868" fill="#CCCCCC" stroke="#000000"></polygon><polygon points="199.031,33.552 199.031,27.262 190.322,22.908 167.097,22.908" fill="#CCCCCC" stroke="#000000"></polygon><polygon points="140.969,192.738 149.678,197.092 172.903,197.092 140.969,186.448" fill="#CCCCCC" stroke="#000000"></polygon><polygon points="199.031,27.262 289.026,72.260 239.674,22.908 199.031,22.908" fill="#CCCCCC" stroke="#000000"></polygon><polygon points="100.326,197.092 140.969,197.092 140.969,192.738 50.974,147.740" fill="#CCCCCC" stroke="#000000"></polygon><polygon points="199.031,27.262 199.031,22.908 190.322,22.908" fill="#CCCCCC" stroke="#000000"></polygon><polygon points="140.969,197.092 149.678,197.092 140.969,192.738" fill="#CCCCCC" stroke="#000000"></polygon><polygon points="24.846,139.031 42.264,139.031 24.846,121.612" fill="#CCCCCC" stroke="#000000"></polygon><polygon points="315.154,98.388 315.154,80.969 297.736,80.969" fill="#CCCCCC" stroke="#000000"></polygon><polygon points="297.736,80.969 315.154,80.969 315.154,22.908 239.674,22.908" fill="#CCCCCC" stroke="#000000"></polygon><polygon points="24.846,197.092 100.326,197.092 42.264,139.031 24.846,139.031" fill="#CCCCCC" stroke="#000000"></polygon><polygon points="140.969,139.031 199.031,139.031 199.031,80.969 140.969,80.969" fill="#009933" stroke="#000000"></polygon><polygon points="315.154,22.908 315.154,-9.026 123.551,-9.026 91.617,22.908" fill="#CCCCCC" stroke="#000000"></polygon><polygon points="315.154,130.322 390.634,54.841 419.665,-3.220 419.665,-9.026 315.154,-9.026" fill="#CCCCCC" stroke="#000000"></polygon><polygon points="24.846,229.026 216.449,229.026 248.383,197.092 24.846,197.092" fill="#CCCCCC" stroke="#000000"></polygon><polygon points="-79.665,229.026 24.846,229.026 24.846,89.678 -50.634,165.159 -79.665,223.220" fill="#CCCCCC" stroke="#000000"></polygon></g><rect x="0.5" y="0.5" width="339" height="219" stroke="#000000" stroke-width="1" fill="none"></rect></svg><g stroke="#000" stroke-width="1"><line x1="58.877" y1="221.000" x2="58.877" y2="224.500"></line><line x1="116.938" y1="221.000" x2="116.938" y2="224.500"></line><line x1="175.000" y1="221.000" x2="175.000" y2="224.500"></line><line x1="233.062" y1="221.000" x2="233.062" y2="224.500"></line><line x1="291.123" y1="221.000" x2="291.123" y2="224.500"></line><line x1="341.000" y1="202.092" x2="344.500" y2="202.092"></line><line x1="341.000" y1="173.062" x2="344.500" y2="173.062"></line><line x1="341.000" y1="144.031" x2="344.500" y2="144.031"></line><line x1="341.000" y1="115.000" x2="344.500" y2="115.000"></line><line x1="341.000" y1="85.969" x2="344.500" y2="85.969"></line><line x1="341.000" y1="56.938" x2="344.500" y2="56.938"></line><line x1="341.000" y1="27.908" x2="344.500" y2="27.908"></line></g></svg>