<svg xmlns="http://www.w3.org/2000/svg" width="645" height="475"><g font-family="DejaVu Sans, sans-serif" font-size="8pt"><text x="54.120" y="470.000" text-anchor="middle">0</text><text x="104.296" y="470.000" text-anchor="middle">0.4</text><text x="154.472" y="470.000" text-anchor="middle">0.8</text><text x="204.648" y="470.000" text-anchor="middle">1.2</text><text x="254.824" y="470.000" text-anchor="middle">1.6</text><text x="305.000" y="470.000" text-anchor="middle">2</text><text x="355.176" y="470.000" text-anchor="middle">2.4</text><text x="405.352" y="470.000" text-anchor="middle">2.8</text><text x="455.528" y="470.000" text-anchor="middle">3.2</text><text x="505.704" y="470.000" text-anchor="middle">3.6</text><text x="555.880" y="470.000" text-anchor="middle">4</text><text x="612.000" y="422.160" text-anchor="start">0</text><text x="612.000" y="384.528" text-anchor="start">0.3</text><text x="612.000" y="346.896" text-anchor="start">0.6</text><text x="612.000" y="309.264" text-anchor="start">0.9</text><text x="612.000" y="271.632" text-anchor="start">1.2</text><text x="612.000" y="234.000" text-anchor="start">1.5</text><text x="612.000" y="196.368" text-anchor="start">1.8</text><text x="612.000" y="158.736" text-anchor="start">2.1</text><text x="612.000" y="121.104" text-anchor="start">2.4</text><text x="612.000" y="83.472" text-anchor="start">2.7</text><text x="612.000" y="45.840" text-anchor="start">3</text></g><svg xmlns="http://www.w3.org/2000/svg" width="600" height="450" x="5" y="5"><rect x="0" y="0" width="600" height="450" stroke="none" fill="#FFFFFF"></rect><g font-family="DejaVu Sans, sans-serif" font-size="8pt" text-anchor="middle"><polygon points="212.192,413.160 387.808,413.160 387.808,250.088 212.192,250.088" fill="#CCCCCC" stroke="#000000"></polygon><polygon points="212.192,199.912 387.808,199.912 387.808,36.840 212.192,36.840" fill="#CCCCCC" stroke="#000000"></polygon><polygon points="49.120,36.840 550.880,36.840 550.880,-38.424 49.120,-38.424" fill="#CCCCCC" stroke="#000000"></polygon><polygon points="550.880,413.160 626.144,413.160 626.144,-38.424 550.880,-38.424" fill="#CCCCCC" stroke="#000000"></polygon><polygon points="49.120,488.424 626.144,488.424 626.144,413.160 49.120,413.160" fill="#CCCCCC" stroke="#000000"></polygon><polygon points="-26.144,488.424 49.120,488.424 49.120,-38.424 -26.144,-38.424" fill="#CCCCCC" stroke="#000000"></polygon></g><g stroke="#000" stroke-width="1" fill="#000"><line x1="55.392" y1="43.112" x2="116.876" y2="105.161"></line><polygon points="116.876,105.161 116.904,99.161 110.876,105.134"></polygon><line x1="116.876" y1="105.161" x2="165.566" y2="163.771"></line><polygon points="165.566,163.771 166.119,157.797 159.592,163.219"></polygon><line x1="165.566" y1="163.771" x2="230.153" y2="235.988"></line><polygon points="230.153,235.988 230.487,229.997 224.162,235.654"></polygon><line x1="230.153" y1="235.988" x2="287.285" y2="230.680"></line><polygon points="287.285,230.680 282.668,226.848 283.453,235.297"></polygon><line x1="287.285" y1="230.680" x2="339.662" y2="211.280"></line><polygon points="339.662,211.280 334.210,208.775 337.157,216.732"></polygon><line x1="339.662" y1="211.280" x2="410.950" y2="214.177"></line><polygon points="410.950,214.177 406.883,209.765 406.539,218.244"></polygon><line x1="410.950" y1="214.177" x2="421.014" y2="173.829"></line><polygon points="421.014,173.829 415.870,176.918 424.103,178.972"></polygon><line x1="421.014" y1="173.829" x2="363.779" y2="225.556"></line><polygon points="363.779,225.556 369.771,225.859 364.082,219.564"></polygon><line x1="363.779" y1="225.556" x2="291.188" y2="236.956"></line><polygon points="291.188,236.956 296.038,240.489 294.721,232.106"></polygon><line x1="291.188" y1="236.956" x2="240.651" y2="211.493"></line><polygon points="240.651,211.493 242.531,217.191 246.349,209.613"></polygon><line x1="240.651" y1="211.493" x2="181.345" y2="269.228"></line><polygon points="181.345,269.228 187.344,269.308 181.425,263.228"></polygon><line x1="181.345" y1="269.228" x2="172.009" y2="278.030"></line><polygon points="172.009,278.030 178.007,278.206 172.186,272.032"></polygon><line x1="172.009" y1="278.030" x2="223.266" y2="211.038"></line><polygon points="223.266,211.038 217.318,211.830 224.057,216.986"></polygon><line x1="223.266" y1="211.038" x2="278.026" y2="221.159"></line><polygon points="278.026,221.159 274.625,216.216 273.083,224.560"></polygon><line x1="278.026" y1="221.159" x2="346.637" y2="239.501"></line><polygon points="346.637,239.501 343.634,234.307 341.443,242.504"></polygon><line x1="346.637" y1="239.501" x2="419.340" y2="167.964"></line><polygon points="419.340,167.964 413.340,167.916 419.292,173.964"></polygon><line x1="419.340" y1="167.964" x2="412.878" y2="185.846"></line><polygon points="412.878,185.846 418.310,183.298 410.330,180.414"></polygon><line x1="412.878" y1="185.846" x2="356.488" y2="213.307"></line><polygon points="356.488,213.307 362.160,215.264 358.444,207.635"></polygon><line x1="356.488" y1="213.307" x2="286.314" y2="214.402"></line><polygon points="286.314,214.402 290.623,218.578 290.490,210.094"></polygon><line x1="286.314" y1="214.402" x2="216.673" y2="238.806"></line><polygon points="216.673,238.806 222.080,241.407 219.274,233.399"></polygon><line x1="216.673" y1="238.806" x2="163.115" y2="259.704"></line><polygon points="163.115,259.704 168.610,262.114 165.525,254.210"></polygon><line x1="163.115" y1="259.704" x2="168.067" y2="261.623"></line><polygon points="168.067,261.623 165.645,256.134 162.578,264.046"></polygon><line x1="168.067" y1="261.623" x2="230.692" y2="213.179"></line><polygon points="230.692,213.179 224.741,212.419 229.932,219.131"></polygon><line x1="230.692" y1="213.179" x2="279.884" y2="241.165"></line><polygon points="279.884,241.165 278.294,235.380 274.098,242.755"></polygon><line x1="279.884" y1="241.165" x2="343.097" y2="231.008"></line><polygon points="343.097,231.008 338.235,227.492 339.581,235.870"></polygon><line x1="343.097" y1="231.008" x2="398.579" y2="176.789"></line><polygon points="398.579,176.789 392.579,176.720 398.510,182.788"></polygon><line x1="398.579" y1="176.789" x2="423.856" y2="164.481"></line><polygon points="423.856,164.481 418.184,162.524 421.899,170.153"></polygon><line x1="423.856" y1="164.481" x2="352.771" y2="216.146"></line><polygon points="352.771,216.146 358.698,217.084 353.709,210.220"></polygon><line x1="352.771" y1="216.146" x2="301.529" y2="228.830"></line><polygon points="301.529,228.830 306.666,231.929 304.628,223.692"></polygon><line x1="301.529" y1="228.830" x2="238.946" y2="225.253"></line><polygon points="238.946,225.253 242.939,229.730 243.424,221.259"></polygon><line x1="238.946" y1="225.253" x2="189.404" y2="250.013"></line><polygon points="189.404,250.013 195.096,251.911 191.302,244.321"></polygon><line x1="189.404" y1="250.013" x2="181.263" y2="261.439"></line><polygon points="181.263,261.439 187.180,260.445 180.270,255.521"></polygon><line x1="181.263" y1="261.439" x2="237.892" y2="227.597"></line><polygon points="237.892,227.597 232.073,226.132 236.426,233.416"></polygon><line x1="237.892" y1="227.597" x2="296.297" y2="214.415"></line><polygon points="296.297,214.415 291.225,211.210 293.093,219.488"></polygon><line x1="296.297" y1="214.415" x2="357.945" y2="221.602"></line><polygon points="357.945,221.602 354.222,216.896 353.240,225.325"></polygon><line x1="357.945" y1="221.602" x2="416.796" y2="174.008"></line><polygon points="416.796,174.008 410.830,173.377 416.165,179.975"></polygon><line x1="416.796" y1="174.008" x2="419.690" y2="175.966"></line><polygon points="419.690,175.966 418.553,170.074 413.799,177.102"></polygon><line x1="419.690" y1="175.966" x2="350.311" y2="210.282"></line><polygon points="350.311,210.282 355.995,212.204 352.233,204.598"></polygon><line x1="350.311" y1="210.282" x2="281.129" y2="218.662"></line><polygon points="281.129,218.662 285.851,222.363 284.830,213.940"></polygon><line x1="281.129" y1="218.662" x2="209.438" y2="233.808"></line><polygon points="209.438,233.808 214.466,237.082 212.712,228.780"></polygon><line x1="209.438" y1="233.808" x2="191.211" y2="275.673"></line><polygon points="191.211,275.673 196.794,273.477 189.014,270.090"></polygon><line x1="191.211" y1="275.673" x2="251.674" y2="203.498"></line><polygon points="251.674,203.498 245.698,204.026 252.202,209.475"></polygon><line x1="251.674" y1="203.498" x2="312.290" y2="224.490"></line><polygon points="312.290,224.490 309.669,219.093 306.892,227.111"></polygon><line x1="312.290" y1="224.490" x2="384.032" y2="219.339"></line><polygon points="384.032,219.339 379.496,215.411 380.104,223.874"></polygon><line x1="384.032" y1="219.339" x2="442.032" y2="171.146"></line><polygon points="442.032,171.146 436.058,170.594 441.480,177.121"></polygon><line x1="442.032" y1="171.146" x2="448.490" y2="199.224"></line><polygon points="448.490,199.224 451.674,194.138 443.405,196.040"></polygon><line x1="448.490" y1="199.224" x2="390.949" y2="243.256"></line><polygon points="390.949,243.256 396.897,244.047 391.741,237.308"></polygon><line x1="390.949" y1="243.256" x2="325.673" y2="233.019"></line><polygon points="325.673,233.019 329.207,237.868 330.521,229.485"></polygon><line x1="325.673" y1="233.019" x2="264.012" y2="217.252"></line><polygon points="264.012,217.252 267.071,222.414 269.173,214.193"></polygon><line x1="264.012" y1="217.252" x2="190.742" y2="241.273"></line><polygon points="190.742,241.273 196.095,243.983 193.452,235.920"></polygon><line x1="190.742" y1="241.273" x2="200.220" y2="257.273"></line><polygon points="200.220,257.273 201.708,251.461 194.407,255.785"></polygon><line x1="200.220" y1="257.273" x2="259.479" y2="219.744"></line><polygon points="259.479,219.744 253.625,218.430 258.165,225.599"></polygon><line x1="259.479" y1="219.744" x2="333.238" y2="229.955"></line><polygon points="333.238,229.955 329.617,225.171 328.454,233.576"></polygon><line x1="333.238" y1="229.955" x2="405.457" y2="229.637"></line><polygon points="405.457,229.637 401.195,225.413 401.233,233.899"></polygon><line x1="405.457" y1="229.637" x2="403.014" y2="184.503"></line><polygon points="403.014,184.503 399.007,188.968 407.480,188.510"></polygon><line x1="403.014" y1="184.503" x2="349.964" y2="211.012"></line><polygon points="349.964,211.012 355.656,212.911 351.863,205.321"></polygon><line x1="349.964" y1="211.012" x2="286.926" y2="224.301"></line><polygon points="286.926,224.301 291.953,227.577 290.203,219.274"></polygon><line x1="286.926" y1="224.301" x2="214.681" y2="240.167"></line><polygon points="214.681,240.167 219.735,243.401 217.914,235.113"></polygon><line x1="214.681" y1="240.167" x2="150.093" y2="268.289"></line><polygon points="150.093,268.289 155.677,270.485 152.289,262.705"></polygon><line x1="150.093" y1="268.289" x2="186.086" y2="279.027"></line><polygon points="186.086,279.027 183.233,273.748 180.807,281.880"></polygon></g><rect x="0.5" y="0.5" width="599" height="449" stroke="#000000" stroke-width="1" fill="none"></rect></svg><g stroke="#000" stroke-width="1"><line x1="54.120" y1="451.000" x2="54.120" y2="454.500"></line><line x1="104.296" y1="451.000" x2="104.296" y2="454.500"></line><line x1="154.472" y1="451.000" x2="154.472" y2="454.500"></line><line x1="204.648" y1="451.000" x2="204.648" y2="454.500"></line><line x1="254.824" y1="451.000" x2="254.824" y2="454.500"></line><line x1="305.000" y1="451.000" x2="305.000" y2="454.500"></line><line x1="355.176" y1="451.000" x2="355.176" y2="454.500"></line><line x1="405.352" y1="451.000" x2="405.352" y2="454.500"></line><line x1="455.528" y1="451.000" x2="455.528" y2="454.500"></line><line x1="505.704" y1="451.000" x2="505.704" y2="454.500"></line><line x1="555.880" y1="451.000" x2="555.880" y2="454.500"></line><line x1="601.000" y1="418.160" x2="604.500" y2="418.160"></line><line x1="601.000" y1="380.528" x2="604.500" y2="380.528"></line><line x1="601.000" y1="342.896" x2="604.500" y2="342.896"></line><line x1="601.000" y1="305.264" x2="604.500" y2="305.264"></line><line x1="601.000" y1="267.632" x2="604.500" y2="267.632"></line><line x1="601.000" y1="230.000" x2="604.500" y2="230.000"></line><line x1="601.000" y1="192.368" x2="604.500" y2="192.368"></line><line x1="601.000" y1="154.736" x2="604.500" y2="154.736"></line><line x1="601.000" y1="117.104" x2="604.500" y2="117.104"></line><line x1="601.000" y1="79.472" x2="604.500" y2="79.472"></line><line x1="601.000" y1="41.840" x2="604.500" y2="41.840"></line></g></svg>