<svg xmlns="http://www.w3.org/2000/svg" width="385" height="245"><g font-family="DejaVu Sans, sans-serif" font-size="8pt"><text x="58.877" y="240.000" text-anchor="middle">-4</text><text x="116.938" y="240.000" text-anchor="middle">-2</text><text x="175.000" y="240.000" text-anchor="middle">0</text><text x="233.062" y="240.000" text-anchor="middle">2</text><text x="291.123" y="240.000" text-anchor="middle">4</text><text x="352.000" y="206.092" text-anchor="start">-3</text><text x="352.000" y="177.062" text-anchor="start">-2</text><text x="352.000" y="148.031" text-anchor="start">-1</text><text x="352.000" y="119.000" text-anchor="start">0</text><text x="352.000" y="89.969" text-anchor="start">1</text><text x="352.000" y="60.938" text-anchor="start">2</text><text x="352.000" y="31.908" text-anchor="start">3</text></g><svg xmlns="http://www.w3.org/2000/svg" width="340" height="220" x="5" y="5"><rect x="0" y="0" width="340" height="220" stroke="none" fill="#FFFFFF"></rect><g font-family="DejaVu Sans, sans-serif" font-size="8pt" text-anchor="middle"><polygon points="199.031,40.326 246.061,50.777 236.771,46.132 199.031,33.552" fill="#FFFFFF" stroke="#000000"></polygon><polygon points="199.031,50.971 216.449,54.841 199.031,49.865" fill="#009933" stroke="#000000"></polygon><polygon points="199.031,40.751 246.300,51.255 244.771,50.491 199.031,40.326" fill="#FFFFFF" stroke="#000000"></polygon><polygon points="289.265,72.737 288.549,72.021 246.061,50.777 244.771,50.491" fill="#FFFFFF" stroke="#000000"></polygon><polygon points="293.337,76.809 293.671,76.905 289.026,72.260 288.549,72.021" fill="#FFFFFF" stroke="#000000"></polygon><polygon points="199.031,49.865 293.337,76.809 289.265,72.737 246.300,51.255 199.031,40.751" fill="#FFFFFF" stroke="#000000"></polygon><polygon points="199.031,52.124 217.098,56.139 199.031,50.977" fill="#009933" stroke="#000000"></polygon><polygon points="199.031,50.977 294.320,78.203 292.763,76.645 216.449,54.841 199.031,50.971" fill="#009933" stroke="#000000"></polygon><polygon points="297.087,80.969 297.736,80.969 293.671,76.905 292.763,76.645" fill="#FFFFFF" stroke="#000000"></polygon><polygon points="199.031,63.551 259.996,80.969 297.087,80.969 294.320,78.203 217.098,56.139 199.031,52.124" fill="#009933" stroke="#000000"></polygon><polygon points="229.513,80.969 259.996,80.969 206.651,65.728" fill="#009933" stroke="#000000"></polygon><polygon points="199.031,75.744 212.095,80.969 229.513,80.969 206.651,65.728 199.031,63.551" fill="#009933" stroke="#000000"></polygon><polygon points="199.031,75.744 199.031,80.969 212.095,80.969" fill="#009933" stroke="#000000"></polygon><polygon points="103.229,173.868 140.969,186.448 140.969,179.674 93.939,169.223" fill="#FFFFFF" stroke="#000000"></polygon><polygon points="140.969,170.135 140.969,169.029 123.551,165.159" fill="#009933" stroke="#000000"></polygon><polygon points="94.112,169.261 140.969,179.674 140.969,179.617 93.907,169.159" fill="#FFFFFF" stroke="#000000"></polygon><polygon points="51.038,147.772 93.939,169.223 94.112,169.261 50.942,147.676" fill="#FFFFFF" stroke="#000000"></polygon><polygon points="50.974,147.740 51.038,147.772 46.373,143.108 46.329,143.095" fill="#FFFFFF" stroke="#000000"></polygon><polygon points="50.942,147.676 93.907,169.159 140.969,179.617 140.969,170.135 46.373,143.108" fill="#FFFFFF" stroke="#000000"></polygon><polygon points="127.525,166.042 140.969,169.029 140.969,168.768 123.404,164.864" fill="#009933" stroke="#000000"></polygon><polygon points="46.535,143.154 123.551,165.159 127.525,166.042 46.182,142.801" fill="#009933" stroke="#000000"></polygon><polygon points="46.329,143.095 46.535,143.154 42.412,139.031 42.264,139.031" fill="#FFFFFF" stroke="#000000"></polygon><polygon points="46.182,142.801 123.404,164.864 140.969,168.768 140.969,156.449 80.004,139.031 42.412,139.031" fill="#009933" stroke="#000000"></polygon><polygon points="105.714,146.376 87.350,139.031 80.004,139.031" fill="#009933" stroke="#000000"></polygon><polygon points="105.714,146.376 140.969,156.449 140.969,144.256 127.905,139.031 87.350,139.031" fill="#009933" stroke="#000000"></polygon><polygon points="127.905,139.031 140.969,144.256 140.969,139.031" fill="#009933" stroke="#000000"></polygon><polygon points="172.322,24.649 167.097,22.908 162.742,22.908" fill="#FFFFFF" stroke="#000000"></polygon><polygon points="140.969,27.658 146.775,28.714 140.969,27.423" fill="#FFFFFF" stroke="#000000"></polygon><polygon points="172.982,25.969 165.065,23.330 162.742,22.908 156.145,22.908" fill="#FFFFFF" stroke="#000000"></polygon><polygon points="199.031,34.652 199.031,33.552 172.322,24.649 165.065,23.330" fill="#FFFFFF" stroke="#000000"></polygon><polygon points="140.969,27.423 199.031,40.326 199.031,34.652 172.982,25.969 156.145,22.908 140.969,22.908" fill="#FFFFFF" stroke="#000000"></polygon><polygon points="199.031,40.561 199.031,40.326 146.775,28.714 140.969,27.658" fill="#FFFFFF" stroke="#000000"></polygon><polygon points="140.969,38.068 199.031,50.971 199.031,40.561 140.969,27.658" fill="#009933" stroke="#000000"></polygon><polygon points="140.969,38.873 199.031,51.776 199.031,50.971 140.969,38.068" fill="#009933" stroke="#000000"></polygon><polygon points="140.969,46.962 199.031,63.551 199.031,51.776 140.969,38.873" fill="#009933" stroke="#000000"></polygon><polygon points="140.969,52.906 146.775,54.841 155.485,54.841 150.259,49.616 140.969,46.962" fill="#009933" stroke="#000000"></polygon><polygon points="150.400,49.757 199.031,63.651 199.031,63.551 150.259,49.616" fill="#009933" stroke="#000000"></polygon><polygon points="161.291,60.648 199.031,75.744 199.031,63.651 150.400,49.757" fill="#009933" stroke="#000000"></polygon><polygon points="140.969,54.841 146.775,54.841 140.969,52.906" fill="#009933" stroke="#000000"></polygon><polygon points="161.901,61.258 199.031,76.110 199.031,75.744 161.291,60.648" fill="#009933" stroke="#000000"></polygon><polygon points="172.903,72.260 190.322,80.969 199.031,80.969 199.031,76.110 161.901,61.258" fill="#009933" stroke="#000000"></polygon><polygon points="181.612,80.969 190.322,80.969 172.903,72.260" fill="#009933" stroke="#000000"></polygon><polygon points="140.969,58.717 157.422,58.717 153.547,54.841 140.969,54.841" fill="#009933" stroke="#000000"></polygon><polygon points="179.675,80.969 181.612,80.969 155.485,54.841 153.547,54.841" fill="#009933" stroke="#000000"></polygon><polygon points="140.969,80.969 179.675,80.969 157.422,58.717 140.969,58.717" fill="#009933" stroke="#000000"></polygon><polygon points="172.903,197.092 177.258,197.092 167.678,195.351" fill="#FFFFFF" stroke="#000000"></polygon><polygon points="199.031,192.577 199.031,192.342 193.225,191.286" fill="#FFFFFF" stroke="#000000"></polygon><polygon points="168.540,195.507 177.258,197.092 178.042,197.092 167.599,195.194" fill="#FFFFFF" stroke="#000000"></polygon><polygon points="140.969,186.448 167.678,195.351 168.540,195.507 140.969,186.317" fill="#FFFFFF" stroke="#000000"></polygon><polygon points="140.969,186.317 167.599,195.194 178.042,197.092 199.031,197.092 199.031,192.577 140.969,179.674" fill="#FFFFFF" stroke="#000000"></polygon><polygon points="140.969,179.674 193.225,191.286 199.031,192.342 140.969,179.439" fill="#FFFFFF" stroke="#000000"></polygon><polygon points="140.969,179.439 199.031,192.342 199.031,181.932 140.969,169.029" fill="#009933" stroke="#000000"></polygon><polygon points="140.969,169.029 199.031,181.932 199.031,179.733 140.969,166.831" fill="#009933" stroke="#000000"></polygon><polygon points="140.969,166.831 199.031,179.733 199.031,173.038 140.969,156.449" fill="#009933" stroke="#000000"></polygon><polygon points="199.031,167.481 199.031,167.094 193.225,165.159" fill="#009933" stroke="#000000"></polygon><polygon points="189.741,170.384 199.031,173.038 199.031,167.481 193.225,165.159 184.515,165.159" fill="#009933" stroke="#000000"></polygon><polygon points="140.969,156.449 189.741,170.384 185.563,166.206 140.969,153.465" fill="#009933" stroke="#000000"></polygon><polygon points="140.969,153.465 185.563,166.206 178.709,159.352 140.969,144.256" fill="#009933" stroke="#000000"></polygon><polygon points="199.031,167.094 199.031,165.159 193.225,165.159" fill="#009933" stroke="#000000"></polygon><polygon points="140.969,144.256 178.709,159.352 167.097,147.740 149.678,139.031 140.969,139.031" fill="#009933" stroke="#000000"></polygon><polygon points="167.097,147.740 158.388,139.031 149.678,139.031" fill="#009933" stroke="#000000"></polygon><polygon points="184.699,165.159 199.031,165.159 199.031,164.791 184.332,164.791" fill="#009933" stroke="#000000"></polygon><polygon points="184.515,165.159 184.699,165.159 158.571,139.031 158.388,139.031" fill="#009933" stroke="#000000"></polygon><polygon points="184.332,164.791 199.031,164.791 199.031,139.031 158.571,139.031" fill="#009933" stroke="#000000"></polygon><polygon points="46.909,139.031 59.973,139.031 41.684,133.805" fill="#009933" stroke="#000000"></polygon><polygon points="24.846,121.612 42.264,139.031 46.909,139.031 24.846,116.967" fill="#FFFFFF" stroke="#000000"></polygon><polygon points="41.684,133.805 59.973,139.031 80.004,139.031 24.846,116.967" fill="#009933" stroke="#000000"></polygon><polygon points="97.423,139.031 127.905,139.031 89.802,123.790" fill="#009933" stroke="#000000"></polygon><polygon points="95.246,134.676 89.802,123.790 62.586,112.903" fill="#009933" stroke="#000000"></polygon><polygon points="24.846,116.967 80.004,139.031 82.698,139.031 24.846,115.890" fill="#009933" stroke="#000000"></polygon><polygon points="24.846,115.890 82.698,139.031 97.423,139.031 95.246,134.676 24.846,87.743" fill="#009933" stroke="#000000"></polygon><polygon points="89.802,123.790 127.905,139.031 136.615,139.031 87.625,119.435" fill="#009933" stroke="#000000"></polygon><polygon points="87.625,119.435 136.615,139.031 140.969,139.031 140.969,133.225 71.295,86.775" fill="#009933" stroke="#000000"></polygon><polygon points="67.087,114.704 89.802,123.790 88.902,121.989 61.686,111.103" fill="#009933" stroke="#000000"></polygon><polygon points="62.586,112.903 67.087,114.704 24.846,86.543 24.846,87.743" fill="#009933" stroke="#000000"></polygon><polygon points="61.686,111.103 88.902,121.989 68.392,80.969 24.846,80.969 24.846,86.543" fill="#009933" stroke="#000000"></polygon><polygon points="140.969,130.322 140.969,121.612 132.260,112.903" fill="#009933" stroke="#000000"></polygon><polygon points="70.616,85.417 72.654,86.775 114.841,86.775 103.229,80.969 68.392,80.969" fill="#009933" stroke="#000000"></polygon><polygon points="120.648,89.678 116.293,80.969 103.229,80.969" fill="#009933" stroke="#000000"></polygon><polygon points="71.295,86.775 140.969,133.225 140.969,132.319 70.616,85.417" fill="#009933" stroke="#000000"></polygon><polygon points="140.969,132.319 140.969,130.322 120.648,89.678 114.841,86.775 72.654,86.775" fill="#009933" stroke="#000000"></polygon><polygon points="118.102,84.587 118.557,85.042 140.969,85.042 140.969,80.969 116.293,80.969" fill="#009933" stroke="#000000"></polygon><polygon points="132.260,112.903 140.969,121.612 140.969,107.454 118.102,84.587" fill="#009933" stroke="#000000"></polygon><polygon points="140.969,107.454 140.969,85.042 118.557,85.042" fill="#009933" stroke="#000000"></polygon><polygon points="315.154,100.040 315.154,98.388 297.736,80.969 296.083,80.969" fill="#FFFFFF" stroke="#000000"></polygon><polygon points="315.154,103.033 315.154,100.040 296.083,80.969 259.996,80.969" fill="#009933" stroke="#000000"></polygon><polygon points="250.198,96.210 242.577,80.969 212.095,80.969" fill="#009933" stroke="#000000"></polygon><polygon points="250.198,96.210 277.414,107.097 244.754,85.324" fill="#009933" stroke="#000000"></polygon><polygon points="315.154,109.896 315.154,103.033 259.996,80.969 242.837,80.969" fill="#009933" stroke="#000000"></polygon><polygon points="244.754,85.324 315.154,132.257 315.154,109.896 242.837,80.969 242.577,80.969" fill="#009933" stroke="#000000"></polygon><polygon points="252.075,99.965 250.198,96.210 212.095,80.969 204.584,80.969" fill="#009933" stroke="#000000"></polygon><polygon points="199.031,86.775 268.705,133.225 252.075,99.965 204.584,80.969 199.031,80.969" fill="#009933" stroke="#000000"></polygon><polygon points="250.380,96.575 277.597,107.462 276.502,106.732 250.198,96.210" fill="#009933" stroke="#000000"></polygon><polygon points="315.154,132.500 315.154,132.257 277.414,107.097 276.502,106.732" fill="#009933" stroke="#000000"></polygon><polygon points="271.608,139.031 315.154,139.031 315.154,132.500 277.597,107.462 250.380,96.575" fill="#009933" stroke="#000000"></polygon><polygon points="199.031,98.388 207.740,107.097 199.031,89.678" fill="#009933" stroke="#000000"></polygon><polygon points="199.031,89.678 269.066,136.369 270.277,136.369 268.705,133.225 199.031,86.775" fill="#009933" stroke="#000000"></polygon><polygon points="232.055,139.031 271.608,139.031 270.277,136.369 226.731,136.369" fill="#009933" stroke="#000000"></polygon><polygon points="223.707,139.031 232.055,139.031 220.924,133.466" fill="#009933" stroke="#000000"></polygon><polygon points="220.924,133.466 226.731,136.369 269.066,136.369 199.031,89.678" fill="#009933" stroke="#000000"></polygon><polygon points="199.031,102.742 207.740,107.097 199.031,98.388" fill="#009933" stroke="#000000"></polygon><polygon points="199.031,116.378 221.683,139.031 223.707,139.031 207.740,107.097 199.031,102.742" fill="#009933" stroke="#000000"></polygon><polygon points="199.031,139.031 221.683,139.031 199.031,116.378" fill="#009933" stroke="#000000"></polygon><polygon points="140.969,27.658 140.969,22.908 114.841,22.908" fill="#FFFFFF" stroke="#000000"></polygon><polygon points="140.969,27.898 140.969,27.658 114.841,22.908 113.522,22.908" fill="#009933" stroke="#000000"></polygon><polygon points="140.969,38.068 140.969,27.898 113.522,22.908 72.747,22.908" fill="#009933" stroke="#000000"></polygon><polygon points="77.101,28.714 85.811,28.714 75.360,23.488 72.747,22.908 53.877,22.908" fill="#009933" stroke="#000000"></polygon><polygon points="78.865,25.241 140.969,39.042 140.969,38.068 75.360,23.488" fill="#009933" stroke="#000000"></polygon><polygon points="97.423,34.520 140.969,46.962 140.969,39.042 78.865,25.241" fill="#009933" stroke="#000000"></polygon><polygon points="68.392,28.714 77.101,28.714 53.877,22.908 50.974,22.908" fill="#009933" stroke="#000000"></polygon><polygon points="120.648,46.132 140.969,52.906 140.969,46.962 97.423,34.520" fill="#009933" stroke="#000000"></polygon><polygon points="42.264,28.714 68.392,28.714 50.974,22.908 39.361,22.908" fill="#009933" stroke="#000000"></polygon><polygon points="138.066,54.841 140.969,54.841 140.969,52.906 120.648,46.132" fill="#009933" stroke="#000000"></polygon><polygon points="42.264,28.714 39.361,22.908 24.846,22.908" fill="#009933" stroke="#000000"></polygon><polygon points="66.587,80.969 68.392,80.969 63.852,71.888 36.635,61.001" fill="#009933" stroke="#000000"></polygon><polygon points="24.846,80.969 66.587,80.969 24.846,53.142" fill="#009933" stroke="#000000"></polygon><polygon points="24.846,53.142 36.635,61.001 63.852,71.888 42.264,28.714 24.846,22.908" fill="#009933" stroke="#000000"></polygon><polygon points="91.650,31.683 137.966,54.841 138.066,54.841 91.617,31.617" fill="#009933" stroke="#000000"></polygon><polygon points="103.229,54.841 137.966,54.841 91.650,31.683" fill="#009933" stroke="#000000"></polygon><polygon points="48.515,41.215 49.096,41.215 42.845,28.714 42.264,28.714" fill="#009933" stroke="#000000"></polygon><polygon points="49.096,41.215 70.751,41.215 45.748,28.714 42.845,28.714" fill="#009933" stroke="#000000"></polygon><polygon points="55.328,54.841 56.200,55.422 99.165,55.422 70.751,41.215 48.515,41.215" fill="#009933" stroke="#000000"></polygon><polygon points="99.049,46.481 91.617,31.617 85.811,28.714 45.748,28.714" fill="#009933" stroke="#000000"></polygon><polygon points="104.971,58.325 99.049,46.481 45.748,28.714" fill="#009933" stroke="#000000"></polygon><polygon points="69.844,80.969 94.520,80.969 86.159,75.395 67.057,75.395" fill="#009933" stroke="#000000"></polygon><polygon points="68.392,80.969 69.844,80.969 57.506,56.293 55.328,54.841" fill="#009933" stroke="#000000"></polygon><polygon points="67.057,75.395 86.159,75.395 57.506,56.293" fill="#009933" stroke="#000000"></polygon><polygon points="94.520,80.969 116.293,80.969 104.971,58.325 99.165,55.422 56.200,55.422" fill="#009933" stroke="#000000"></polygon><polygon points="105.790,57.402 140.969,57.402 140.969,54.841 103.229,54.841" fill="#009933" stroke="#000000"></polygon><polygon points="116.293,80.969 129.357,80.969 103.229,54.841" fill="#009933" stroke="#000000"></polygon><polygon points="129.357,80.969 140.969,80.969 140.969,57.402 105.790,57.402" fill="#009933" stroke="#000000"></polygon><polygon points="199.031,197.092 225.159,197.092 199.031,192.342" fill="#FFFFFF" stroke="#000000"></polygon><polygon points="199.031,192.342 225.159,197.092 226.478,197.092 199.031,192.102" fill="#009933" stroke="#000000"></polygon><polygon points="199.031,192.102 226.478,197.092 267.253,197.092 199.031,181.932" fill="#009933" stroke="#000000"></polygon><polygon points="264.640,196.512 267.253,197.092 286.123,197.092 262.899,191.286 254.189,191.286" fill="#009933" stroke="#000000"></polygon><polygon points="199.031,181.932 264.640,196.512 259.617,194.000 199.031,180.536" fill="#009933" stroke="#000000"></polygon><polygon points="199.031,180.536 259.617,194.000 242.577,185.480 199.031,173.038" fill="#009933" stroke="#000000"></polygon><polygon points="286.123,197.092 289.026,197.092 271.608,191.286 262.899,191.286" fill="#009933" stroke="#000000"></polygon><polygon points="199.031,173.038 242.577,185.480 219.352,173.868 199.031,167.094" fill="#009933" stroke="#000000"></polygon><polygon points="297.736,191.286 315.154,191.286 315.154,163.291 277.455,150.725" fill="#009933" stroke="#000000"></polygon><polygon points="277.455,150.725 315.154,163.291 315.154,139.031 271.608,139.031" fill="#009933" stroke="#000000"></polygon><polygon points="289.026,197.092 315.154,197.092 315.154,191.286 271.608,191.286" fill="#009933" stroke="#000000"></polygon><polygon points="199.031,167.094 219.352,173.868 201.934,165.159 199.031,165.159" fill="#009933" stroke="#000000"></polygon><polygon points="275.750,163.707 277.927,165.159 284.672,165.159 271.608,139.031 263.411,139.031" fill="#009933" stroke="#000000"></polygon><polygon points="275.750,163.707 263.411,139.031 238.735,139.031" fill="#009933" stroke="#000000"></polygon><polygon points="236.771,165.159 277.927,165.159 238.735,139.031 223.707,139.031" fill="#009933" stroke="#000000"></polygon><polygon points="294.210,188.936 296.560,188.936 284.672,165.159 258.544,165.159" fill="#009933" stroke="#000000"></polygon><polygon points="257.715,191.286 297.736,191.286 296.560,188.936 253.014,188.936" fill="#009933" stroke="#000000"></polygon><polygon points="254.189,191.286 257.715,191.286 205.460,165.159 201.934,165.159" fill="#009933" stroke="#000000"></polygon><polygon points="253.014,188.936 294.210,188.936 258.544,165.159 205.460,165.159" fill="#009933" stroke="#000000"></polygon><polygon points="233.078,161.466 234.925,161.466 223.707,139.031 210.643,139.031" fill="#009933" stroke="#000000"></polygon><polygon points="199.031,165.159 236.771,165.159 234.925,161.466 199.031,161.466" fill="#009933" stroke="#000000"></polygon><polygon points="199.031,161.466 233.078,161.466 210.643,139.031 199.031,139.031" fill="#009933" stroke="#000000"></polygon><polygon points="199.031,33.552 236.771,46.132 199.031,27.262" fill="#CCCCCC" stroke="#000000"></polygon><polygon points="140.969,192.738 140.969,186.448 103.229,173.868" fill="#CCCCCC" stroke="#000000"></polygon><polygon points="199.031,33.552 199.031,27.262 190.322,22.908 167.097,22.908" fill="#CCCCCC" stroke="#000000"></polygon><polygon points="140.969,192.738 149.678,197.092 172.903,197.092 140.969,186.448" fill="#CCCCCC" stroke="#000000"></polygon><polygon points="199.031,27.262 289.026,72.260 239.674,22.908 199.031,22.908" fill="#CCCCCC" stroke="#000000"></polygon><polygon points="100.326,197.092 140.969,197.092 140.969,192.738 50.974,147.740" fill="#CCCCCC" stroke="#000000"></polygon><polygon points="199.031,27.262 199.031,22.908 190.322,22.908" fill="#CCCCCC" stroke="#000000"></polygon><polygon points="140.969,197.092 149.678,197.092 140.969,192.738" fill="#CCCCCC" stroke="#000000"></polygon><polygon points="24.846,139.031 42.264,139.031 24.846,121.612" fill="#CCCCCC" stroke="#000000"></polygon><polygon points="315.154,98.388 315.154,80.969 297.736,80.969" fill="#CCCCCC" stroke="#000000"></polygon><polygon points="297.736,80.969 315.154,80.969 315.154,22.908 239.674,22.908" fill="#CCCCCC" stroke="#000000"></polygon><polygon points="24.846,197.092 100.326,197.092 42.264,139.031 24.846,139.031" fill="#CCCCCC" stroke="#000000"></polygon><polygon points="140.969,139.031 199.031,139.031 199.031,80.969 140.969,80.969" fill="#009933" stroke="#000000"></polygon><polygon points="315.154,22.908 315.154,-9.026 123.551,-9.026 91.617,22.908" fill="#CCCCCC" stroke="#000000"></polygon><polygon points="315.154,130.322 390.634,54.841 419.665,-3.220 419.665,-9.026 315.154,-9.026" fill="#CCCCCC" stroke="#000000"></polygon><polygon points="24.846,229.026 216.449,229.026 248.383,197.092 24.846,197.092" fill="#CCCCCC" stroke="#000000"></polygon><polygon points="-79.665,229.026 24.846,229.026 24.846,89.678 -50.634,165.159 -79.665,223.220" fill="#CCCCCC" stroke="#000000"></polygon></g><rect x="0.5" y="0.5" width="339" height="219" stroke="#000000" stroke-width="1" fill="none"></rect></svg><g stroke="#000" stroke-width="1"><line x1="58.877" y1="221.000" x2="58.877" y2="224.500"></line><line x1="116.938" y1="221.000" x2="116.938" y2="224.500"></line><line x1="175.000" y1="221.000" x2="175.000" y2="224.500"></line><line x1="233.062" y1="221.000" x2="233.062" y2="224.500"></line><line x1="291.123" y1="221.000" x2="291.123" y2="224.500"></line><line x1="341.000" y1="202.092" x2="344.500" y2="202.092"></line><line x1="341.000" y1="173.062" x2="344.500" y2="173.062"></line><line x1="341.000" y1="144.031" x2="344.500" y2="144.031"></line><line x1="341.000" y1="115.000" x2="344.500" y2="115.000"></line><line x1="341.000" y1="85.969" x2="344.500" y2="85.969"></line><line x1="341.000" y1="56.938" x2="344.500" y2="56.938"></line><line x1="341.000" y1="27.908" x2="344.500" y2="27.908"></line></g></svg>