<svg xmlns="http://www.w3.org/2000/svg" width="385" height="275"><g font-family="DejaVu Sans, sans-serif" font-size="8pt"><text x="35.622" y="270.000" text-anchor="middle">0</text><text x="84.404" y="270.000" text-anchor="middle">0.7</text><text x="133.187" y="270.000" text-anchor="middle">1.4</text><text x="181.969" y="270.000" text-anchor="middle">2.1</text><text x="230.751" y="270.000" text-anchor="middle">2.8</text><text x="279.533" y="270.000" text-anchor="middle">3.5</text><text x="328.316" y="270.000" text-anchor="middle">4.2</text><text x="352.000" y="238.533" text-anchor="start">0</text><text x="352.000" y="210.658" text-anchor="start">0.4</text><text x="352.000" y="182.782" text-anchor="start">0.8</text><text x="352.000" y="154.907" text-anchor="start">1.2</text><text x="352.000" y="127.031" text-anchor="start">1.6</text><text x="352.000" y="99.156" text-anchor="start">2</text><text x="352.000" y="71.280" text-anchor="start">2.4</text><text x="352.000" y="43.404" text-anchor="start">2.8</text><text x="352.000" y="15.529" text-anchor="start">3.2</text></g><svg xmlns="http://www.w3.org/2000/svg" width="340" height="250" x="5" y="5"><rect x="0" y="0" width="340" height="250" stroke="none" fill="#FFFFFF"></rect><g font-family="DejaVu Sans, sans-serif" font-size="8pt" text-anchor="middle"><polygon points="147.351,138.938 166.516,138.938 166.516,125.757 147.351,125.757" fill="#009933" stroke="#000000"></polygon><polygon points="140.382,138.938 147.351,138.938 147.351,125.757 140.382,125.757" fill="#009933" stroke="#000000"></polygon><polygon points="147.351,124.506 166.516,124.506 166.516,111.062 147.351,111.062" fill="#009933" stroke="#000000"></polygon><polygon points="140.382,124.506 147.351,124.506 147.351,111.062 140.382,111.062" fill="#009933" stroke="#000000"></polygon><polygon points="173.484,138.938 192.649,138.938 192.649,137.069 173.484,137.069" fill="#009933" stroke="#000000"></polygon><polygon points="166.516,138.938 173.484,138.938 173.484,137.069 166.516,137.069" fill="#009933" stroke="#000000"></polygon><polygon points="173.484,137.069 192.649,137.069 192.649,124.556 173.484,124.556" fill="#009933" stroke="#000000"></polygon><polygon points="166.516,137.069 173.484,137.069 173.484,124.556 166.516,124.556" fill="#009933" stroke="#000000"></polygon><polygon points="173.484,124.556 192.649,124.556 192.649,111.062 173.484,111.062" fill="#009933" stroke="#000000"></polygon><polygon points="166.516,124.556 173.484,124.556 173.484,111.062 166.516,111.062" fill="#009933" stroke="#000000"></polygon><polygon points="199.618,126.334 218.782,126.334 218.782,120.537 199.618,120.537" fill="#009933" stroke="#000000"></polygon><polygon points="199.618,120.537 218.782,120.537 218.782,111.062 199.618,111.062" fill="#009933" stroke="#000000"></polygon><polygon points="199.618,138.938 218.782,138.938 218.782,126.334 199.618,126.334" fill="#009933" stroke="#000000"></polygon><polygon points="192.649,128.018 199.618,128.018 199.618,120.782 192.649,120.782" fill="#009933" stroke="#000000"></polygon><polygon points="192.649,138.938 199.618,138.938 199.618,128.018 192.649,128.018" fill="#009933" stroke="#000000"></polygon><polygon points="192.649,120.782 199.618,120.782 199.618,111.062 192.649,111.062" fill="#009933" stroke="#000000"></polygon><polygon points="304.151,217.338 309.378,217.338 309.378,138.938 304.151,138.938" fill="#009933" stroke="#000000"></polygon><polygon points="218.782,229.533 237.016,229.533 237.016,217.338 218.782,217.338" fill="#009933" stroke="#000000"></polygon><polygon points="237.016,229.533 309.378,229.533 309.378,217.338 237.016,217.338" fill="#009933" stroke="#000000"></polygon><polygon points="278.018,191.204 304.151,191.204 304.151,138.938 278.018,138.938" fill="#009933" stroke="#000000"></polygon><polygon points="288.006,217.338 304.151,217.338 304.151,191.204 288.006,191.204" fill="#009933" stroke="#000000"></polygon><polygon points="218.782,217.338 288.006,217.338 288.006,191.204 218.782,191.204" fill="#009933" stroke="#000000"></polygon><polygon points="251.884,165.071 260.172,165.071 260.172,147.607 251.884,147.607" fill="#009933" stroke="#000000"></polygon><polygon points="251.884,147.607 260.172,147.607 260.172,138.938 251.884,138.938" fill="#009933" stroke="#000000"></polygon><polygon points="260.172,165.071 278.018,165.071 278.018,138.938 260.172,138.938" fill="#009933" stroke="#000000"></polygon><polygon points="218.782,191.204 259.939,191.204 259.939,165.071 218.782,165.071" fill="#009933" stroke="#000000"></polygon><polygon points="259.939,191.204 278.018,191.204 278.018,165.071 259.939,165.071" fill="#009933" stroke="#000000"></polygon><polygon points="225.751,140.905 251.884,140.905 251.884,138.938 225.751,138.938" fill="#009933" stroke="#000000"></polygon><polygon points="225.751,152.876 251.884,152.876 251.884,140.905 225.751,140.905" fill="#009933" stroke="#000000"></polygon><polygon points="225.751,165.071 251.884,165.071 251.884,152.876 225.751,152.876" fill="#009933" stroke="#000000"></polygon><polygon points="218.782,152.556 225.751,152.556 225.751,138.938 218.782,138.938" fill="#009933" stroke="#000000"></polygon><polygon points="218.782,165.071 225.751,165.071 225.751,152.556 218.782,152.556" fill="#009933" stroke="#000000"></polygon><polygon points="218.782,32.662 225.751,32.662 225.751,20.467 218.782,20.467" fill="#009933" stroke="#000000"></polygon><polygon points="225.751,32.662 251.884,32.662 251.884,20.467 225.751,20.467" fill="#009933" stroke="#000000"></polygon><polygon points="251.884,32.662 278.018,32.662 278.018,20.467 251.884,20.467" fill="#009933" stroke="#000000"></polygon><polygon points="278.018,32.662 304.151,32.662 304.151,20.467 278.018,20.467" fill="#009933" stroke="#000000"></polygon><polygon points="304.151,111.062 309.378,111.062 309.378,20.467 304.151,20.467" fill="#009933" stroke="#000000"></polygon><polygon points="218.782,58.796 225.751,58.796 225.751,32.662 218.782,32.662" fill="#009933" stroke="#000000"></polygon><polygon points="225.751,58.796 251.884,58.796 251.884,32.662 225.751,32.662" fill="#009933" stroke="#000000"></polygon><polygon points="251.884,58.796 278.018,58.796 278.018,32.662 251.884,32.662" fill="#009933" stroke="#000000"></polygon><polygon points="278.018,111.062 304.151,111.062 304.151,32.662 278.018,32.662" fill="#009933" stroke="#000000"></polygon><polygon points="218.782,84.929 225.751,84.929 225.751,58.796 218.782,58.796" fill="#009933" stroke="#000000"></polygon><polygon points="225.751,84.929 232.996,84.929 232.996,58.796 225.751,58.796" fill="#009933" stroke="#000000"></polygon><polygon points="232.996,84.929 251.884,84.929 251.884,58.796 232.996,58.796" fill="#009933" stroke="#000000"></polygon><polygon points="260.596,72.920 278.018,72.920 278.018,58.796 260.596,58.796" fill="#009933" stroke="#000000"></polygon><polygon points="251.884,99.053 260.596,99.053 260.596,58.796 251.884,58.796" fill="#009933" stroke="#000000"></polygon><polygon points="260.596,99.053 278.018,99.053 278.018,72.920 260.596,72.920" fill="#009933" stroke="#000000"></polygon><polygon points="251.884,111.062 278.018,111.062 278.018,99.053 251.884,99.053" fill="#009933" stroke="#000000"></polygon><polygon points="225.751,98.089 251.884,98.089 251.884,97.124 225.751,97.124" fill="#009933" stroke="#000000"></polygon><polygon points="225.751,111.062 251.884,111.062 251.884,98.089 225.751,98.089" fill="#009933" stroke="#000000"></polygon><polygon points="225.751,97.124 251.884,97.124 251.884,84.929 225.751,84.929" fill="#009933" stroke="#000000"></polygon><polygon points="218.782,111.062 225.751,111.062 225.751,97.770 218.782,97.770" fill="#009933" stroke="#000000"></polygon><polygon points="218.782,97.770 225.751,97.770 225.751,84.929 218.782,84.929" fill="#009933" stroke="#000000"></polygon><polygon points="304.151,138.938 309.378,138.938 309.378,111.062 304.151,111.062" fill="#009933" stroke="#000000"></polygon><polygon points="278.018,138.938 304.151,138.938 304.151,111.062 278.018,111.062" fill="#009933" stroke="#000000"></polygon><polygon points="251.884,138.938 259.123,138.938 259.123,114.930 251.884,114.930" fill="#009933" stroke="#000000"></polygon><polygon points="251.884,114.930 259.123,114.930 259.123,111.062 251.884,111.062" fill="#009933" stroke="#000000"></polygon><polygon points="259.123,138.938 278.018,138.938 278.018,111.062 259.123,111.062" fill="#009933" stroke="#000000"></polygon><polygon points="225.751,114.821 251.884,114.821 251.884,111.062 225.751,111.062" fill="#009933" stroke="#000000"></polygon><polygon points="225.751,128.593 251.884,128.593 251.884,114.821 225.751,114.821" fill="#009933" stroke="#000000"></polygon><polygon points="225.751,138.938 251.884,138.938 251.884,128.593 225.751,128.593" fill="#009933" stroke="#000000"></polygon><polygon points="218.782,126.731 225.751,126.731 225.751,118.291 218.782,118.291" fill="#009933" stroke="#000000"></polygon><polygon points="218.782,138.938 225.751,138.938 225.751,126.731 218.782,126.731" fill="#009933" stroke="#000000"></polygon><polygon points="218.782,118.291 225.751,118.291 225.751,111.062 218.782,111.062" fill="#009933" stroke="#000000"></polygon><polygon points="121.218,126.050 140.382,126.050 140.382,119.794 121.218,119.794" fill="#009933" stroke="#000000"></polygon><polygon points="121.218,138.938 140.382,138.938 140.382,126.050 121.218,126.050" fill="#009933" stroke="#000000"></polygon><polygon points="121.218,119.794 140.382,119.794 140.382,111.062 121.218,111.062" fill="#009933" stroke="#000000"></polygon><polygon points="140.382,125.757 166.516,125.757 166.516,124.506 140.382,124.506" fill="#009933" stroke="#000000"></polygon><polygon points="114.249,229.533 121.218,229.533 121.218,217.338 114.249,217.338" fill="#009933" stroke="#000000"></polygon><polygon points="88.116,229.533 114.249,229.533 114.249,217.338 88.116,217.338" fill="#009933" stroke="#000000"></polygon><polygon points="61.982,229.533 88.116,229.533 88.116,217.338 61.982,217.338" fill="#009933" stroke="#000000"></polygon><polygon points="35.849,229.533 61.982,229.533 61.982,217.338 35.849,217.338" fill="#009933" stroke="#000000"></polygon><polygon points="30.622,229.533 35.849,229.533 35.849,138.938 30.622,138.938" fill="#009933" stroke="#000000"></polygon><polygon points="114.249,217.338 121.218,217.338 121.218,191.204 114.249,191.204" fill="#009933" stroke="#000000"></polygon><polygon points="88.116,217.338 114.249,217.338 114.249,191.204 88.116,191.204" fill="#009933" stroke="#000000"></polygon><polygon points="61.982,217.338 88.116,217.338 88.116,191.204 61.982,191.204" fill="#009933" stroke="#000000"></polygon><polygon points="35.849,217.338 61.982,217.338 61.982,138.938 35.849,138.938" fill="#009933" stroke="#000000"></polygon><polygon points="114.249,191.204 121.218,191.204 121.218,165.071 114.249,165.071" fill="#009933" stroke="#000000"></polygon><polygon points="100.338,191.204 114.249,191.204 114.249,165.071 100.338,165.071" fill="#009933" stroke="#000000"></polygon><polygon points="88.116,191.204 100.338,191.204 100.338,165.071 88.116,165.071" fill="#009933" stroke="#000000"></polygon><polygon points="61.982,191.204 71.382,191.204 71.382,138.938 61.982,138.938" fill="#009933" stroke="#000000"></polygon><polygon points="71.382,191.204 88.116,191.204 88.116,138.938 71.382,138.938" fill="#009933" stroke="#000000"></polygon><polygon points="88.116,139.566 114.249,139.566 114.249,138.938 88.116,138.938" fill="#009933" stroke="#000000"></polygon><polygon points="88.116,152.876 114.249,152.876 114.249,139.566 88.116,139.566" fill="#009933" stroke="#000000"></polygon><polygon points="88.116,165.071 114.249,165.071 114.249,152.876 88.116,152.876" fill="#009933" stroke="#000000"></polygon><polygon points="114.249,143.588 121.218,143.588 121.218,138.938 114.249,138.938" fill="#009933" stroke="#000000"></polygon><polygon points="114.249,152.876 121.218,152.876 121.218,143.588 114.249,143.588" fill="#009933" stroke="#000000"></polygon><polygon points="114.249,165.071 121.218,165.071 121.218,152.876 114.249,152.876" fill="#009933" stroke="#000000"></polygon><polygon points="97.572,32.662 121.218,32.662 121.218,20.467 97.572,20.467" fill="#009933" stroke="#000000"></polygon><polygon points="35.849,32.662 97.572,32.662 97.572,20.467 35.849,20.467" fill="#009933" stroke="#000000"></polygon><polygon points="30.622,111.062 35.849,111.062 35.849,20.467 30.622,20.467" fill="#009933" stroke="#000000"></polygon><polygon points="61.982,58.796 88.116,58.796 88.116,32.662 61.982,32.662" fill="#009933" stroke="#000000"></polygon><polygon points="88.116,58.796 114.249,58.796 114.249,32.662 88.116,32.662" fill="#009933" stroke="#000000"></polygon><polygon points="114.249,58.796 121.218,58.796 121.218,32.662 114.249,32.662" fill="#009933" stroke="#000000"></polygon><polygon points="35.849,111.062 61.982,111.062 61.982,32.662 35.849,32.662" fill="#009933" stroke="#000000"></polygon><polygon points="107.233,83.861 114.249,83.861 114.249,58.796 107.233,58.796" fill="#009933" stroke="#000000"></polygon><polygon points="107.233,84.929 114.249,84.929 114.249,83.861 107.233,83.861" fill="#009933" stroke="#000000"></polygon><polygon points="88.116,84.929 107.233,84.929 107.233,58.796 88.116,58.796" fill="#009933" stroke="#000000"></polygon><polygon points="114.249,84.929 121.218,84.929 121.218,58.796 114.249,58.796" fill="#009933" stroke="#000000"></polygon><polygon points="80.247,84.929 88.116,84.929 88.116,58.796 80.247,58.796" fill="#009933" stroke="#000000"></polygon><polygon points="80.247,111.062 88.116,111.062 88.116,97.124 80.247,97.124" fill="#009933" stroke="#000000"></polygon><polygon points="80.247,97.124 88.116,97.124 88.116,84.929 80.247,84.929" fill="#009933" stroke="#000000"></polygon><polygon points="61.982,111.062 80.247,111.062 80.247,58.796 61.982,58.796" fill="#009933" stroke="#000000"></polygon><polygon points="88.116,101.535 114.249,101.535 114.249,97.124 88.116,97.124" fill="#009933" stroke="#000000"></polygon><polygon points="88.116,97.124 114.249,97.124 114.249,84.929 88.116,84.929" fill="#009933" stroke="#000000"></polygon><polygon points="88.116,111.062 114.249,111.062 114.249,101.535 88.116,101.535" fill="#009933" stroke="#000000"></polygon><polygon points="114.249,97.569 121.218,97.569 121.218,97.124 114.249,97.124" fill="#009933" stroke="#000000"></polygon><polygon points="114.249,111.062 121.218,111.062 121.218,97.569 114.249,97.569" fill="#009933" stroke="#000000"></polygon><polygon points="114.249,97.124 121.218,97.124 121.218,84.929 114.249,84.929" fill="#009933" stroke="#000000"></polygon><polygon points="30.622,138.938 35.849,138.938 35.849,111.062 30.622,111.062" fill="#009933" stroke="#000000"></polygon><polygon points="35.849,138.938 61.982,138.938 61.982,111.062 35.849,111.062" fill="#009933" stroke="#000000"></polygon><polygon points="79.404,130.654 88.116,130.654 88.116,111.062 79.404,111.062" fill="#009933" stroke="#000000"></polygon><polygon points="79.404,138.938 88.116,138.938 88.116,130.654 79.404,130.654" fill="#009933" stroke="#000000"></polygon><polygon points="61.982,138.938 79.404,138.938 79.404,111.062 61.982,111.062" fill="#009933" stroke="#000000"></polygon><polygon points="88.116,117.127 114.249,117.127 114.249,111.062 88.116,111.062" fill="#009933" stroke="#000000"></polygon><polygon points="88.116,130.760 114.249,130.760 114.249,117.127 88.116,117.127" fill="#009933" stroke="#000000"></polygon><polygon points="88.116,138.938 114.249,138.938 114.249,130.760 88.116,130.760" fill="#009933" stroke="#000000"></polygon><polygon points="114.249,128.222 121.218,128.222 121.218,123.775 114.249,123.775" fill="#009933" stroke="#000000"></polygon><polygon points="114.249,123.775 121.218,123.775 121.218,111.062 114.249,111.062" fill="#009933" stroke="#000000"></polygon><polygon points="114.249,138.938 121.218,138.938 121.218,128.222 114.249,128.222" fill="#009933" stroke="#000000"></polygon><polygon points="121.218,229.533 218.782,229.533 218.782,138.938 121.218,138.938" fill="#CCCCCC" stroke="#000000"></polygon><polygon points="121.218,111.062 218.782,111.062 218.782,20.467 121.218,20.467" fill="#CCCCCC" stroke="#000000"></polygon><polygon points="30.622,20.467 309.378,20.467 309.378,-21.347 30.622,-21.347" fill="#CCCCCC" stroke="#000000"></polygon><polygon points="309.378,229.533 351.191,229.533 351.191,-21.347 309.378,-21.347" fill="#CCCCCC" stroke="#000000"></polygon><polygon points="30.622,271.347 351.191,271.347 351.191,229.533 30.622,229.533" fill="#CCCCCC" stroke="#000000"></polygon><polygon points="-11.191,271.347 30.622,271.347 30.622,-21.347 -11.191,-21.347" fill="#CCCCCC" stroke="#000000"></polygon></g><g stroke="#000" stroke-width="1" fill="#000"></g><rect x="0.5" y="0.5" width="339" height="249" stroke="#000000" stroke-width="1" fill="none"></rect></svg><g stroke="#000" stroke-width="1"><line x1="35.622" y1="251.000" x2="35.622" y2="254.500"></line><line x1="84.404" y1="251.000" x2="84.404" y2="254.500"></line><line x1="133.187" y1="251.000" x2="133.187" y2="254.500"></line><line x1="181.969" y1="251.000" x2="181.969" y2="254.500"></line><line x1="230.751" y1="251.000" x2="230.751" y2="254.500"></line><line x1="279.533" y1="251.000" x2="279.533" y2="254.500"></line><line x1="328.316" y1="251.000" x2="328.316" y2="254.500"></line><line x1="341.000" y1="234.533" x2="344.500" y2="234.533"></line><line x1="341.000" y1="206.658" x2="344.500" y2="206.658"></line><line x1="341.000" y1="178.782" x2="344.500" y2="178.782"></line><line x1="341.000" y1="150.907" x2="344.500" y2="150.907"></line><line x1="341.000" y1="123.031" x2="344.500" y2="123.031"></line><line x1="341.000" y1="95.156" x2="344.500" y2="95.156"></line><line x1="341.000" y1="67.280" x2="344.500" y2="67.280"></line><line x1="341.000" y1="39.404" x2="344.500" y2="39.404"></line><line x1="341.000" y1="11.529" x2="344.500" y2="11.529"></line></g></svg>