<svg xmlns="http://www.w3.org/2000/svg" width="345" height="225"><g font-family="DejaVu Sans, sans-serif" font-size="8pt"><text x="38.640" y="220.000" text-anchor="middle">-3.5</text><text x="87.123" y="220.000" text-anchor="middle">-3</text><text x="135.607" y="220.000" text-anchor="middle">-2.5</text><text x="184.090" y="220.000" text-anchor="middle">-2</text><text x="232.573" y="220.000" text-anchor="middle">-1.5</text><text x="281.056" y="220.000" text-anchor="middle">-1</text><text x="312.000" y="201.118" text-anchor="start">-1.5</text><text x="312.000" y="172.028" text-anchor="start">-1.2</text><text x="312.000" y="142.938" text-anchor="start">-0.9</text><text x="312.000" y="113.848" text-anchor="start">-0.6</text><text x="312.000" y="84.758" text-anchor="start">-0.3</text><text x="312.000" y="55.668" text-anchor="start">0</text><text x="312.000" y="26.578" text-anchor="start">0.3</text></g><svg xmlns="http://www.w3.org/2000/svg" width="300" height="200" x="5" y="5"><rect x="0" y="0" width="300" height="200" stroke="none" fill="#FFFFFF"></rect><g font-family="DejaVu Sans, sans-serif" font-size="8pt" text-anchor="middle"><polygon points="179.090,269.691 276.056,302.014 276.056,294.741 135.455,247.874" fill="#FFFFFF" stroke="#000000"></polygon><polygon points="-19.691,175.149 150.000,259.995 179.090,269.691 -29.388,165.452" fill="#FFFFFF" stroke="#000000"></polygon><polygon points="-24.540,172.725 -19.691,175.149 -51.206,143.635 -53.630,143.635" fill="#FFFFFF" stroke="#000000"></polygon><polygon points="135.455,247.874 276.056,294.741 276.056,267.537 93.759,227.026" fill="#FFFFFF" stroke="#000000"></polygon><polygon points="276.056,237.831 276.056,233.060 200.907,216.360" fill="#FFFFFF" stroke="#000000"></polygon><polygon points="-29.388,165.452 93.759,227.026 276.056,267.537 276.056,237.831 -50.236,144.605" fill="#FFFFFF" stroke="#000000"></polygon><polygon points="-50.236,144.605 200.907,216.360 276.056,233.060 276.056,193.503 101.517,143.635 -51.206,143.635" fill="#FFFFFF" stroke="#000000"></polygon><polygon points="276.056,193.503 276.056,155.271 246.967,143.635 101.517,143.635" fill="#FFFFFF" stroke="#000000"></polygon><polygon points="246.967,143.635 276.056,155.271 276.056,143.635" fill="#ffffff" stroke="#000000"></polygon><polygon points="276.056,302.014 382.720,337.568 404.537,337.568 276.056,294.741" fill="#ffffff" stroke="#000000"></polygon><polygon points="382.720,330.295 411.810,337.568 469.989,337.568 469.989,336.686 320.176,309.448" fill="#FFFFFF" stroke="#000000"></polygon><polygon points="469.989,310.633 469.989,308.478 416.658,298.781" fill="#FFFFFF" stroke="#000000"></polygon><polygon points="276.056,294.741 320.176,309.448 469.989,336.686 469.989,310.633 276.056,267.537" fill="#FFFFFF" stroke="#000000"></polygon><polygon points="276.056,267.537 416.658,298.781 469.989,308.478 469.989,276.156 276.056,233.060" fill="#FFFFFF" stroke="#000000"></polygon><polygon points="276.056,233.060 469.989,276.156 469.989,248.913 276.056,193.503" fill="#FFFFFF" stroke="#000000"></polygon><polygon points="469.989,232.844 469.989,230.097 457.869,226.056 453.020,226.056" fill="#FFFFFF" stroke="#000000"></polygon><polygon points="430.718,237.692 469.989,248.913 469.989,232.844 453.020,226.056 419.082,226.056" fill="#FFFFFF" stroke="#000000"></polygon><polygon points="276.056,193.503 430.718,237.692 396.457,203.431 276.056,155.271" fill="#FFFFFF" stroke="#000000"></polygon><polygon points="469.989,230.097 469.989,226.056 457.869,226.056" fill="#FFFFFF" stroke="#000000"></polygon><polygon points="276.056,155.271 396.457,203.431 358.478,165.452 314.843,143.635 276.056,143.635" fill="#FFFFFF" stroke="#000000"></polygon><polygon points="358.478,165.452 336.661,143.635 314.843,143.635" fill="#FFFFFF" stroke="#000000"></polygon><polygon points="419.082,226.056 469.989,226.056 469.989,143.635 336.661,143.635" fill="#ffffff" stroke="#000000"></polygon><polygon points="-111.810,85.455 -53.630,143.635 -51.206,143.635 -111.810,83.031" fill="#FFFFFF" stroke="#000000"></polygon><polygon points="91.820,143.635 101.517,143.635 67.578,133.938" fill="#FFFFFF" stroke="#000000"></polygon><polygon points="-111.810,83.031 -51.206,143.635 91.820,143.635 -111.810,62.183" fill="#FFFFFF" stroke="#000000"></polygon><polygon points="135.455,143.635 246.967,143.635 107.577,87.879" fill="#FFFFFF" stroke="#000000"></polygon><polygon points="125.758,124.242 107.577,87.879 16.671,51.517" fill="#FFFFFF" stroke="#000000"></polygon><polygon points="-111.810,62.183 67.578,133.938 101.517,143.635 135.455,143.635 125.758,124.242 -111.810,-34.137" fill="#FFFFFF" stroke="#000000"></polygon><polygon points="107.577,87.879 246.967,143.635 276.056,143.635 276.056,121.009 48.185,-30.905" fill="#FFFFFF" stroke="#000000"></polygon><polygon points="-111.810,-34.137 16.671,51.517 107.577,87.879 38.489,-50.298 -111.810,-50.298" fill="#FFFFFF" stroke="#000000"></polygon><polygon points="276.056,114.545 276.056,83.031 244.542,51.517" fill="#FFFFFF" stroke="#000000"></polygon><polygon points="217.453,-2.662 193.635,-50.298 74.545,-50.298" fill="#FFFFFF" stroke="#000000"></polygon><polygon points="48.185,-30.905 276.056,121.009 276.056,114.545 217.453,-2.662 74.545,-50.298 38.489,-50.298" fill="#FFFFFF" stroke="#000000"></polygon><polygon points="244.542,51.517 276.056,83.031 276.056,36.025 197.536,-42.496" fill="#FFFFFF" stroke="#000000"></polygon><polygon points="197.536,-42.496 276.056,36.025 276.056,-50.298 193.635,-50.298" fill="#ffffff" stroke="#000000"></polygon><polygon points="276.056,323.023 276.056,302.014 150.000,259.995" fill="#cccccc" stroke="#000000"></polygon><polygon points="276.056,323.023 305.146,337.568 382.720,337.568 276.056,302.014" fill="#cccccc" stroke="#000000"></polygon><polygon points="140.303,337.568 276.056,337.568 276.056,323.023 -24.540,172.725" fill="#cccccc" stroke="#000000"></polygon><polygon points="276.056,337.568 305.146,337.568 276.056,323.023" fill="#cccccc" stroke="#000000"></polygon><polygon points="-111.810,143.635 -53.630,143.635 -111.810,85.455" fill="#cccccc" stroke="#000000"></polygon><polygon points="-111.810,337.568 140.303,337.568 -53.630,143.635 -111.810,143.635" fill="#cccccc" stroke="#000000"></polygon><polygon points="276.056,143.635 469.989,143.635 469.989,-50.298 276.056,-50.298" fill="#009933" stroke="#000000"></polygon><polygon points="-111.810,444.231 528.169,444.231 634.833,337.568 -111.810,337.568" fill="#cccccc" stroke="#000000"></polygon><polygon points="-460.889,444.231 -111.810,444.231 -111.810,-21.208 -363.923,230.905 -460.889,424.838" fill="#cccccc" stroke="#000000"></polygon></g><rect x="0.5" y="0.5" width="299" height="199" stroke="#000000" stroke-width="1" fill="none"></rect></svg><g stroke="#000" stroke-width="1"><line x1="38.640" y1="201.000" x2="38.640" y2="204.500"></line><line x1="87.123" y1="201.000" x2="87.123" y2="204.500"></line><line x1="135.607" y1="201.000" x2="135.607" y2="204.500"></line><line x1="184.090" y1="201.000" x2="184.090" y2="204.500"></line><line x1="232.573" y1="201.000" x2="232.573" y2="204.500"></line><line x1="281.056" y1="201.000" x2="281.056" y2="204.500"></line><line x1="301.000" y1="197.118" x2="304.500" y2="197.118"></line><line x1="301.000" y1="168.028" x2="304.500" y2="168.028"></line><line x1="301.000" y1="138.938" x2="304.500" y2="138.938"></line><line x1="301.000" y1="109.848" x2="304.500" y2="109.848"></line><line x1="301.000" y1="80.758" x2="304.500" y2="80.758"></line><line x1="301.000" y1="51.668" x2="304.500" y2="51.668"></line><line x1="301.000" y1="22.578" x2="304.500" y2="22.578"></line></g></svg>