<svg xmlns="http://www.w3.org/2000/svg" width="595" height="315"><g font-family="DejaVu Sans, sans-serif" font-size="8pt"><text x="41.240" y="310.000" text-anchor="middle">-8</text><text x="100.930" y="310.000" text-anchor="middle">-6</text><text x="160.620" y="310.000" text-anchor="middle">-4</text><text x="220.310" y="310.000" text-anchor="middle">-2</text><text x="280.000" y="310.000" text-anchor="middle">0</text><text x="339.690" y="310.000" text-anchor="middle">2</text><text x="399.380" y="310.000" text-anchor="middle">4</text><text x="459.070" y="310.000" text-anchor="middle">6</text><text x="518.760" y="310.000" text-anchor="middle">8</text><text x="562.000" y="273.380" text-anchor="start">-4</text><text x="562.000" y="243.535" text-anchor="start">-3</text><text x="562.000" y="213.690" text-anchor="start">-2</text><text x="562.000" y="183.845" text-anchor="start">-1</text><text x="562.000" y="154.000" text-anchor="start">0</text><text x="562.000" y="124.155" text-anchor="start">1</text><text x="562.000" y="94.310" text-anchor="start">2</text><text x="562.000" y="64.465" text-anchor="start">3</text><text x="562.000" y="34.620" text-anchor="start">4</text></g><svg xmlns="http://www.w3.org/2000/svg" width="550" height="290" x="5" y="5"><rect x="0" y="0" width="550" height="290" stroke="none" fill="#FFFFFF"></rect><g font-family="DejaVu Sans, sans-serif" font-size="8pt" text-anchor="middle"><polygon points="304.845,68.647 348.120,83.072 334.690,76.357 304.845,66.408" fill="#FFFFFF" stroke="#000000"></polygon><polygon points="398.857,108.440 395.872,105.455 343.643,79.341 334.690,76.357" fill="#FFFFFF" stroke="#000000"></polygon><polygon points="405.572,115.155 406.318,115.155 397.364,106.202 395.872,105.455" fill="#FFFFFF" stroke="#000000"></polygon><polygon points="304.845,77.020 360.953,89.488 348.120,83.072 304.845,68.647" fill="#f9face" stroke="#000000"></polygon><polygon points="304.845,87.631 327.975,92.771 304.845,86.163" fill="#f2f4b1" stroke="#000000"></polygon><polygon points="304.845,86.163 405.273,114.857 398.857,108.440 360.953,89.488 304.845,77.020" fill="#f2f4b1" stroke="#000000"></polygon><polygon points="304.845,99.806 358.566,115.155 405.572,115.155 405.273,114.857 327.975,92.771 304.845,87.631" fill="#ddeb98" stroke="#000000"></polygon><polygon points="304.845,111.574 313.798,115.155 358.566,115.155 304.845,99.806" fill="#c9e27f" stroke="#000000"></polygon><polygon points="304.845,111.574 304.845,115.155 313.798,115.155" fill="#add15a" stroke="#000000"></polygon><polygon points="215.310,213.643 245.155,223.592 245.155,221.353 201.880,206.928" fill="#FFFFFF" stroke="#000000"></polygon><polygon points="154.128,184.545 206.357,210.659 215.310,213.643 151.143,181.560" fill="#ffffff" stroke="#000000"></polygon><polygon points="152.636,183.798 154.128,184.545 144.428,174.845 143.682,174.845" fill="#ffffff" stroke="#000000"></polygon><polygon points="201.880,206.928 245.155,221.353 245.155,212.980 189.047,200.512" fill="#f9face" stroke="#000000"></polygon><polygon points="245.155,203.837 245.155,202.369 222.025,197.229" fill="#f2f4b1" stroke="#000000"></polygon><polygon points="151.143,181.560 189.047,200.512 245.155,212.980 245.155,203.837 144.727,175.143" fill="#f2f4b1" stroke="#000000"></polygon><polygon points="144.727,175.143 222.025,197.229 245.155,202.369 245.155,190.194 191.434,174.845 144.428,174.845" fill="#ddeb98" stroke="#000000"></polygon><polygon points="245.155,190.194 245.155,178.426 236.202,174.845 191.434,174.845" fill="#c9e27f" stroke="#000000"></polygon><polygon points="236.202,174.845 245.155,178.426 245.155,174.845" fill="#add15a" stroke="#000000"></polygon><polygon points="272.016,57.703 265.300,55.465 263.062,55.465" fill="#ffffff" stroke="#000000"></polygon><polygon points="304.845,68.647 304.845,66.408 272.016,55.465 265.300,55.465" fill="#ffffff" stroke="#000000"></polygon><polygon points="245.155,55.736 291.266,64.120 272.016,57.703 263.062,55.465 245.155,55.465" fill="#ffffec" stroke="#000000"></polygon><polygon points="245.155,64.419 261.570,67.403 245.155,63.755" fill="#f9face" stroke="#000000"></polygon><polygon points="245.155,63.755 304.845,77.020 304.845,68.647 291.266,64.120 245.155,55.736" fill="#f9face" stroke="#000000"></polygon><polygon points="245.155,74.367 304.845,87.631 304.845,77.020 261.570,67.403 245.155,64.419" fill="#f2f4b1" stroke="#000000"></polygon><polygon points="245.155,82.752 304.845,99.806 304.845,87.631 245.155,74.367" fill="#ddeb98" stroke="#000000"></polygon><polygon points="245.155,88.543 248.886,89.787 260.824,89.787 257.242,86.205 245.155,82.752" fill="#c9e27f" stroke="#000000"></polygon><polygon points="267.787,96.751 304.845,111.574 304.845,99.806 257.242,86.205" fill="#c9e27f" stroke="#000000"></polygon><polygon points="245.155,89.787 248.886,89.787 245.155,88.543" fill="#add15a" stroke="#000000"></polygon><polygon points="279.477,108.440 292.907,115.155 304.845,115.155 304.845,111.574 267.787,96.751" fill="#add15a" stroke="#000000"></polygon><polygon points="286.192,115.155 292.907,115.155 279.477,108.440" fill="#91c035" stroke="#000000"></polygon><polygon points="245.155,115.155 286.192,115.155 260.824,89.787 245.155,89.787" fill="#48ad34" stroke="#000000"></polygon><polygon points="284.700,234.535 286.938,234.535 277.984,232.297" fill="#ffffff" stroke="#000000"></polygon><polygon points="245.155,223.592 277.984,234.535 284.700,234.535 245.155,221.353" fill="#ffffff" stroke="#000000"></polygon><polygon points="277.984,232.297 286.938,234.535 304.845,234.535 304.845,234.264 258.734,225.880" fill="#ffffec" stroke="#000000"></polygon><polygon points="304.845,226.245 304.845,225.581 288.430,222.597" fill="#f9face" stroke="#000000"></polygon><polygon points="245.155,221.353 258.734,225.880 304.845,234.264 304.845,226.245 245.155,212.980" fill="#f9face" stroke="#000000"></polygon><polygon points="245.155,212.980 288.430,222.597 304.845,225.581 304.845,215.633 245.155,202.369" fill="#f2f4b1" stroke="#000000"></polygon><polygon points="245.155,202.369 304.845,215.633 304.845,207.248 245.155,190.194" fill="#ddeb98" stroke="#000000"></polygon><polygon points="304.845,202.302 304.845,201.457 301.114,200.213 299.622,200.213" fill="#c9e27f" stroke="#000000"></polygon><polygon points="292.758,203.795 304.845,207.248 304.845,202.302 299.622,200.213 289.176,200.213" fill="#c9e27f" stroke="#000000"></polygon><polygon points="245.155,190.194 292.758,203.795 282.213,193.249 245.155,178.426" fill="#c9e27f" stroke="#000000"></polygon><polygon points="304.845,201.457 304.845,200.213 301.114,200.213" fill="#91c035" stroke="#000000"></polygon><polygon points="245.155,178.426 282.213,193.249 270.523,181.560 257.093,174.845 245.155,174.845" fill="#add15a" stroke="#000000"></polygon><polygon points="270.523,181.560 263.808,174.845 257.093,174.845" fill="#91c035" stroke="#000000"></polygon><polygon points="289.176,200.213 304.845,200.213 304.845,174.845 263.808,174.845" fill="#47aa33" stroke="#000000"></polygon><polygon points="125.775,156.938 143.682,174.845 144.428,174.845 125.775,156.192" fill="#ffffff" stroke="#000000"></polygon><polygon points="188.450,174.845 191.434,174.845 180.988,171.860" fill="#ddeb98" stroke="#000000"></polygon><polygon points="125.775,156.192 144.428,174.845 188.450,174.845 125.775,149.775" fill="#ddeb98" stroke="#000000"></polygon><polygon points="201.880,174.845 236.202,174.845 193.299,157.684" fill="#c9e27f" stroke="#000000"></polygon><polygon points="198.895,168.876 193.299,157.684 165.320,146.492" fill="#c9e27f" stroke="#000000"></polygon><polygon points="125.775,149.775 180.988,171.860 191.434,174.845 201.880,174.845 198.895,168.876 125.775,120.129" fill="#c9e27f" stroke="#000000"></polygon><polygon points="193.299,157.684 236.202,174.845 245.155,174.845 245.155,167.881 175.019,121.124" fill="#add15a" stroke="#000000"></polygon><polygon points="125.775,120.129 165.320,146.492 193.299,157.684 172.035,115.155 125.775,115.155" fill="#add15a" stroke="#000000"></polygon><polygon points="245.155,165.891 245.155,156.192 235.455,146.492" fill="#91c035" stroke="#000000"></polygon><polygon points="175.019,121.124 245.155,167.881 245.155,165.891 219.787,115.155 172.035,115.155" fill="#91c035" stroke="#000000"></polygon><polygon points="235.455,146.492 245.155,156.192 245.155,115.155 219.787,115.155" fill="#48ad34" stroke="#000000"></polygon><polygon points="424.225,133.808 424.225,133.062 406.318,115.155 405.572,115.155" fill="#FFFFFF" stroke="#000000"></polygon><polygon points="369.012,118.140 361.550,115.155 358.566,115.155" fill="#ddeb98" stroke="#000000"></polygon><polygon points="424.225,140.225 424.225,133.808 405.572,115.155 361.550,115.155" fill="#ddeb98" stroke="#000000"></polygon><polygon points="356.701,132.316 348.120,115.155 313.798,115.155" fill="#c9e27f" stroke="#000000"></polygon><polygon points="356.701,132.316 384.680,143.508 351.105,121.124" fill="#c8e17f" stroke="#000000"></polygon><polygon points="351.105,121.124 424.225,169.871 424.225,140.225 369.012,118.140 358.566,115.155 348.120,115.155" fill="#c9e27f" stroke="#000000"></polygon><polygon points="304.845,122.119 374.981,168.876 356.701,132.316 313.798,115.155 304.845,115.155" fill="#add15a" stroke="#000000"></polygon><polygon points="377.965,174.845 424.225,174.845 424.225,169.871 384.680,143.508 356.701,132.316" fill="#add15a" stroke="#000000"></polygon><polygon points="304.845,133.808 314.545,143.508 304.845,124.109" fill="#91c035" stroke="#000000"></polygon><polygon points="304.845,124.109 330.213,174.845 377.965,174.845 374.981,168.876 304.845,122.119" fill="#91c035" stroke="#000000"></polygon><polygon points="304.845,174.845 330.213,174.845 314.545,143.508 304.845,133.808" fill="#48ad34" stroke="#000000"></polygon><polygon points="245.155,55.736 245.155,55.465 243.663,55.465" fill="#ffffec" stroke="#000000"></polygon><polygon points="245.155,64.419 245.155,55.736 243.663,55.465 195.911,55.465" fill="#f9face" stroke="#000000"></polygon><polygon points="245.155,74.367 245.155,64.419 195.911,55.465 160.097,55.465" fill="#f2f4b1" stroke="#000000"></polygon><polygon points="152.636,57.703 179.496,64.419 191.434,64.419 184.271,60.837 160.097,55.465 145.921,55.465" fill="#ddeb98" stroke="#000000"></polygon><polygon points="205.362,71.382 245.155,82.752 245.155,74.367 184.271,60.837" fill="#ddeb98" stroke="#000000"></polygon><polygon points="172.781,64.419 179.496,64.419 152.636,57.703" fill="#add15a" stroke="#000000"></polygon><polygon points="228.740,83.072 245.155,88.543 245.155,82.752 205.362,71.382" fill="#c9e27f" stroke="#000000"></polygon><polygon points="146.667,64.419 172.781,64.419 145.921,55.465 142.190,55.465" fill="#add15a" stroke="#000000"></polygon><polygon points="242.171,89.787 245.155,89.787 245.155,88.543 228.740,83.072" fill="#add15a" stroke="#000000"></polygon><polygon points="125.775,115.155 172.035,115.155 142.190,55.465 125.775,55.465" fill="#add15a" stroke="#000000"></polygon><polygon points="207.103,89.787 242.171,89.787 195.413,66.408" fill="#91c035" stroke="#000000"></polygon><polygon points="172.035,115.155 219.787,115.155 195.413,66.408 191.434,64.419 146.667,64.419" fill="#91c035" stroke="#000000"></polygon><polygon points="219.787,115.155 245.155,115.155 245.155,89.787 207.103,89.787" fill="#48ad34" stroke="#000000"></polygon><polygon points="304.845,234.535 306.337,234.535 304.845,234.264" fill="#ffffec" stroke="#000000"></polygon><polygon points="304.845,234.264 306.337,234.535 354.089,234.535 304.845,225.581" fill="#f9face" stroke="#000000"></polygon><polygon points="304.845,225.581 354.089,234.535 389.903,234.535 304.845,215.633" fill="#f2f4b1" stroke="#000000"></polygon><polygon points="365.729,229.163 389.903,234.535 404.079,234.535 397.364,232.297 370.504,225.581 358.566,225.581" fill="#ddeb98" stroke="#000000"></polygon><polygon points="304.845,215.633 365.729,229.163 344.638,218.618 304.845,207.248" fill="#ddeb98" stroke="#000000"></polygon><polygon points="397.364,232.297 377.219,225.581 370.504,225.581" fill="#c9e27f" stroke="#000000"></polygon><polygon points="304.845,207.248 344.638,218.618 321.260,206.928 304.845,201.457" fill="#c9e27f" stroke="#000000"></polygon><polygon points="403.333,225.581 424.225,225.581 424.225,174.845 377.965,174.845" fill="#add15a" stroke="#000000"></polygon><polygon points="404.079,234.535 424.225,234.535 424.225,225.581 377.219,225.581" fill="#add15a" stroke="#000000"></polygon><polygon points="304.845,201.457 321.260,206.928 307.829,200.213 304.845,200.213" fill="#add15a" stroke="#000000"></polygon><polygon points="342.897,200.213 390.649,200.213 377.965,174.845 330.213,174.845" fill="#91c035" stroke="#000000"></polygon><polygon points="358.566,225.581 403.333,225.581 390.649,200.213 307.829,200.213" fill="#91c035" stroke="#000000"></polygon><polygon points="304.845,200.213 342.897,200.213 330.213,174.845 304.845,174.845" fill="#47aa33" stroke="#000000"></polygon><polygon points="304.845,66.408 343.643,79.341 304.845,59.942" fill="#CCCCCC" stroke="#000000"></polygon><polygon points="245.155,230.058 245.155,223.592 206.357,210.659" fill="#CCCCCC" stroke="#000000"></polygon><polygon points="304.845,66.408 304.845,59.942 295.891,55.465 272.016,55.465" fill="#CCCCCC" stroke="#000000"></polygon><polygon points="245.155,230.058 254.109,234.535 277.984,234.535 245.155,223.592" fill="#CCCCCC" stroke="#000000"></polygon><polygon points="304.845,59.942 397.364,106.202 346.628,55.465 304.845,55.465" fill="#CCCCCC" stroke="#000000"></polygon><polygon points="203.372,234.535 245.155,234.535 245.155,230.058 152.636,183.798" fill="#CCCCCC" stroke="#000000"></polygon><polygon points="304.845,59.942 304.845,55.465 295.891,55.465" fill="#CCCCCC" stroke="#000000"></polygon><polygon points="245.155,234.535 254.109,234.535 245.155,230.058" fill="#CCCCCC" stroke="#000000"></polygon><polygon points="125.775,174.845 143.682,174.845 125.775,156.938" fill="#CCCCCC" stroke="#000000"></polygon><polygon points="424.225,133.062 424.225,115.155 406.318,115.155" fill="#CCCCCC" stroke="#000000"></polygon><polygon points="406.318,115.155 424.225,115.155 424.225,55.465 346.628,55.465" fill="#CCCCCC" stroke="#000000"></polygon><polygon points="125.775,234.535 203.372,234.535 143.682,174.845 125.775,174.845" fill="#CCCCCC" stroke="#000000"></polygon><polygon points="245.155,174.845 304.845,174.845 304.845,115.155 245.155,115.155" fill="#009933" stroke="#000000"></polygon><polygon points="424.225,55.465 424.225,22.636 227.248,22.636 194.419,55.465" fill="#CCCCCC" stroke="#000000"></polygon><polygon points="424.225,165.891 501.822,88.295 531.667,28.605 531.667,22.636 424.225,22.636" fill="#CCCCCC" stroke="#000000"></polygon><polygon points="125.775,267.364 322.752,267.364 355.581,234.535 125.775,234.535" fill="#CCCCCC" stroke="#000000"></polygon><polygon points="18.333,267.364 125.775,267.364 125.775,124.109 48.178,201.705 18.333,261.395" fill="#CCCCCC" stroke="#000000"></polygon></g><rect x="0.5" y="0.5" width="549" height="289" stroke="#000000" stroke-width="1" fill="none"></rect></svg><g stroke="#000" stroke-width="1"><line x1="41.240" y1="291.000" x2="41.240" y2="294.500"></line><line x1="100.930" y1="291.000" x2="100.930" y2="294.500"></line><line x1="160.620" y1="291.000" x2="160.620" y2="294.500"></line><line x1="220.310" y1="291.000" x2="220.310" y2="294.500"></line><line x1="280.000" y1="291.000" x2="280.000" y2="294.500"></line><line x1="339.690" y1="291.000" x2="339.690" y2="294.500"></line><line x1="399.380" y1="291.000" x2="399.380" y2="294.500"></line><line x1="459.070" y1="291.000" x2="459.070" y2="294.500"></line><line x1="518.760" y1="291.000" x2="518.760" y2="294.500"></line><line x1="551.000" y1="269.380" x2="554.500" y2="269.380"></line><line x1="551.000" y1="239.535" x2="554.500" y2="239.535"></line><line x1="551.000" y1="209.690" x2="554.500" y2="209.690"></line><line x1="551.000" y1="179.845" x2="554.500" y2="179.845"></line><line x1="551.000" y1="150.000" x2="554.500" y2="150.000"></line><line x1="551.000" y1="120.155" x2="554.500" y2="120.155"></line><line x1="551.000" y1="90.310" x2="554.500" y2="90.310"></line><line x1="551.000" y1="60.465" x2="554.500" y2="60.465"></line><line x1="551.000" y1="30.620" x2="554.500" y2="30.620"></line></g></svg>