<svg xmlns="http://www.w3.org/2000/svg" width="345" height="225"><g font-family="DejaVu Sans, sans-serif" font-size="8pt"><text x="38.640" y="220.000" text-anchor="middle">-3.5</text><text x="87.123" y="220.000" text-anchor="middle">-3</text><text x="135.607" y="220.000" text-anchor="middle">-2.5</text><text x="184.090" y="220.000" text-anchor="middle">-2</text><text x="232.573" y="220.000" text-anchor="middle">-1.5</text><text x="281.056" y="220.000" text-anchor="middle">-1</text><text x="312.000" y="201.118" text-anchor="start">-1.5</text><text x="312.000" y="172.028" text-anchor="start">-1.2</text><text x="312.000" y="142.938" text-anchor="start">-0.9</text><text x="312.000" y="113.848" text-anchor="start">-0.6</text><text x="312.000" y="84.758" text-anchor="start">-0.3</text><text x="312.000" y="55.668" text-anchor="start">0</text><text x="312.000" y="26.578" text-anchor="start">0.3</text></g><svg xmlns="http://www.w3.org/2000/svg" width="300" height="200" x="5" y="5"><rect x="0" y="0" width="300" height="200" stroke="none" fill="#FFFFFF"></rect><g font-family="DejaVu Sans, sans-serif" font-size="8pt" text-anchor="middle"><polygon points="150.000,259.995 276.056,302.014 276.056,279.388 118.971,244.480" fill="#FFFFFF" stroke="#000000"></polygon><polygon points="276.056,247.528 276.056,243.834 217.877,230.905" fill="#FFFFFF" stroke="#000000"></polygon><polygon points="119.547,244.608 276.056,279.388 276.056,279.198 118.864,244.267" fill="#FFFFFF" stroke="#000000"></polygon><polygon points="-24.326,172.832 118.971,244.480 119.547,244.608 -24.647,172.511" fill="#FFFFFF" stroke="#000000"></polygon><polygon points="-24.540,172.725 -24.326,172.832 -39.905,157.253 -40.054,157.210" fill="#FFFFFF" stroke="#000000"></polygon><polygon points="-24.647,172.511 118.864,244.267 276.056,279.198 276.056,247.528 -39.905,157.253" fill="#FFFFFF" stroke="#000000"></polygon><polygon points="231.150,233.854 276.056,243.834 276.056,242.960 217.385,229.922" fill="#FFFFFF" stroke="#000000"></polygon><polygon points="-39.366,157.407 217.877,230.905 231.150,233.854 -40.546,156.227" fill="#FFFFFF" stroke="#000000"></polygon><polygon points="-40.054,157.210 -39.366,157.407 -53.138,143.635 -53.630,143.635" fill="#FFFFFF" stroke="#000000"></polygon><polygon points="-40.546,156.227 217.385,229.922 276.056,242.960 276.056,201.815 72.427,143.635 -53.138,143.635" fill="#FFFFFF" stroke="#000000"></polygon><polygon points="158.300,168.170 96.962,143.635 72.427,143.635" fill="#FFFFFF" stroke="#000000"></polygon><polygon points="158.300,168.170 276.056,201.815 276.056,161.089 232.422,143.635 96.962,143.635" fill="#ffffff" stroke="#000000"></polygon><polygon points="232.422,143.635 276.056,161.089 276.056,143.635" fill="#ffffff" stroke="#000000"></polygon><polygon points="382.720,337.568 397.265,337.568 365.266,331.750" fill="#FFFFFF" stroke="#000000"></polygon><polygon points="469.989,322.484 469.989,321.701 450.596,318.175" fill="#FFFFFF" stroke="#000000"></polygon><polygon points="368.147,332.274 397.265,337.568 399.884,337.568 365.004,331.226" fill="#FFFFFF" stroke="#000000"></polygon><polygon points="276.056,302.014 365.266,331.750 368.147,332.274 276.056,301.577" fill="#FFFFFF" stroke="#000000"></polygon><polygon points="276.056,301.577 365.004,331.226 399.884,337.568 469.989,337.568 469.989,322.484 276.056,279.388" fill="#FFFFFF" stroke="#000000"></polygon><polygon points="276.056,279.388 450.596,318.175 469.989,321.701 276.056,278.604" fill="#FFFFFF" stroke="#000000"></polygon><polygon points="276.056,278.604 469.989,321.701 469.989,286.930 276.056,243.834" fill="#FFFFFF" stroke="#000000"></polygon><polygon points="276.056,243.834 469.989,286.930 469.989,279.586 276.056,236.489" fill="#FFFFFF" stroke="#000000"></polygon><polygon points="276.056,236.489 469.989,279.586 469.989,257.224 276.056,201.815" fill="#FFFFFF" stroke="#000000"></polygon><polygon points="469.989,238.662 469.989,237.369 450.596,230.905" fill="#FFFFFF" stroke="#000000"></polygon><polygon points="438.960,248.359 469.989,257.224 469.989,238.662 450.596,230.905 421.506,230.905" fill="#FFFFFF" stroke="#000000"></polygon><polygon points="276.056,201.815 438.960,248.359 425.004,234.402 276.056,191.846" fill="#FFFFFF" stroke="#000000"></polygon><polygon points="276.056,191.846 425.004,234.402 402.113,211.511 276.056,161.089" fill="#FFFFFF" stroke="#000000"></polygon><polygon points="469.989,237.369 469.989,230.905 450.596,230.905" fill="#FFFFFF" stroke="#000000"></polygon><polygon points="276.056,161.089 402.113,211.511 363.326,172.725 305.146,143.635 276.056,143.635" fill="#FFFFFF" stroke="#000000"></polygon><polygon points="363.326,172.725 334.236,143.635 305.146,143.635" fill="#FFFFFF" stroke="#000000"></polygon><polygon points="422.120,230.905 469.989,230.905 469.989,229.678 420.893,229.678" fill="#FFFFFF" stroke="#000000"></polygon><polygon points="421.506,230.905 422.120,230.905 334.850,143.635 334.236,143.635" fill="#FFFFFF" stroke="#000000"></polygon><polygon points="420.893,229.678 469.989,229.678 469.989,143.635 334.850,143.635" fill="#FFFFFF" stroke="#000000"></polygon><polygon points="-38.115,143.635 5.520,143.635 -55.569,126.181" fill="#FFFFFF" stroke="#000000"></polygon><polygon points="-111.810,85.455 -53.630,143.635 -38.115,143.635 -111.810,69.940" fill="#FFFFFF" stroke="#000000"></polygon><polygon points="-55.569,126.181 5.520,143.635 72.427,143.635 -111.810,69.940" fill="#FFFFFF" stroke="#000000"></polygon><polygon points="130.607,143.635 232.422,143.635 105.153,92.728" fill="#FFFFFF" stroke="#000000"></polygon><polygon points="123.334,129.090 105.153,92.728 14.247,56.365" fill="#FFFFFF" stroke="#000000"></polygon><polygon points="-111.810,69.940 72.427,143.635 81.424,143.635 -111.810,66.342" fill="#FFFFFF" stroke="#000000"></polygon><polygon points="-111.810,66.342 81.424,143.635 130.607,143.635 123.334,129.090 -111.810,-27.673" fill="#FFFFFF" stroke="#000000"></polygon><polygon points="105.153,92.728 232.422,143.635 261.511,143.635 97.880,78.183" fill="#FFFFFF" stroke="#000000"></polygon><polygon points="97.880,78.183 261.511,143.635 276.056,143.635 276.056,124.242 43.337,-30.905" fill="#FFFFFF" stroke="#000000"></polygon><polygon points="29.281,62.379 105.153,92.728 102.146,86.714 11.240,50.351" fill="#FFFFFF" stroke="#000000"></polygon><polygon points="14.247,56.365 29.281,62.379 -111.810,-31.682 -111.810,-27.673" fill="#FFFFFF" stroke="#000000"></polygon><polygon points="11.240,50.351 102.146,86.714 33.640,-50.298 -111.810,-50.298 -111.810,-31.682" fill="#FFFFFF" stroke="#000000"></polygon><polygon points="276.056,114.545 276.056,85.455 246.967,56.365" fill="#FFFFFF" stroke="#000000"></polygon><polygon points="41.068,-35.443 47.875,-30.905 188.787,-30.905 150.000,-50.298 33.640,-50.298" fill="#FFFFFF" stroke="#000000"></polygon><polygon points="208.180,-21.208 193.635,-50.298 150.000,-50.298" fill="#FFFFFF" stroke="#000000"></polygon><polygon points="43.337,-30.905 276.056,124.242 276.056,121.216 41.068,-35.443" fill="#FFFFFF" stroke="#000000"></polygon><polygon points="276.056,121.216 276.056,114.545 208.180,-21.208 188.787,-30.905 47.875,-30.905" fill="#FFFFFF" stroke="#000000"></polygon><polygon points="199.677,-38.214 201.197,-36.694 276.056,-36.694 276.056,-50.298 193.635,-50.298" fill="#FFFFFF" stroke="#000000"></polygon><polygon points="246.967,56.365 276.056,85.455 276.056,38.166 199.677,-38.214" fill="#ffffff" stroke="#000000"></polygon><polygon points="276.056,323.023 276.056,302.014 150.000,259.995" fill="#cccccc" stroke="#000000"></polygon><polygon points="276.056,323.023 305.146,337.568 382.720,337.568 276.056,302.014" fill="#cccccc" stroke="#000000"></polygon><polygon points="140.303,337.568 276.056,337.568 276.056,323.023 -24.540,172.725" fill="#cccccc" stroke="#000000"></polygon><polygon points="276.056,337.568 305.146,337.568 276.056,323.023" fill="#cccccc" stroke="#000000"></polygon><polygon points="-111.810,143.635 -53.630,143.635 -111.810,85.455" fill="#cccccc" stroke="#000000"></polygon><polygon points="-111.810,337.568 140.303,337.568 -53.630,143.635 -111.810,143.635" fill="#cccccc" stroke="#000000"></polygon><polygon points="276.056,143.635 469.989,143.635 469.989,-50.298 276.056,-50.298" fill="#009933" stroke="#000000"></polygon><polygon points="-111.810,444.231 528.169,444.231 634.833,337.568 -111.810,337.568" fill="#cccccc" stroke="#000000"></polygon><polygon points="-460.889,444.231 -111.810,444.231 -111.810,-21.208 -363.923,230.905 -460.889,424.838" fill="#cccccc" stroke="#000000"></polygon></g><rect x="0.5" y="0.5" width="299" height="199" stroke="#000000" stroke-width="1" fill="none"></rect></svg><g stroke="#000" stroke-width="1"><line x1="38.640" y1="201.000" x2="38.640" y2="204.500"></line><line x1="87.123" y1="201.000" x2="87.123" y2="204.500"></line><line x1="135.607" y1="201.000" x2="135.607" y2="204.500"></line><line x1="184.090" y1="201.000" x2="184.090" y2="204.500"></line><line x1="232.573" y1="201.000" x2="232.573" y2="204.500"></line><line x1="281.056" y1="201.000" x2="281.056" y2="204.500"></line><line x1="301.000" y1="197.118" x2="304.500" y2="197.118"></line><line x1="301.000" y1="168.028" x2="304.500" y2="168.028"></line><line x1="301.000" y1="138.938" x2="304.500" y2="138.938"></line><line x1="301.000" y1="109.848" x2="304.500" y2="109.848"></line><line x1="301.000" y1="80.758" x2="304.500" y2="80.758"></line><line x1="301.000" y1="51.668" x2="304.500" y2="51.668"></line><line x1="301.000" y1="22.578" x2="304.500" y2="22.578"></line></g></svg>