<svg xmlns="http://www.w3.org/2000/svg" width="445" height="325"><g font-family="DejaVu Sans, sans-serif" font-size="8pt"><text x="37.747" y="320.000" text-anchor="middle">0</text><text x="79.560" y="320.000" text-anchor="middle">0.5</text><text x="121.373" y="320.000" text-anchor="middle">1</text><text x="163.187" y="320.000" text-anchor="middle">1.5</text><text x="205.000" y="320.000" text-anchor="middle">2</text><text x="246.813" y="320.000" text-anchor="middle">2.5</text><text x="288.627" y="320.000" text-anchor="middle">3</text><text x="330.440" y="320.000" text-anchor="middle">3.5</text><text x="372.253" y="320.000" text-anchor="middle">4</text><text x="412.000" y="284.440" text-anchor="start">0</text><text x="412.000" y="250.989" text-anchor="start">0.4</text><text x="412.000" y="217.539" text-anchor="start">0.8</text><text x="412.000" y="184.088" text-anchor="start">1.2</text><text x="412.000" y="150.637" text-anchor="start">1.6</text><text x="412.000" y="117.187" text-anchor="start">2</text><text x="412.000" y="83.736" text-anchor="start">2.4</text><text x="412.000" y="50.285" text-anchor="start">2.8</text><text x="412.000" y="16.835" text-anchor="start">3.2</text></g><svg xmlns="http://www.w3.org/2000/svg" width="400" height="300" x="5" y="5"><rect x="0" y="0" width="400" height="300" stroke="none" fill="#FFFFFF"></rect><g font-family="DejaVu Sans, sans-serif" font-size="8pt" text-anchor="middle"><polygon points="141.461,275.440 258.539,275.440 258.539,166.725 141.461,166.725" fill="#cccccc" stroke="#000000"></polygon><polygon points="141.461,133.275 258.539,133.275 258.539,24.560 141.461,24.560" fill="#cccccc" stroke="#000000"></polygon><polygon points="32.747,24.560 367.253,24.560 367.253,-25.616 32.747,-25.616" fill="#cccccc" stroke="#000000"></polygon><polygon points="367.253,275.440 417.429,275.440 417.429,-25.616 367.253,-25.616" fill="#cccccc" stroke="#000000"></polygon><polygon points="32.747,325.616 417.429,325.616 417.429,275.440 32.747,275.440" fill="#cccccc" stroke="#000000"></polygon><polygon points="-17.429,325.616 32.747,325.616 32.747,-25.616 -17.429,-25.616" fill="#cccccc" stroke="#000000"></polygon></g><g stroke="#000" stroke-width="1" fill="#000"><line x1="36.928" y1="28.741" x2="84.065" y2="69.931"></line><polygon points="84.065,69.931 83.662,63.945 78.079,70.334"></polygon><line x1="84.065" y1="69.931" x2="102.613" y2="117.425"></line><polygon points="102.613,117.425 105.021,111.930 97.117,115.017"></polygon><line x1="102.613" y1="117.425" x2="142.386" y2="156.044"></line><polygon points="142.386,156.044 142.298,150.045 136.387,156.132"></polygon><line x1="142.386" y1="156.044" x2="173.890" y2="146.766"></line><polygon points="173.890,146.766 168.622,143.895 171.019,152.034"></polygon><line x1="173.890" y1="146.766" x2="214.598" y2="160.226"></line><polygon points="214.598,160.226 211.902,154.866 209.238,162.923"></polygon><line x1="214.598" y1="160.226" x2="247.887" y2="146.910"></line><polygon points="247.887,146.910 242.372,144.547 245.524,152.425"></polygon><line x1="247.887" y1="146.910" x2="296.234" y2="186.464"></line><polygon points="296.234,186.464 295.637,180.494 290.264,187.062"></polygon><line x1="296.234" y1="186.464" x2="291.111" y2="155.194"></line><polygon points="291.111,155.194 287.610,160.066 295.984,158.695"></polygon></g><rect x="0.5" y="0.5" width="399" height="299" stroke="#000000" stroke-width="1" fill="none"></rect></svg><g stroke="#000" stroke-width="1"><line x1="37.747" y1="301.000" x2="37.747" y2="304.500"></line><line x1="79.560" y1="301.000" x2="79.560" y2="304.500"></line><line x1="121.373" y1="301.000" x2="121.373" y2="304.500"></line><line x1="163.187" y1="301.000" x2="163.187" y2="304.500"></line><line x1="205.000" y1="301.000" x2="205.000" y2="304.500"></line><line x1="246.813" y1="301.000" x2="246.813" y2="304.500"></line><line x1="288.627" y1="301.000" x2="288.627" y2="304.500"></line><line x1="330.440" y1="301.000" x2="330.440" y2="304.500"></line><line x1="372.253" y1="301.000" x2="372.253" y2="304.500"></line><line x1="401.000" y1="280.440" x2="404.500" y2="280.440"></line><line x1="401.000" y1="246.989" x2="404.500" y2="246.989"></line><line x1="401.000" y1="213.539" x2="404.500" y2="213.539"></line><line x1="401.000" y1="180.088" x2="404.500" y2="180.088"></line><line x1="401.000" y1="146.637" x2="404.500" y2="146.637"></line><line x1="401.000" y1="113.187" x2="404.500" y2="113.187"></line><line x1="401.000" y1="79.736" x2="404.500" y2="79.736"></line><line x1="401.000" y1="46.285" x2="404.500" y2="46.285"></line><line x1="401.000" y1="12.835" x2="404.500" y2="12.835"></line></g></svg>