<svg xmlns="http://www.w3.org/2000/svg" width="385" height="275"><g font-family="DejaVu Sans, sans-serif" font-size="8pt"><text x="35.622" y="270.000" text-anchor="middle">0</text><text x="84.404" y="270.000" text-anchor="middle">0.7</text><text x="133.187" y="270.000" text-anchor="middle">1.4</text><text x="181.969" y="270.000" text-anchor="middle">2.1</text><text x="230.751" y="270.000" text-anchor="middle">2.8</text><text x="279.533" y="270.000" text-anchor="middle">3.5</text><text x="328.316" y="270.000" text-anchor="middle">4.2</text><text x="352.000" y="238.533" text-anchor="start">0</text><text x="352.000" y="210.658" text-anchor="start">0.4</text><text x="352.000" y="182.782" text-anchor="start">0.8</text><text x="352.000" y="154.907" text-anchor="start">1.2</text><text x="352.000" y="127.031" text-anchor="start">1.6</text><text x="352.000" y="99.156" text-anchor="start">2</text><text x="352.000" y="71.280" text-anchor="start">2.4</text><text x="352.000" y="43.404" text-anchor="start">2.8</text><text x="352.000" y="15.529" text-anchor="start">3.2</text></g><svg xmlns="http://www.w3.org/2000/svg" width="340" height="250" x="5" y="5"><rect x="0" y="0" width="340" height="250" stroke="none" fill="#FFFFFF"></rect><g font-family="DejaVu Sans, sans-serif" font-size="8pt" text-anchor="middle"><polygon points="121.218,125.288 140.382,125.288 140.382,124.602 121.218,124.602" fill="#009933" stroke="#000000"></polygon><polygon points="121.218,124.602 140.382,124.602 140.382,111.062 121.218,111.062" fill="#009933" stroke="#000000"></polygon><polygon points="121.218,138.938 140.382,138.938 140.382,125.288 121.218,125.288" fill="#009933" stroke="#000000"></polygon><polygon points="140.382,114.261 166.516,114.261 166.516,111.062 140.382,111.062" fill="#009933" stroke="#000000"></polygon><polygon points="140.382,127.417 166.516,127.417 166.516,114.261 140.382,114.261" fill="#009933" stroke="#000000"></polygon><polygon points="140.382,138.938 166.516,138.938 166.516,127.417 140.382,127.417" fill="#009933" stroke="#000000"></polygon><polygon points="166.516,123.096 192.649,123.096 192.649,111.062 166.516,111.062" fill="#009933" stroke="#000000"></polygon><polygon points="166.516,138.938 192.649,138.938 192.649,134.262 166.516,134.262" fill="#009933" stroke="#000000"></polygon><polygon points="166.516,134.262 192.649,134.262 192.649,123.096 166.516,123.096" fill="#009933" stroke="#000000"></polygon><polygon points="192.649,138.938 218.782,138.938 218.782,111.062 192.649,111.062" fill="#009933" stroke="#000000"></polygon><polygon points="114.249,229.533 121.218,229.533 121.218,217.338 114.249,217.338" fill="#009933" stroke="#000000"></polygon><polygon points="88.116,229.533 114.249,229.533 114.249,217.338 88.116,217.338" fill="#009933" stroke="#000000"></polygon><polygon points="61.982,229.533 88.116,229.533 88.116,217.338 61.982,217.338" fill="#009933" stroke="#000000"></polygon><polygon points="35.849,229.533 61.982,229.533 61.982,217.338 35.849,217.338" fill="#009933" stroke="#000000"></polygon><polygon points="30.622,229.533 35.849,229.533 35.849,138.938 30.622,138.938" fill="#009933" stroke="#000000"></polygon><polygon points="114.249,217.338 121.218,217.338 121.218,191.204 114.249,191.204" fill="#009933" stroke="#000000"></polygon><polygon points="88.116,217.338 114.249,217.338 114.249,191.204 88.116,191.204" fill="#009933" stroke="#000000"></polygon><polygon points="61.982,217.338 88.116,217.338 88.116,191.204 61.982,191.204" fill="#009933" stroke="#000000"></polygon><polygon points="35.849,217.338 61.982,217.338 61.982,138.938 35.849,138.938" fill="#009933" stroke="#000000"></polygon><polygon points="114.249,191.204 121.218,191.204 121.218,165.071 114.249,165.071" fill="#009933" stroke="#000000"></polygon><polygon points="105.377,191.204 114.249,191.204 114.249,165.071 105.377,165.071" fill="#009933" stroke="#000000"></polygon><polygon points="88.116,191.204 105.377,191.204 105.377,165.071 88.116,165.071" fill="#009933" stroke="#000000"></polygon><polygon points="79.404,152.876 88.116,152.876 88.116,138.938 79.404,138.938" fill="#009933" stroke="#000000"></polygon><polygon points="79.404,191.204 88.116,191.204 88.116,165.071 79.404,165.071" fill="#009933" stroke="#000000"></polygon><polygon points="79.404,165.071 88.116,165.071 88.116,152.876 79.404,152.876" fill="#009933" stroke="#000000"></polygon><polygon points="61.982,191.204 79.404,191.204 79.404,138.938 61.982,138.938" fill="#009933" stroke="#000000"></polygon><polygon points="88.116,165.071 114.249,165.071 114.249,160.138 88.116,160.138" fill="#009933" stroke="#000000"></polygon><polygon points="88.116,160.138 114.249,160.138 114.249,148.907 88.116,148.907" fill="#009933" stroke="#000000"></polygon><polygon points="88.116,148.907 114.249,148.907 114.249,138.938 88.116,138.938" fill="#009933" stroke="#000000"></polygon><polygon points="114.249,152.876 121.218,152.876 121.218,151.819 114.249,151.819" fill="#009933" stroke="#000000"></polygon><polygon points="114.249,151.819 121.218,151.819 121.218,138.938 114.249,138.938" fill="#009933" stroke="#000000"></polygon><polygon points="114.249,165.071 121.218,165.071 121.218,152.876 114.249,152.876" fill="#009933" stroke="#000000"></polygon><polygon points="35.849,32.662 47.006,32.662 47.006,20.467 35.849,20.467" fill="#009933" stroke="#000000"></polygon><polygon points="47.006,32.662 121.218,32.662 121.218,20.467 47.006,20.467" fill="#009933" stroke="#000000"></polygon><polygon points="30.622,111.062 35.849,111.062 35.849,20.467 30.622,20.467" fill="#009933" stroke="#000000"></polygon><polygon points="61.982,58.796 88.116,58.796 88.116,32.662 61.982,32.662" fill="#009933" stroke="#000000"></polygon><polygon points="88.116,58.796 114.249,58.796 114.249,32.662 88.116,32.662" fill="#009933" stroke="#000000"></polygon><polygon points="114.249,58.796 121.218,58.796 121.218,32.662 114.249,32.662" fill="#009933" stroke="#000000"></polygon><polygon points="35.849,111.062 61.982,111.062 61.982,32.662 35.849,32.662" fill="#009933" stroke="#000000"></polygon><polygon points="104.110,84.929 114.249,84.929 114.249,58.796 104.110,58.796" fill="#009933" stroke="#000000"></polygon><polygon points="88.116,84.929 104.110,84.929 104.110,58.796 88.116,58.796" fill="#009933" stroke="#000000"></polygon><polygon points="114.249,84.929 121.218,84.929 121.218,58.796 114.249,58.796" fill="#009933" stroke="#000000"></polygon><polygon points="61.982,111.062 70.301,111.062 70.301,58.796 61.982,58.796" fill="#009933" stroke="#000000"></polygon><polygon points="70.301,111.062 88.116,111.062 88.116,58.796 70.301,58.796" fill="#009933" stroke="#000000"></polygon><polygon points="88.116,111.062 114.249,111.062 114.249,98.109 88.116,98.109" fill="#009933" stroke="#000000"></polygon><polygon points="88.116,98.109 114.249,98.109 114.249,84.929 88.116,84.929" fill="#009933" stroke="#000000"></polygon><polygon points="114.249,87.323 121.218,87.323 121.218,84.929 114.249,84.929" fill="#009933" stroke="#000000"></polygon><polygon points="114.249,98.920 121.218,98.920 121.218,87.323 114.249,87.323" fill="#009933" stroke="#000000"></polygon><polygon points="114.249,111.062 121.218,111.062 121.218,98.920 114.249,98.920" fill="#009933" stroke="#000000"></polygon><polygon points="30.622,138.938 35.849,138.938 35.849,111.062 30.622,111.062" fill="#009933" stroke="#000000"></polygon><polygon points="35.849,138.938 61.982,138.938 61.982,111.062 35.849,111.062" fill="#009933" stroke="#000000"></polygon><polygon points="79.404,125.430 88.116,125.430 88.116,111.062 79.404,111.062" fill="#009933" stroke="#000000"></polygon><polygon points="79.404,138.938 88.116,138.938 88.116,125.430 79.404,125.430" fill="#009933" stroke="#000000"></polygon><polygon points="61.982,138.938 79.404,138.938 79.404,111.062 61.982,111.062" fill="#009933" stroke="#000000"></polygon><polygon points="88.116,128.688 114.249,128.688 114.249,124.351 88.116,124.351" fill="#009933" stroke="#000000"></polygon><polygon points="88.116,138.938 114.249,138.938 114.249,128.688 88.116,128.688" fill="#009933" stroke="#000000"></polygon><polygon points="88.116,124.351 114.249,124.351 114.249,111.062 88.116,111.062" fill="#009933" stroke="#000000"></polygon><polygon points="114.249,138.938 121.218,138.938 121.218,135.134 114.249,135.134" fill="#009933" stroke="#000000"></polygon><polygon points="114.249,135.134 121.218,135.134 121.218,122.958 114.249,122.958" fill="#009933" stroke="#000000"></polygon><polygon points="114.249,122.958 121.218,122.958 121.218,111.062 114.249,111.062" fill="#009933" stroke="#000000"></polygon><polygon points="121.218,229.533 218.782,229.533 218.782,138.938 121.218,138.938" fill="#CCCCCC" stroke="#000000"></polygon><polygon points="218.782,229.533 309.378,229.533 309.378,138.938 218.782,138.938" fill="#009933" stroke="#000000"></polygon><polygon points="121.218,111.062 218.782,111.062 218.782,20.467 121.218,20.467" fill="#CCCCCC" stroke="#000000"></polygon><polygon points="218.782,111.062 309.378,111.062 309.378,20.467 218.782,20.467" fill="#009933" stroke="#000000"></polygon><polygon points="218.782,138.938 309.378,138.938 309.378,111.062 218.782,111.062" fill="#009933" stroke="#000000"></polygon><polygon points="30.622,20.467 309.378,20.467 309.378,-21.347 30.622,-21.347" fill="#CCCCCC" stroke="#000000"></polygon><polygon points="309.378,229.533 351.191,229.533 351.191,-21.347 309.378,-21.347" fill="#CCCCCC" stroke="#000000"></polygon><polygon points="30.622,271.347 351.191,271.347 351.191,229.533 30.622,229.533" fill="#CCCCCC" stroke="#000000"></polygon><polygon points="-11.191,271.347 30.622,271.347 30.622,-21.347 -11.191,-21.347" fill="#CCCCCC" stroke="#000000"></polygon></g><g stroke="#000" stroke-width="1" fill="#000"></g><rect x="0.5" y="0.5" width="339" height="249" stroke="#000000" stroke-width="1" fill="none"></rect></svg><g stroke="#000" stroke-width="1"><line x1="35.622" y1="251.000" x2="35.622" y2="254.500"></line><line x1="84.404" y1="251.000" x2="84.404" y2="254.500"></line><line x1="133.187" y1="251.000" x2="133.187" y2="254.500"></line><line x1="181.969" y1="251.000" x2="181.969" y2="254.500"></line><line x1="230.751" y1="251.000" x2="230.751" y2="254.500"></line><line x1="279.533" y1="251.000" x2="279.533" y2="254.500"></line><line x1="328.316" y1="251.000" x2="328.316" y2="254.500"></line><line x1="341.000" y1="234.533" x2="344.500" y2="234.533"></line><line x1="341.000" y1="206.658" x2="344.500" y2="206.658"></line><line x1="341.000" y1="178.782" x2="344.500" y2="178.782"></line><line x1="341.000" y1="150.907" x2="344.500" y2="150.907"></line><line x1="341.000" y1="123.031" x2="344.500" y2="123.031"></line><line x1="341.000" y1="95.156" x2="344.500" y2="95.156"></line><line x1="341.000" y1="67.280" x2="344.500" y2="67.280"></line><line x1="341.000" y1="39.404" x2="344.500" y2="39.404"></line><line x1="341.000" y1="11.529" x2="344.500" y2="11.529"></line></g></svg>