<svg xmlns="http://www.w3.org/2000/svg" width="445" height="325"><g font-family="DejaVu Sans, sans-serif" font-size="8pt"><text x="37.747" y="320.000" text-anchor="middle">0</text><text x="79.560" y="320.000" text-anchor="middle">0.5</text><text x="121.373" y="320.000" text-anchor="middle">1</text><text x="163.187" y="320.000" text-anchor="middle">1.5</text><text x="205.000" y="320.000" text-anchor="middle">2</text><text x="246.813" y="320.000" text-anchor="middle">2.5</text><text x="288.627" y="320.000" text-anchor="middle">3</text><text x="330.440" y="320.000" text-anchor="middle">3.5</text><text x="372.253" y="320.000" text-anchor="middle">4</text><text x="412.000" y="284.440" text-anchor="start">0</text><text x="412.000" y="250.989" text-anchor="start">0.4</text><text x="412.000" y="217.539" text-anchor="start">0.8</text><text x="412.000" y="184.088" text-anchor="start">1.2</text><text x="412.000" y="150.637" text-anchor="start">1.6</text><text x="412.000" y="117.187" text-anchor="start">2</text><text x="412.000" y="83.736" text-anchor="start">2.4</text><text x="412.000" y="50.285" text-anchor="start">2.8</text><text x="412.000" y="16.835" text-anchor="start">3.2</text></g><svg xmlns="http://www.w3.org/2000/svg" width="400" height="300" x="5" y="5"><rect x="0" y="0" width="400" height="300" stroke="none" fill="#FFFFFF"></rect><g font-family="DejaVu Sans, sans-serif" font-size="8pt" text-anchor="middle"><polygon points="141.461,275.440 258.539,275.440 258.539,166.725 141.461,166.725" fill="#CCCCCC" stroke="#000000"></polygon><polygon points="141.461,133.275 258.539,133.275 258.539,24.560 141.461,24.560" fill="#CCCCCC" stroke="#000000"></polygon><polygon points="32.747,24.560 367.253,24.560 367.253,-25.616 32.747,-25.616" fill="#CCCCCC" stroke="#000000"></polygon><polygon points="367.253,275.440 417.429,275.440 417.429,-25.616 367.253,-25.616" fill="#CCCCCC" stroke="#000000"></polygon><polygon points="32.747,325.616 417.429,325.616 417.429,275.440 32.747,275.440" fill="#CCCCCC" stroke="#000000"></polygon><polygon points="-17.429,325.616 32.747,325.616 32.747,-25.616 -17.429,-25.616" fill="#CCCCCC" stroke="#000000"></polygon></g><g stroke="#000" stroke-width="1" fill="#000"><line x1="36.928" y1="28.741" x2="60.886" y2="45.129"></line><polygon points="60.886,45.129 59.780,39.232 54.989,46.236"></polygon><line x1="60.886" y1="45.129" x2="106.094" y2="35.486"></line><polygon points="106.094,35.486 101.059,32.222 102.830,40.521"></polygon><line x1="106.094" y1="35.486" x2="93.018" y2="72.188"></line><polygon points="93.018,72.188 98.439,69.616 90.446,66.768"></polygon><line x1="93.018" y1="72.188" x2="116.939" y2="81.603"></line><polygon points="116.939,81.603 114.545,76.102 111.438,83.997"></polygon><line x1="116.939" y1="81.603" x2="132.272" y2="113.287"></line><polygon points="132.272,113.287 134.243,107.620 126.605,111.316"></polygon><line x1="132.272" y1="113.287" x2="125.075" y2="131.592"></line><polygon points="125.075,131.592 130.576,129.196 122.679,126.091"></polygon><line x1="125.075" y1="131.592" x2="120.770" y2="138.185"></line><polygon points="120.770,138.185 126.642,136.952 119.537,132.313"></polygon><line x1="120.770" y1="138.185" x2="112.042" y2="124.932"></line><polygon points="112.042,124.932 110.832,130.809 117.919,126.142"></polygon><line x1="112.042" y1="124.932" x2="114.529" y2="138.666"></line><polygon points="114.529,138.666 117.948,133.736 109.598,135.247"></polygon><line x1="114.529" y1="138.666" x2="120.489" y2="136.328"></line><polygon points="120.489,136.328 114.990,133.928 118.089,141.827"></polygon><line x1="120.489" y1="136.328" x2="127.260" y2="174.085"></line><polygon points="127.260,174.085 130.687,169.160 122.335,170.658"></polygon><line x1="127.260" y1="174.085" x2="132.738" y2="129.600"></line><polygon points="132.738,129.600 128.009,133.292 136.431,134.329"></polygon><line x1="132.738" y1="129.600" x2="125.168" y2="166.484"></line><polygon points="125.168,166.484 130.177,163.181 121.865,161.475"></polygon><line x1="125.168" y1="166.484" x2="122.666" y2="132.404"></line><polygon points="122.666,132.404 118.746,136.946 127.208,136.325"></polygon><line x1="122.666" y1="132.404" x2="159.487" y2="161.377"></line><polygon points="159.487,161.377 158.777,155.419 153.529,162.087"></polygon><line x1="159.487" y1="161.377" x2="131.186" y2="135.529"></line><polygon points="131.186,135.529 131.457,141.523 137.179,135.257"></polygon><line x1="131.186" y1="135.529" x2="177.053" y2="136.607"></line><polygon points="177.053,136.607 172.911,132.266 172.711,140.749"></polygon><line x1="177.053" y1="136.607" x2="163.293" y2="157.637"></line><polygon points="163.293,157.637 169.166,156.410 162.066,151.764"></polygon><line x1="163.293" y1="157.637" x2="129.063" y2="125.941"></line><polygon points="129.063,125.941 129.293,131.937 135.058,125.711"></polygon><line x1="129.063" y1="125.941" x2="124.857" y2="170.065"></line><polygon points="124.857,170.065 129.483,166.244 121.036,165.439"></polygon><line x1="124.857" y1="170.065" x2="161.266" y2="143.053"></line><polygon points="161.266,143.053 155.331,142.173 160.387,148.988"></polygon><line x1="161.266" y1="143.053" x2="129.973" y2="130.679"></line><polygon points="129.973,130.679 132.358,136.184 135.478,128.294"></polygon><line x1="129.973" y1="130.679" x2="148.015" y2="155.536"></line><polygon points="148.015,155.536 148.956,149.610 142.089,154.595"></polygon><line x1="148.015" y1="155.536" x2="120.063" y2="172.424"></line><polygon points="120.063,172.424 125.888,173.861 121.500,166.598"></polygon><line x1="120.063" y1="172.424" x2="124.248" y2="174.024"></line><polygon points="124.248,174.024 121.801,168.546 118.770,176.471"></polygon><line x1="124.248" y1="174.024" x2="157.803" y2="161.058"></line><polygon points="157.803,161.058 152.316,158.630 155.375,166.545"></polygon><line x1="157.803" y1="161.058" x2="158.671" y2="155.145"></line><polygon points="158.671,155.145 153.857,158.727 162.252,159.959"></polygon><line x1="158.671" y1="155.145" x2="122.248" y2="178.693"></line><polygon points="122.248,178.693 128.114,179.952 123.507,172.826"></polygon><line x1="122.248" y1="178.693" x2="113.880" y2="138.262"></line><polygon points="113.880,138.262 110.585,143.276 118.894,141.557"></polygon><line x1="113.880" y1="138.262" x2="117.797" y2="184.699"></line><polygon points="117.797,184.699 121.668,180.115 113.213,180.828"></polygon><line x1="117.797" y1="184.699" x2="116.699" y2="166.694"></line><polygon points="116.699,166.694 112.723,171.187 121.192,170.671"></polygon><line x1="116.699" y1="166.694" x2="113.643" y2="145.891"></line><polygon points="113.643,145.891 110.062,150.705 118.458,149.472"></polygon><line x1="113.643" y1="145.891" x2="113.380" y2="172.941"></line><polygon points="113.380,172.941 117.663,168.740 109.178,168.658"></polygon><line x1="113.380" y1="172.941" x2="107.242" y2="180.827"></line><polygon points="107.242,180.827 113.196,180.085 106.500,174.873"></polygon><line x1="107.242" y1="180.827" x2="152.815" y2="139.641"></line><polygon points="152.815,139.641 146.823,139.338 152.512,145.633"></polygon><line x1="152.815" y1="139.641" x2="122.178" y2="137.173"></line><polygon points="122.178,137.173 126.066,141.742 126.747,133.285"></polygon><line x1="122.178" y1="137.173" x2="147.305" y2="145.712"></line><polygon points="147.305,145.712 144.653,140.330 141.923,148.364"></polygon><line x1="147.305" y1="145.712" x2="108.544" y2="170.800"></line><polygon points="108.544,170.800 114.411,172.056 109.801,164.933"></polygon><line x1="108.544" y1="170.800" x2="111.960" y2="137.554"></line><polygon points="111.960,137.554 107.306,141.341 115.747,142.208"></polygon><line x1="111.960" y1="137.554" x2="95.648" y2="114.579"></line><polygon points="95.648,114.579 94.645,120.495 101.564,115.582"></polygon><line x1="95.648" y1="114.579" x2="121.141" y2="122.318"></line><polygon points="121.141,122.318 118.314,117.026 115.849,125.145"></polygon><line x1="121.141" y1="122.318" x2="118.427" y2="134.932"></line><polygon points="118.427,134.932 123.467,131.676 115.172,129.892"></polygon><line x1="118.427" y1="134.932" x2="112.743" y2="128.417"></line><polygon points="112.743,128.417 112.336,134.404 118.729,128.825"></polygon><line x1="112.743" y1="128.417" x2="105.557" y2="140.406"></line><polygon points="105.557,140.406 111.377,138.948 104.099,134.586"></polygon><line x1="105.557" y1="140.406" x2="91.938" y2="143.215"></line><polygon points="91.938,143.215 96.951,146.513 95.237,138.203"></polygon><line x1="91.938" y1="143.215" x2="129.164" y2="127.356"></line><polygon points="129.164,127.356 123.598,125.115 126.923,132.922"></polygon><line x1="129.164" y1="127.356" x2="115.914" y2="146.655"></line><polygon points="115.914,146.655 121.813,145.558 114.818,140.756"></polygon><line x1="115.914" y1="146.655" x2="100.410" y2="173.310"></line><polygon points="100.410,173.310 106.211,171.776 98.876,167.509"></polygon><line x1="100.410" y1="173.310" x2="131.750" y2="134.698"></line><polygon points="131.750,134.698 125.783,135.318 132.371,140.665"></polygon><line x1="131.750" y1="134.698" x2="138.264" y2="132.268"></line><polygon points="138.264,132.268 132.806,129.776 135.772,137.726"></polygon><line x1="138.264" y1="132.268" x2="124.979" y2="130.157"></line><polygon points="124.979,130.157 128.503,135.013 129.835,126.633"></polygon><line x1="124.979" y1="130.157" x2="100.822" y2="174.280"></line><polygon points="100.822,174.280 106.581,172.596 99.138,168.521"></polygon><line x1="100.822" y1="174.280" x2="136.668" y2="175.753"></line><polygon points="136.668,175.753 132.603,171.340 132.254,179.818"></polygon><line x1="136.668" y1="175.753" x2="125.132" y2="125.935"></line><polygon points="125.132,125.935 121.956,131.025 130.222,129.111"></polygon><line x1="125.132" y1="125.935" x2="123.008" y2="131.071"></line><polygon points="123.008,131.071 128.550,128.772 120.708,125.529"></polygon><line x1="123.008" y1="131.071" x2="105.708" y2="132.959"></line><polygon points="105.708,132.959 110.386,136.716 109.466,128.281"></polygon><line x1="105.708" y1="132.959" x2="102.701" y2="133.446"></line><polygon points="102.701,133.446 107.567,136.956 106.211,128.580"></polygon><line x1="102.701" y1="133.446" x2="102.001" y2="161.397"></line><polygon points="102.001,161.397 106.348,157.262 97.866,157.049"></polygon><line x1="102.001" y1="161.397" x2="97.321" y2="171.111"></line><polygon points="97.321,171.111 102.984,169.130 95.340,165.447"></polygon><line x1="97.321" y1="171.111" x2="126.436" y2="148.120"></line><polygon points="126.436,148.120 120.477,147.420 125.736,154.079"></polygon></g><rect x="0.5" y="0.5" width="399" height="299" stroke="#000000" stroke-width="1" fill="none"></rect></svg><g stroke="#000" stroke-width="1"><line x1="37.747" y1="301.000" x2="37.747" y2="304.500"></line><line x1="79.560" y1="301.000" x2="79.560" y2="304.500"></line><line x1="121.373" y1="301.000" x2="121.373" y2="304.500"></line><line x1="163.187" y1="301.000" x2="163.187" y2="304.500"></line><line x1="205.000" y1="301.000" x2="205.000" y2="304.500"></line><line x1="246.813" y1="301.000" x2="246.813" y2="304.500"></line><line x1="288.627" y1="301.000" x2="288.627" y2="304.500"></line><line x1="330.440" y1="301.000" x2="330.440" y2="304.500"></line><line x1="372.253" y1="301.000" x2="372.253" y2="304.500"></line><line x1="401.000" y1="280.440" x2="404.500" y2="280.440"></line><line x1="401.000" y1="246.989" x2="404.500" y2="246.989"></line><line x1="401.000" y1="213.539" x2="404.500" y2="213.539"></line><line x1="401.000" y1="180.088" x2="404.500" y2="180.088"></line><line x1="401.000" y1="146.637" x2="404.500" y2="146.637"></line><line x1="401.000" y1="113.187" x2="404.500" y2="113.187"></line><line x1="401.000" y1="79.736" x2="404.500" y2="79.736"></line><line x1="401.000" y1="46.285" x2="404.500" y2="46.285"></line><line x1="401.000" y1="12.835" x2="404.500" y2="12.835"></line></g></svg>