<svg xmlns="http://www.w3.org/2000/svg" width="295" height="195"><g font-family="DejaVu Sans, sans-serif" font-size="8pt"><text x="42.889" y="190.000" text-anchor="middle">-4</text><text x="86.444" y="190.000" text-anchor="middle">-3</text><text x="130.000" y="190.000" text-anchor="middle">-2</text><text x="173.556" y="190.000" text-anchor="middle">-1</text><text x="217.111" y="190.000" text-anchor="middle">0</text><text x="262.000" y="168.044" text-anchor="start">-0.7</text><text x="262.000" y="137.556" text-anchor="start">0</text><text x="262.000" y="107.067" text-anchor="start">0.7</text><text x="262.000" y="76.578" text-anchor="start">1.4</text><text x="262.000" y="46.089" text-anchor="start">2.1</text><text x="262.000" y="15.600" text-anchor="start">2.8</text></g><svg xmlns="http://www.w3.org/2000/svg" width="250" height="170" x="5" y="5"><rect x="0" y="0" width="250" height="170" stroke="none" fill="#FFFFFF"></rect><g font-family="DejaVu Sans, sans-serif" font-size="8pt" text-anchor="middle"><polygon points="94.326,108.485 120.130,95.779 74.408,95.779" fill="#009933" stroke="#000000"></polygon><polygon points="74.408,95.779 135.694,95.779 114.136,85.000 57.512,85.000" fill="#009933" stroke="#000000"></polygon><polygon points="151.974,103.919 133.055,85.000 114.136,85.000" fill="#009933" stroke="#000000"></polygon><polygon points="168.556,155.839 168.556,150.179 127.522,129.662" fill="#009933" stroke="#000000"></polygon><polygon points="-5.667,172.111 168.556,172.111 168.556,155.839 57.512,85.000 -5.667,85.000" fill="#FFFFFF" stroke="#000000"></polygon><polygon points="94.326,108.485 127.522,129.662 168.556,150.179 168.556,120.501 151.974,103.919 135.694,95.779 120.130,95.779" fill="#009933" stroke="#000000"></polygon><polygon points="80.909,14.823 95.216,14.823 78.591,7.140" fill="#FFFFFF" stroke="#000000"></polygon><polygon points="78.591,7.140 168.556,48.719 168.556,-2.111 75.801,-2.111" fill="#FFFFFF" stroke="#000000"></polygon><polygon points="84.743,27.529 75.801,-2.111 55.102,-2.111" fill="#FFFFFF" stroke="#000000"></polygon><polygon points="80.909,14.823 84.743,27.529 121.024,63.811 168.556,63.811 168.556,48.719 95.216,14.823" fill="#009933" stroke="#000000"></polygon><polygon points="70.379,60.402 96.120,47.696 50.477,47.696" fill="#009933" stroke="#000000"></polygon><polygon points="-5.667,11.850 50.477,47.696 104.909,47.696 55.102,-2.111 -5.667,-2.111" fill="#FFFFFF" stroke="#000000"></polygon><polygon points="108.906,85.000 110.417,85.000 103.449,81.516" fill="#009933" stroke="#000000"></polygon><polygon points="-5.667,85.000 108.906,85.000 -5.667,11.850" fill="#FFFFFF" stroke="#000000"></polygon><polygon points="70.379,60.402 103.449,81.516 110.417,85.000 142.213,85.000 104.909,47.696 96.120,47.696" fill="#009933" stroke="#000000"></polygon><polygon points="168.556,47.055 188.936,47.055 168.556,26.674" fill="#FFFFFF" stroke="#000000"></polygon><polygon points="168.556,51.104 192.986,51.104 188.936,47.055 168.556,47.055" fill="#009933" stroke="#000000"></polygon><polygon points="168.556,26.674 191.006,49.125 191.996,49.125 168.556,25.685" fill="#FFFFFF" stroke="#000000"></polygon><polygon points="168.556,25.685 227.871,85.000 255.667,85.000 255.667,-2.111 168.556,-2.111" fill="#FFFFFF" stroke="#000000"></polygon><polygon points="226.881,85.000 227.871,85.000 191.996,49.125 191.006,49.125" fill="#009933" stroke="#000000"></polygon><polygon points="168.556,120.501 168.556,85.000 133.055,85.000" fill="#009933" stroke="#000000"></polygon><polygon points="142.213,85.000 168.556,85.000 168.556,63.811 121.024,63.811" fill="#009933" stroke="#000000"></polygon><polygon points="168.556,85.000 226.881,85.000 192.986,51.104 168.556,51.104" fill="#009933" stroke="#000000"></polygon><polygon points="168.556,172.111 255.667,172.111 255.667,85.000 168.556,85.000" fill="#009933" stroke="#000000"></polygon></g><rect x="0.5" y="0.5" width="249" height="169" stroke="#000000" stroke-width="1" fill="none"></rect></svg><g stroke="#000" stroke-width="1"><line x1="42.889" y1="171.000" x2="42.889" y2="174.500"></line><line x1="86.444" y1="171.000" x2="86.444" y2="174.500"></line><line x1="130.000" y1="171.000" x2="130.000" y2="174.500"></line><line x1="173.556" y1="171.000" x2="173.556" y2="174.500"></line><line x1="217.111" y1="171.000" x2="217.111" y2="174.500"></line><line x1="251.000" y1="164.044" x2="254.500" y2="164.044"></line><line x1="251.000" y1="133.556" x2="254.500" y2="133.556"></line><line x1="251.000" y1="103.067" x2="254.500" y2="103.067"></line><line x1="251.000" y1="72.578" x2="254.500" y2="72.578"></line><line x1="251.000" y1="42.089" x2="254.500" y2="42.089"></line><line x1="251.000" y1="11.600" x2="254.500" y2="11.600"></line></g></svg>