<svg xmlns="http://www.w3.org/2000/svg" width="295" height="195"><g font-family="DejaVu Sans, sans-serif" font-size="8pt"><text x="42.889" y="190.000" text-anchor="middle">-4</text><text x="86.444" y="190.000" text-anchor="middle">-3</text><text x="130.000" y="190.000" text-anchor="middle">-2</text><text x="173.556" y="190.000" text-anchor="middle">-1</text><text x="217.111" y="190.000" text-anchor="middle">0</text><text x="262.000" y="168.044" text-anchor="start">-0.7</text><text x="262.000" y="137.556" text-anchor="start">0</text><text x="262.000" y="107.067" text-anchor="start">0.7</text><text x="262.000" y="76.578" text-anchor="start">1.4</text><text x="262.000" y="46.089" text-anchor="start">2.1</text><text x="262.000" y="15.600" text-anchor="start">2.8</text></g><svg xmlns="http://www.w3.org/2000/svg" width="250" height="170" x="5" y="5"><rect x="0" y="0" width="250" height="170" stroke="none" fill="#FFFFFF"></rect><g font-family="DejaVu Sans, sans-serif" font-size="8pt" text-anchor="middle"><polygon points="126.328,95.779 135.694,95.779 123.206,89.535" fill="#009933" stroke="#000000"></polygon><polygon points="123.206,89.535 151.974,103.919 133.055,85.000 120.939,85.000" fill="#009933" stroke="#000000"></polygon><polygon points="120.130,95.779 126.328,95.779 120.939,85.000 109.351,85.000" fill="#009933" stroke="#000000"></polygon><polygon points="116.933,108.485 132.681,108.485 132.526,108.175 109.351,85.000 105.191,85.000" fill="#009933" stroke="#000000"></polygon><polygon points="148.746,172.111 168.556,172.111 168.556,150.179 127.522,129.662" fill="#FFFFFF" stroke="#000000"></polygon><polygon points="106.494,108.485 116.933,108.485 105.191,85.000 83.009,85.000" fill="#009933" stroke="#000000"></polygon><polygon points="94.326,108.485 106.494,108.485 83.009,85.000 47.356,85.000" fill="#009933" stroke="#000000"></polygon><polygon points="-5.667,172.111 148.746,172.111 127.373,129.364 118.662,120.653 47.356,85.000 -5.667,85.000" fill="#FFFFFF" stroke="#000000"></polygon><polygon points="118.662,120.653 106.494,108.485 94.326,108.485" fill="#009933" stroke="#000000"></polygon><polygon points="127.373,129.364 116.933,108.485 106.494,108.485" fill="#009933" stroke="#000000"></polygon><polygon points="132.526,108.175 126.328,95.779 120.130,95.779" fill="#009933" stroke="#000000"></polygon><polygon points="132.681,108.485 156.540,108.485 151.974,103.919 135.694,95.779 126.328,95.779" fill="#009933" stroke="#000000"></polygon><polygon points="127.522,129.662 168.556,150.179 168.556,120.501 156.540,108.485 116.933,108.485" fill="#009933" stroke="#000000"></polygon><polygon points="85.850,14.823 95.216,14.823 82.728,8.579" fill="#009933" stroke="#000000"></polygon><polygon points="80.909,14.823 85.850,14.823 82.728,8.579 66.603,0.517" fill="#FFFFFF" stroke="#000000"></polygon><polygon points="84.743,27.529 92.203,27.529 90.791,24.705 66.603,0.517 61.347,-2.111 55.102,-2.111" fill="#FFFFFF" stroke="#000000"></polygon><polygon points="163.007,48.719 168.556,48.719 168.556,-2.111 61.347,-2.111" fill="#FFFFFF" stroke="#000000"></polygon><polygon points="168.556,51.493 168.556,48.719 163.007,48.719" fill="#009933" stroke="#000000"></polygon><polygon points="90.791,24.705 85.850,14.823 80.909,14.823" fill="#009933" stroke="#000000"></polygon><polygon points="92.203,27.529 120.629,27.529 95.216,14.823 85.850,14.823" fill="#009933" stroke="#000000"></polygon><polygon points="121.024,63.811 168.556,63.811 168.556,51.493 120.629,27.529 84.743,27.529" fill="#009933" stroke="#000000"></polygon><polygon points="102.286,47.696 104.909,47.696 99.664,42.451" fill="#009933" stroke="#000000"></polygon><polygon points="76.957,28.533 96.120,47.696 102.286,47.696 99.664,42.451 68.169,10.956" fill="#009933" stroke="#000000"></polygon><polygon points="92.892,60.402 108.640,60.402 108.453,60.029 76.957,28.533" fill="#009933" stroke="#000000"></polygon><polygon points="105.191,85.000 110.417,85.000 103.449,81.516" fill="#009933" stroke="#000000"></polygon><polygon points="82.484,60.402 92.892,60.402 68.169,10.956 55.102,-2.111 19.971,-2.111" fill="#FFFFFF" stroke="#000000"></polygon><polygon points="-5.667,22.379 70.379,60.402 82.484,60.402 19.971,-2.111 -5.667,-2.111" fill="#FFFFFF" stroke="#000000"></polygon><polygon points="-5.667,85.000 105.191,85.000 103.300,81.218 94.589,72.507 -5.667,22.379" fill="#FFFFFF" stroke="#000000"></polygon><polygon points="94.589,72.507 82.484,60.402 70.379,60.402" fill="#009933" stroke="#000000"></polygon><polygon points="103.300,81.218 92.892,60.402 82.484,60.402" fill="#009933" stroke="#000000"></polygon><polygon points="108.453,60.029 102.286,47.696 96.120,47.696" fill="#009933" stroke="#000000"></polygon><polygon points="108.640,60.402 117.615,60.402 104.909,47.696 102.286,47.696" fill="#009933" stroke="#000000"></polygon><polygon points="103.449,81.516 110.417,85.000 142.213,85.000 117.615,60.402 92.892,60.402" fill="#009933" stroke="#000000"></polygon><polygon points="168.556,47.055 188.936,47.055 168.556,26.674" fill="#FFFFFF" stroke="#000000"></polygon><polygon points="168.556,51.104 192.986,51.104 188.936,47.055 168.556,47.055" fill="#009933" stroke="#000000"></polygon><polygon points="168.556,26.674 191.006,49.125 191.996,49.125 168.556,25.685" fill="#FFFFFF" stroke="#000000"></polygon><polygon points="168.556,25.685 227.871,85.000 255.667,85.000 255.667,-2.111 168.556,-2.111" fill="#FFFFFF" stroke="#000000"></polygon><polygon points="226.881,85.000 227.871,85.000 191.996,49.125 191.006,49.125" fill="#009933" stroke="#000000"></polygon><polygon points="168.556,120.501 168.556,85.000 133.055,85.000" fill="#009933" stroke="#000000"></polygon><polygon points="142.213,85.000 168.556,85.000 168.556,63.811 121.024,63.811" fill="#009933" stroke="#000000"></polygon><polygon points="168.556,85.000 226.881,85.000 192.986,51.104 168.556,51.104" fill="#009933" stroke="#000000"></polygon><polygon points="168.556,172.111 255.667,172.111 255.667,85.000 168.556,85.000" fill="#009933" stroke="#000000"></polygon></g><rect x="0.5" y="0.5" width="249" height="169" stroke="#000000" stroke-width="1" fill="none"></rect></svg><g stroke="#000" stroke-width="1"><line x1="42.889" y1="171.000" x2="42.889" y2="174.500"></line><line x1="86.444" y1="171.000" x2="86.444" y2="174.500"></line><line x1="130.000" y1="171.000" x2="130.000" y2="174.500"></line><line x1="173.556" y1="171.000" x2="173.556" y2="174.500"></line><line x1="217.111" y1="171.000" x2="217.111" y2="174.500"></line><line x1="251.000" y1="164.044" x2="254.500" y2="164.044"></line><line x1="251.000" y1="133.556" x2="254.500" y2="133.556"></line><line x1="251.000" y1="103.067" x2="254.500" y2="103.067"></line><line x1="251.000" y1="72.578" x2="254.500" y2="72.578"></line><line x1="251.000" y1="42.089" x2="254.500" y2="42.089"></line><line x1="251.000" y1="11.600" x2="254.500" y2="11.600"></line></g></svg>