<svg xmlns="http://www.w3.org/2000/svg" width="295" height="195"><g font-family="DejaVu Sans, sans-serif" font-size="8pt"><text x="42.889" y="190.000" text-anchor="middle">-4</text><text x="86.444" y="190.000" text-anchor="middle">-3</text><text x="130.000" y="190.000" text-anchor="middle">-2</text><text x="173.556" y="190.000" text-anchor="middle">-1</text><text x="217.111" y="190.000" text-anchor="middle">0</text><text x="262.000" y="168.044" text-anchor="start">-0.7</text><text x="262.000" y="137.556" text-anchor="start">0</text><text x="262.000" y="107.067" text-anchor="start">0.7</text><text x="262.000" y="76.578" text-anchor="start">1.4</text><text x="262.000" y="46.089" text-anchor="start">2.1</text><text x="262.000" y="15.600" text-anchor="start">2.8</text></g><svg xmlns="http://www.w3.org/2000/svg" width="250" height="170" x="5" y="5"><rect x="0" y="0" width="250" height="170" stroke="none" fill="#FFFFFF"></rect><g font-family="DejaVu Sans, sans-serif" font-size="8pt" text-anchor="middle"><polygon points="126.328,95.779 135.694,95.779 123.206,89.535" fill="#ffcc00" stroke="#000000"></polygon><polygon points="123.206,89.535 151.974,103.919 133.055,85.000 120.939,85.000" fill="#ffcc00" stroke="#000000"></polygon><polygon points="116.933,108.485 132.681,108.485 120.939,85.000 105.191,85.000" fill="#ffcc00" stroke="#000000"></polygon><polygon points="158.641,172.111 168.556,172.111 148.726,165.501" fill="#ffffff" stroke="#000000"></polygon><polygon points="148.746,172.111 158.641,172.111 143.799,162.217" fill="#ffffff" stroke="#000000"></polygon><polygon points="143.799,162.217 148.726,165.501 168.556,172.111 168.556,150.179 127.522,129.662" fill="#ffcc00" stroke="#000000"></polygon><polygon points="55.941,94.260 72.924,94.260 68.294,85.000 42.051,85.000" fill="#ffffff" stroke="#000000"></polygon><polygon points="-5.667,172.111 148.746,172.111 136.761,148.140 42.051,85.000 -5.667,85.000" fill="#FFFFFF" stroke="#000000"></polygon><polygon points="72.924,94.260 109.821,94.260 105.191,85.000 68.294,85.000" fill="#ffcc00" stroke="#000000"></polygon><polygon points="136.761,148.140 109.821,94.260 55.941,94.260" fill="#ffcc00" stroke="#000000"></polygon><polygon points="132.681,108.485 156.540,108.485 151.974,103.919 135.694,95.779 126.328,95.779" fill="#ff6600" stroke="#000000"></polygon><polygon points="127.522,129.662 168.556,150.179 168.556,120.501 156.540,108.485 116.933,108.485" fill="#ff6600" stroke="#000000"></polygon><polygon points="85.850,14.823 95.216,14.823 82.728,8.579" fill="#FFFFFF" stroke="#000000"></polygon><polygon points="84.743,27.529 92.203,27.529 82.728,8.579 61.347,-2.111 55.102,-2.111" fill="#FFFFFF" stroke="#000000"></polygon><polygon points="168.556,51.493 168.556,-2.111 61.347,-2.111" fill="#FFFFFF" stroke="#000000"></polygon><polygon points="92.203,27.529 120.629,27.529 95.216,14.823 85.850,14.823" fill="#ff6600" stroke="#000000"></polygon><polygon points="121.024,63.811 168.556,63.811 168.556,51.493 120.629,27.529 84.743,27.529" fill="#ff6600" stroke="#000000"></polygon><polygon points="72.681,19.981 79.451,22.238 68.169,10.956" fill="#FFFFFF" stroke="#000000"></polygon><polygon points="92.892,60.402 117.615,60.402 79.451,22.238 72.681,19.981" fill="#ffcc00" stroke="#000000"></polygon><polygon points="105.191,85.000 110.417,85.000 103.449,81.516" fill="#ffcc00" stroke="#000000"></polygon><polygon points="30.819,10.051 75.096,24.810 68.169,10.956 55.102,-2.111 24.738,-2.111" fill="#FFFFFF" stroke="#000000"></polygon><polygon points="-5.667,12.090 27.303,34.070 42.829,34.070 24.738,-2.111 -5.667,-2.111" fill="#ffffff" stroke="#000000"></polygon><polygon points="-5.667,85.000 103.699,85.000 -5.667,12.090" fill="#FFFFFF" stroke="#000000"></polygon><polygon points="42.829,34.070 79.726,34.070 75.096,24.810 30.819,10.051" fill="#ffcc00" stroke="#000000"></polygon><polygon points="103.699,85.000 105.191,85.000 79.726,34.070 27.303,34.070" fill="#ffcc00" stroke="#000000"></polygon><polygon points="103.449,81.516 110.417,85.000 142.213,85.000 117.615,60.402 92.892,60.402" fill="#ff6600" stroke="#000000"></polygon><polygon points="168.556,120.501 168.556,85.000 133.055,85.000" fill="#009933" stroke="#000000"></polygon><polygon points="142.213,85.000 168.556,85.000 168.556,63.811 121.024,63.811" fill="#009933" stroke="#000000"></polygon><polygon points="168.556,51.104 192.986,51.104 168.556,26.674" fill="#FFFFFF" stroke="#000000"></polygon><polygon points="168.556,26.674 226.881,85.000 255.667,85.000 255.667,-2.111 168.556,-2.111" fill="#FFFFFF" stroke="#000000"></polygon><polygon points="168.556,85.000 226.881,85.000 192.986,51.104 168.556,51.104" fill="#009933" stroke="#000000"></polygon><polygon points="168.556,172.111 255.667,172.111 255.667,85.000 168.556,85.000" fill="#009933" stroke="#000000"></polygon></g><rect x="0.5" y="0.5" width="249" height="169" stroke="#000000" stroke-width="1" fill="none"></rect></svg><g stroke="#000" stroke-width="1"><line x1="42.889" y1="171.000" x2="42.889" y2="174.500"></line><line x1="86.444" y1="171.000" x2="86.444" y2="174.500"></line><line x1="130.000" y1="171.000" x2="130.000" y2="174.500"></line><line x1="173.556" y1="171.000" x2="173.556" y2="174.500"></line><line x1="217.111" y1="171.000" x2="217.111" y2="174.500"></line><line x1="251.000" y1="164.044" x2="254.500" y2="164.044"></line><line x1="251.000" y1="133.556" x2="254.500" y2="133.556"></line><line x1="251.000" y1="103.067" x2="254.500" y2="103.067"></line><line x1="251.000" y1="72.578" x2="254.500" y2="72.578"></line><line x1="251.000" y1="42.089" x2="254.500" y2="42.089"></line><line x1="251.000" y1="11.600" x2="254.500" y2="11.600"></line></g></svg>