<svg xmlns="http://www.w3.org/2000/svg" width="185" height="175"><g font-family="DejaVu Sans, sans-serif" font-size="8pt"><text x="16.671" y="170.000" text-anchor="middle">-2</text><text x="80.000" y="170.000" text-anchor="middle">0</text><text x="143.329" y="170.000" text-anchor="middle">2</text><text x="162.000" y="147.329" text-anchor="start">-2</text><text x="162.000" y="84.000" text-anchor="start">0</text><text x="162.000" y="20.671" text-anchor="start">2</text></g><svg xmlns="http://www.w3.org/2000/svg" width="150" height="150" x="5" y="5"><rect x="0" y="0" width="150" height="150" stroke="none" fill="#FFFFFF"></rect><g font-family="DejaVu Sans, sans-serif" font-size="10pt" text-anchor="middle"><polygon points="43.336,75.000 75.000,106.664 106.664,75.000 75.000,43.336" fill="#cccccc" stroke="#000000"></polygon><text x="75.000" y="76.000" dy="3">Y</text></g><rect x="0.5" y="0.5" width="149" height="149" stroke="#000000" stroke-width="1" fill="none"></rect></svg><g stroke="#000" stroke-width="1"><line x1="16.671" y1="151.000" x2="16.671" y2="154.500"></line><line x1="80.000" y1="151.000" x2="80.000" y2="154.500"></line><line x1="143.329" y1="151.000" x2="143.329" y2="154.500"></line><line x1="151.000" y1="143.329" x2="154.500" y2="143.329"></line><line x1="151.000" y1="111.664" x2="154.500" y2="111.664"></line><line x1="151.000" y1="80.000" x2="154.500" y2="80.000"></line><line x1="151.000" y1="16.671" x2="154.500" y2="16.671"></line></g></svg>