<svg xmlns="http://www.w3.org/2000/svg" width="185" height="175"><g font-family="DejaVu Sans, sans-serif" font-size="8pt"><text x="17.500" y="170.000" text-anchor="middle">-2</text><text x="80.000" y="170.000" text-anchor="middle">0</text><text x="142.500" y="170.000" text-anchor="middle">2</text><text x="162.000" y="146.500" text-anchor="start">-2</text><text x="162.000" y="84.000" text-anchor="start">0</text><text x="162.000" y="21.500" text-anchor="start">2</text></g><svg xmlns="http://www.w3.org/2000/svg" width="150" height="150" x="5" y="5"><rect x="0" y="0" width="150" height="150" stroke="none" fill="#FFFFFF"></rect><g font-family="DejaVu Sans, sans-serif" font-size="10pt" text-anchor="middle"><polygon points="12.500,43.750 12.500,106.250 43.750,137.500 106.250,137.500 137.500,106.250 137.500,43.750 106.250,12.500 43.750,12.500" fill="#cccccc" stroke="#000000"></polygon><text x="75.000" y="31.000" dy="3">Z ⊕ Y</text><polygon points="43.750,43.750 43.750,106.250 106.250,106.250 106.250,43.750" fill="#ffffff" stroke="#000000"></polygon><text x="75.000" y="76.000" dy="3">Z</text></g><rect x="0.5" y="0.5" width="149" height="149" stroke="#000000" stroke-width="1" fill="none"></rect></svg><g stroke="#000" stroke-width="1"><line x1="17.500" y1="151.000" x2="17.500" y2="154.500"></line><line x1="80.000" y1="151.000" x2="80.000" y2="154.500"></line><line x1="142.500" y1="151.000" x2="142.500" y2="154.500"></line><line x1="151.000" y1="142.500" x2="154.500" y2="142.500"></line><line x1="151.000" y1="80.000" x2="154.500" y2="80.000"></line><line x1="151.000" y1="17.500" x2="154.500" y2="17.500"></line></g></svg>